<svg width="1912" height="1707" xmlns="http://www.w3.org/2000/svg" xmlns:xlink="http://www.w3.org/1999/xlink" overflow="hidden"><defs><clipPath id="clip0"><rect x="1221" y="347" width="1912" height="1707"/></clipPath></defs><g clip-path="url(#clip0)" transform="translate(-1221 -347)"><path d="M2.29167-4.98152e-07 2.29202 1618.97-2.29131 1618.97-2.29167 4.98152e-07ZM22.917 1614.39 0.000360892 1660.22-22.9163 1614.39Z" transform="matrix(1 0 0 -1 1541.5 2053.72)"/><path d="M1289.5 1766.21 3019.65 1766.21 3019.65 1770.79 1289.5 1770.79ZM3015.07 1745.58 3060.91 1768.5 3015.07 1791.42Z"/><path d="M1687.5 1919.5C2178.91 1693.68 2776.68 1162.39 2909.5 604.5" stroke="#000000" stroke-width="4.58333" stroke-linejoin="round" stroke-miterlimit="10" fill="none" fill-rule="evenodd"/><path d="M0 0 970 1174" stroke="#000000" stroke-width="4.58333" stroke-linejoin="round" stroke-miterlimit="10" fill="none" fill-rule="evenodd" transform="matrix(1 0 0 -1 2099.5 1804.5)"/><path d="M1411.17 436.286C1412.64 436.286 1413.89 436.482 1414.93 436.876 1415.64 437.163 1416.36 437.637 1417.08 438.3 1417.79 438.962 1418.43 439.884 1418.98 441.066 1419.54 442.247 1420.02 443.572 1420.43 445.04 1420.84 446.509 1421.3 448.621 1421.8 451.378 1422.66 455.997 1423.49 460.858 1424.3 465.961 1425.11 471.063 1425.8 475.799 1426.37 480.167 1429.84 475.154 1432.79 470.249 1435.2 465.451 1437.62 460.652 1439.36 456.481 1440.41 452.936 1441.47 449.391 1442 446.509 1442 444.288 1442 442.606 1441.64 441.46 1440.92 440.851 1440.21 440.242 1438.99 439.884 1437.27 439.777L1437.81 437.145 1451.93 437.145 1453.38 439.83C1450.66 447.278 1446.98 455.245 1442.32 463.732 1437.74 472.039 1432.49 480.311 1426.58 488.546 1420.93 496.388 1416.22 502.064 1412.46 505.573 1409.84 507.972 1407.32 509.69 1404.88 510.729 1402.95 511.517 1400.89 511.911 1398.71 511.911 1397.96 511.911 1397.09 511.848 1396.1 511.723 1395.12 511.597 1394.36 511.427 1393.82 511.212L1396.13 500.792 1400.37 500.792C1400.37 503.084 1401.16 504.23 1402.74 504.23 1404.81 504.23 1407.23 502.932 1409.99 500.336 1412.74 497.74 1415.98 493.828 1419.71 488.6 1418.67 482.334 1417.26 474.778 1415.46 465.934 1413.57 456.481 1412.31 450.626 1411.71 448.37 1410.95 445.649 1410.17 443.912 1409.34 443.161 1408.84 442.695 1408.21 442.462 1407.46 442.462 1406.32 442.462 1405.24 442.928 1404.24 443.859 1403.24 444.79 1402 446.401 1400.53 448.693L1397.04 446.383C1399.51 442.695 1401.82 440.09 1403.97 438.568 1406.12 437.046 1408.52 436.286 1411.17 436.286Z" fill-rule="evenodd"/><text fill="#000000" fill-opacity="0" font-family="Arial,Arial_MSFontService,sans-serif" font-size="75.625" x="1393.82" y="502.457">洧녽</text><path d="M3043.01 1836.41C3044.12 1836.41 3045.1 1836.54 3045.94 1836.79 3046.78 1837.04 3047.52 1837.42 3048.17 1837.94 3048.81 1838.46 3049.39 1839.13 3049.89 1839.96 3050.39 1840.78 3050.87 1841.9 3051.34 1843.32 3051.8 1844.73 3052.24 1846.48 3052.65 1848.58 3053.07 1850.67 3053.43 1852.85 3053.76 1855.1L3054.29 1855.1C3057.73 1850.27 3060.33 1846.73 3062.11 1844.5 3063.88 1842.26 3065.37 1840.59 3066.59 1839.5 3067.81 1838.41 3068.98 1837.64 3070.11 1837.19 3071.24 1836.74 3072.73 1836.52 3074.59 1836.52 3076.28 1836.52 3077.66 1836.74 3078.73 1837.17L3076.58 1846.89 3072.82 1846.89C3072.61 1845.38 3071.98 1844.63 3070.94 1844.63 3070.62 1844.63 3070.28 1844.68 3069.92 1844.79 3069.56 1844.9 3069.13 1845.13 3068.61 1845.49 3068.09 1845.85 3067.33 1846.55 3066.32 1847.59 3065.32 1848.62 3064.19 1849.89 3062.94 1851.4 3061.69 1852.9 3060.4 1854.48 3059.07 1856.13L3055.42 1860.69C3056.06 1864.13 3056.67 1867.1 3057.25 1869.61 3057.82 1872.11 3058.33 1874.2 3058.78 1875.86 3059.22 1877.53 3059.62 1878.84 3059.96 1879.81 3060.3 1880.78 3060.67 1881.5 3061.06 1881.99 3061.45 1882.47 3061.86 1882.81 3062.27 1883.01 3062.68 1883.2 3063.15 1883.3 3063.69 1883.3 3064.66 1883.3 3065.6 1882.93 3066.51 1882.18 3067.42 1881.42 3068.74 1879.72 3070.46 1877.07L3073.95 1879.38C3071.44 1883.11 3069.18 1885.73 3067.16 1887.25 3065.13 1888.77 3062.72 1889.53 3059.93 1889.53 3058.39 1889.53 3057.09 1889.26 3056.01 1888.7 3054.94 1888.15 3054.01 1887.26 3053.22 1886.04 3052.43 1884.82 3051.73 1882.93 3051.12 1880.35 3050.01 1875.77 3049.33 1872.26 3049.08 1869.82L3048.55 1869.82C3044.75 1875.16 3041.93 1878.99 3040.09 1881.32 3038.24 1883.64 3036.72 1885.36 3035.52 1886.47 3034.32 1887.58 3033.16 1888.36 3032.03 1888.81 3030.9 1889.26 3029.41 1889.48 3027.54 1889.48 3025.86 1889.48 3024.48 1889.26 3023.41 1888.84L3025.56 1879.11 3029.32 1879.11C3029.53 1880.62 3030.16 1881.37 3031.2 1881.37 3031.7 1881.37 3032.23 1881.24 3032.78 1880.97 3033.34 1880.7 3034.13 1880.05 3035.17 1879.03 3036.21 1878.01 3037.64 1876.41 3039.47 1874.23 3041.29 1872.04 3043.94 1868.77 3047.42 1864.4 3046.88 1861.57 3046.33 1858.85 3045.75 1856.23 3045.18 1853.62 3044.59 1851.18 3043.98 1848.93 3043.37 1846.67 3042.87 1845.2 3042.48 1844.5 3042.08 1843.8 3041.66 1843.32 3041.21 1843.05 3040.77 1842.78 3040.2 1842.64 3039.52 1842.64 3038.77 1842.64 3038.09 1842.81 3037.48 1843.15 3036.87 1843.49 3036.21 1844.09 3035.49 1844.93 3034.78 1845.77 3033.83 1847.08 3032.65 1848.87L3029.16 1846.56C3031.41 1843.16 3033.58 1840.62 3035.65 1838.94 3037.73 1837.25 3040.18 1836.41 3043.01 1836.41Z" fill-rule="evenodd"/><text fill="#000000" fill-opacity="0" font-family="Arial,Arial_MSFontService,sans-serif" font-size="53.1201" x="3023.41" y="1882.89">洧논</text><path d="M1471.28 1817.98C1467.41 1817.98 1463.8 1819.36 1460.45 1822.12 1457.11 1824.88 1454.17 1828.81 1451.64 1833.94 1449.12 1839.06 1447.16 1844.68 1445.76 1850.8 1444.37 1856.92 1443.67 1862.33 1443.67 1867.02 1443.67 1878.09 1447.7 1883.62 1455.75 1883.62 1460.66 1883.62 1465.16 1881.36 1469.26 1876.85 1473.36 1872.34 1476.72 1866.01 1479.33 1857.86 1481.95 1849.72 1483.25 1841.9 1483.25 1834.42 1483.25 1823.46 1479.26 1817.98 1471.28 1817.98ZM1471.87 1813.26C1478.78 1813.26 1484.1 1815.26 1487.85 1819.27 1491.59 1823.28 1493.46 1829.08 1493.46 1836.67 1493.46 1842.22 1492.51 1848.46 1490.61 1855.39 1488.71 1862.32 1485.97 1868.32 1482.37 1873.39 1478.77 1878.45 1474.66 1882.21 1470.04 1884.67 1465.42 1887.12 1460.59 1888.34 1455.54 1888.34 1448.34 1888.34 1442.88 1886.34 1439.16 1882.33 1435.43 1878.32 1433.57 1872.59 1433.57 1865.14 1433.57 1859.77 1434.48 1853.7 1436.28 1846.93 1438.09 1840.17 1440.71 1834.2 1444.13 1829.02 1447.54 1823.85 1451.63 1819.93 1456.37 1817.26 1461.12 1814.59 1466.28 1813.26 1471.87 1813.26Z" fill-rule="evenodd"/><text fill="#000000" fill-opacity="0" font-family="Arial,Arial_MSFontService,sans-serif" font-size="75.0879" x="1433.57" y="1878.96">洧녝</text><path d="M2540.77 1829.98C2541.88 1829.98 2542.85 1830.11 2543.7 1830.36 2544.54 1830.61 2545.28 1831 2545.92 1831.51 2546.57 1832.03 2547.14 1832.7 2547.64 1833.53 2548.14 1834.35 2548.63 1835.47 2549.09 1836.89 2549.56 1838.3 2550 1840.05 2550.41 1842.15 2550.82 1844.24 2551.19 1846.42 2551.51 1848.68L2552.05 1848.68C2555.49 1843.84 2558.09 1840.31 2559.86 1838.07 2561.64 1835.83 2563.13 1834.16 2564.35 1833.07 2565.57 1831.98 2566.74 1831.21 2567.87 1830.76 2568.99 1830.31 2570.49 1830.09 2572.35 1830.09 2574.03 1830.09 2575.41 1830.31 2576.49 1830.74L2574.34 1840.46 2570.58 1840.46C2570.36 1838.95 2569.74 1838.2 2568.7 1838.2 2568.38 1838.2 2568.04 1838.26 2567.68 1838.36 2567.32 1838.47 2566.88 1838.7 2566.36 1839.06 2565.84 1839.42 2565.08 1840.12 2564.08 1841.16 2563.08 1842.19 2561.95 1843.47 2560.7 1844.97 2559.44 1846.47 2558.15 1848.05 2556.83 1849.7L2553.18 1854.26C2553.82 1857.7 2554.43 1860.67 2555 1863.18 2555.57 1865.68 2556.09 1867.77 2556.53 1869.43 2556.98 1871.1 2557.37 1872.42 2557.71 1873.38 2558.05 1874.35 2558.42 1875.07 2558.82 1875.56 2559.21 1876.04 2559.61 1876.38 2560.02 1876.58 2560.44 1876.77 2560.91 1876.87 2561.45 1876.87 2562.41 1876.87 2563.35 1876.5 2564.27 1875.75 2565.18 1874.99 2566.5 1873.29 2568.21 1870.64L2571.71 1872.95C2569.2 1876.68 2566.93 1879.3 2564.91 1880.82 2562.89 1882.34 2560.48 1883.1 2557.69 1883.1 2556.15 1883.1 2554.84 1882.83 2553.77 1882.27 2552.69 1881.72 2551.76 1880.83 2550.97 1879.61 2550.19 1878.4 2549.49 1876.5 2548.88 1873.92 2547.77 1869.34 2547.09 1865.83 2546.84 1863.39L2546.3 1863.39C2542.51 1868.73 2539.69 1872.56 2537.84 1874.89 2536 1877.21 2534.48 1878.93 2533.28 1880.04 2532.08 1881.15 2530.91 1881.93 2529.78 1882.38 2528.66 1882.83 2527.16 1883.05 2525.3 1883.05 2523.62 1883.05 2522.24 1882.84 2521.16 1882.41L2523.31 1872.68 2527.07 1872.68C2527.29 1874.19 2527.91 1874.94 2528.95 1874.94 2529.45 1874.94 2529.98 1874.81 2530.54 1874.54 2531.09 1874.27 2531.89 1873.62 2532.93 1872.6 2533.97 1871.58 2535.4 1869.98 2537.22 1867.8 2539.05 1865.61 2541.7 1862.34 2545.17 1857.97 2544.64 1855.14 2544.08 1852.42 2543.51 1849.8 2542.93 1847.19 2542.34 1844.75 2541.74 1842.5 2541.13 1840.24 2540.63 1838.77 2540.23 1838.07 2539.84 1837.37 2539.42 1836.89 2538.97 1836.62 2538.52 1836.35 2537.96 1836.21 2537.28 1836.21 2536.53 1836.21 2535.84 1836.38 2535.24 1836.72 2534.63 1837.06 2533.97 1837.66 2533.25 1838.5 2532.53 1839.34 2531.58 1840.65 2530.4 1842.44L2526.91 1840.14C2529.17 1836.73 2531.33 1834.19 2533.41 1832.51 2535.49 1830.83 2537.94 1829.98 2540.77 1829.98Z" fill-rule="evenodd"/><text fill="#000000" fill-opacity="0" font-family="Arial,Arial_MSFontService,sans-serif" font-size="53.1201" x="2521.16" y="1876.46">洧논</text><path d="M2598.01 1851.38 2600.82 1851.38 2593.94 1881.77 2595.04 1881.77C2596.03 1881.77 2597.1 1881.56 2598.24 1881.15 2599.39 1880.73 2600.53 1880.19 2601.66 1879.53 2602.79 1878.86 2603.88 1878.11 2604.92 1877.28 2605.96 1876.45 2606.88 1875.61 2607.67 1874.76 2608.47 1873.92 2609.1 1873.11 2609.57 1872.36 2610.04 1871.6 2610.27 1870.97 2610.27 1870.44 2610.27 1869.82 2610.06 1869.31 2609.65 1868.92 2609.23 1868.53 2608.48 1868.27 2607.38 1868.14L2607.85 1865.64 2621.91 1865.64 2622.89 1868.06C2621.25 1869.47 2619.67 1870.77 2618.16 1871.97 2616.65 1873.17 2615.17 1874.32 2613.73 1875.43 2612.28 1876.53 2610.84 1877.62 2609.39 1878.69 2607.95 1879.75 2606.47 1880.86 2604.96 1882.01 2605.58 1883.99 2606.22 1886 2606.87 1888.04 2607.53 1890.09 2608.18 1892.11 2608.83 1894.12 2609.14 1895.18 2609.43 1896.1 2609.71 1896.87 2609.98 1897.64 2610.27 1898.26 2610.58 1898.75 2610.9 1899.23 2611.24 1899.59 2611.6 1899.82 2611.97 1900.05 2612.41 1900.17 2612.93 1900.17 2613.29 1900.17 2613.67 1900.11 2614.06 1899.98 2614.45 1899.85 2614.89 1899.61 2615.37 1899.27 2615.85 1898.93 2616.4 1898.47 2617.01 1897.89 2617.62 1897.3 2618.32 1896.56 2619.1 1895.68L2621.76 1898.22C2620.53 1899.47 2619.39 1900.55 2618.34 1901.46 2617.28 1902.37 2616.28 1903.12 2615.33 1903.71 2614.38 1904.29 2613.46 1904.72 2612.58 1905 2611.69 1905.27 2610.79 1905.41 2609.88 1905.41 2608.24 1905.41 2606.92 1905 2605.92 1904.18 2604.91 1903.36 2604.06 1902.18 2603.36 1900.66 2602.66 1899.14 2602.01 1897.29 2601.42 1895.13 2600.84 1892.97 2600.16 1890.56 2599.37 1887.91 2599.19 1887.28 2599.02 1886.78 2598.85 1886.4 2598.68 1886.02 2598.46 1885.74 2598.2 1885.54 2597.94 1885.35 2597.62 1885.22 2597.23 1885.17 2596.83 1885.12 2596.34 1885.09 2595.74 1885.09L2593.24 1885.09 2588.94 1904.7 2581.44 1904.7 2590.9 1862.75C2591.21 1861.37 2591.43 1860.28 2591.56 1859.49 2591.69 1858.69 2591.76 1857.98 2591.76 1857.36 2591.76 1856.86 2591.67 1856.43 2591.5 1856.07 2591.33 1855.71 2591.05 1855.41 2590.66 1855.19 2590.27 1854.97 2589.75 1854.81 2589.1 1854.7 2588.45 1854.6 2587.64 1854.53 2586.68 1854.51L2587.26 1851.85Z" fill-rule="evenodd"/><text fill="#000000" fill-opacity="0" font-family="Arial,Arial_MSFontService,sans-serif" font-size="54.0234" x="2581.44" y="1898.65">洧녲</text><path d="M1956.09 1833.84C1952.41 1833.84 1949.09 1835.32 1946.16 1838.3 1943.22 1841.27 1940.93 1845.25 1939.28 1850.25 1937.64 1855.24 1936.81 1860.23 1936.81 1865.2 1936.81 1868.93 1937.32 1871.71 1938.34 1873.56 1939.36 1875.4 1941.07 1876.32 1943.47 1876.32 1945.84 1876.32 1948.15 1875.3 1950.43 1873.26 1952.7 1871.22 1955.05 1868.31 1957.46 1864.53 1959.88 1860.76 1961.59 1856.4 1962.59 1851.45L1963.08 1849.15C1963.4 1847.68 1963.61 1846.41 1963.72 1845.33 1963.83 1844.26 1963.88 1843.09 1963.88 1841.84 1963.88 1839.08 1963.29 1837.06 1962.11 1835.77 1960.93 1834.48 1958.92 1833.84 1956.09 1833.84ZM1955.02 1829.59C1957.35 1829.59 1959.52 1829.85 1961.55 1830.37 1963.57 1830.89 1965.65 1831.81 1967.8 1833.14L1972.74 1829.59 1976.18 1830.45 1968.29 1864.51C1967.5 1867.91 1967.1 1870.56 1967.1 1872.46 1967.1 1873.89 1967.34 1874.93 1967.8 1875.57 1968.27 1876.22 1969 1876.54 1970.01 1876.54 1971.08 1876.54 1972.23 1876.1 1973.44 1875.22 1974.66 1874.34 1976.38 1872.67 1978.6 1870.2L1981.66 1873.21C1978.44 1876.65 1975.69 1879.09 1973.42 1880.54 1971.14 1881.99 1968.68 1882.71 1966.03 1882.71 1963.81 1882.71 1962.04 1881.98 1960.71 1880.51 1959.39 1879.04 1958.73 1877.09 1958.73 1874.66 1958.73 1872.69 1959.14 1870.59 1959.96 1868.37L1959.26 1868.16C1955.83 1873.17 1952.57 1876.84 1949.49 1879.17 1946.41 1881.5 1943.15 1882.66 1939.71 1882.66 1935.77 1882.66 1932.72 1881.18 1930.55 1878.2 1928.39 1875.23 1927.3 1871.06 1927.3 1865.69 1927.3 1859.53 1928.51 1853.61 1930.93 1847.94 1933.35 1842.26 1936.67 1837.79 1940.89 1834.51 1945.12 1831.23 1949.83 1829.59 1955.02 1829.59Z" fill-rule="evenodd"/><text fill="#000000" fill-opacity="0" font-family="Arial,Arial_MSFontService,sans-serif" font-size="53.1201" x="1927.3" y="1876.07">洧녩</text><path d="M2156.11 1828.02C2157.22 1828.02 2158.19 1828.15 2159.03 1828.4 2159.87 1828.65 2160.62 1829.04 2161.26 1829.55 2161.91 1830.07 2162.48 1830.74 2162.98 1831.57 2163.48 1832.39 2163.96 1833.51 2164.43 1834.93 2164.9 1836.34 2165.33 1838.09 2165.75 1840.19 2166.16 1842.28 2166.53 1844.46 2166.85 1846.72L2167.38 1846.72C2170.82 1841.88 2173.43 1838.35 2175.2 1836.11 2176.97 1833.87 2178.47 1832.2 2179.68 1831.11 2180.9 1830.02 2182.07 1829.25 2183.2 1828.8 2184.33 1828.35 2185.83 1828.13 2187.69 1828.13 2189.37 1828.13 2190.75 1828.35 2191.82 1828.78L2189.67 1838.5 2185.91 1838.5C2185.7 1836.99 2185.07 1836.24 2184.03 1836.24 2183.71 1836.24 2183.37 1836.3 2183.01 1836.4 2182.66 1836.51 2182.22 1836.74 2181.7 1837.1 2181.18 1837.46 2180.42 1838.16 2179.42 1839.2 2178.41 1840.23 2177.29 1841.51 2176.03 1843.01 2174.78 1844.51 2173.49 1846.09 2172.16 1847.74L2168.51 1852.3C2169.16 1855.74 2169.77 1858.71 2170.34 1861.22 2170.91 1863.72 2171.42 1865.81 2171.87 1867.47 2172.32 1869.14 2172.71 1870.46 2173.05 1871.42 2173.39 1872.39 2173.76 1873.11 2174.15 1873.6 2174.55 1874.08 2174.95 1874.42 2175.36 1874.62 2175.77 1874.81 2176.25 1874.91 2176.78 1874.91 2177.75 1874.91 2178.69 1874.54 2179.6 1873.79 2180.52 1873.03 2181.83 1871.33 2183.55 1868.68L2187.04 1870.99C2184.54 1874.72 2182.27 1877.34 2180.25 1878.86 2178.23 1880.38 2175.82 1881.14 2173.02 1881.14 2171.48 1881.14 2170.18 1880.87 2169.1 1880.31 2168.03 1879.76 2167.1 1878.87 2166.31 1877.65 2165.52 1876.44 2164.82 1874.54 2164.22 1871.96 2163.11 1867.38 2162.43 1863.87 2162.17 1861.43L2161.64 1861.43C2157.84 1866.77 2155.02 1870.6 2153.18 1872.93 2151.33 1875.25 2149.81 1876.97 2148.61 1878.08 2147.41 1879.19 2146.25 1879.97 2145.12 1880.42 2143.99 1880.87 2142.5 1881.09 2140.64 1881.09 2138.95 1881.09 2137.57 1880.88 2136.5 1880.45L2138.65 1870.72 2142.41 1870.72C2142.62 1872.23 2143.25 1872.98 2144.29 1872.98 2144.79 1872.98 2145.32 1872.85 2145.87 1872.58 2146.43 1872.31 2147.23 1871.66 2148.26 1870.64 2149.3 1869.62 2150.73 1868.02 2152.56 1865.84 2154.39 1863.65 2157.04 1860.38 2160.51 1856.01 2159.97 1853.18 2159.42 1850.46 2158.84 1847.84 2158.27 1845.23 2157.68 1842.79 2157.07 1840.54 2156.46 1838.28 2155.96 1836.81 2155.57 1836.11 2155.17 1835.41 2154.75 1834.93 2154.31 1834.66 2153.86 1834.39 2153.29 1834.25 2152.61 1834.25 2151.86 1834.25 2151.18 1834.42 2150.57 1834.76 2149.96 1835.1 2149.3 1835.7 2148.59 1836.54 2147.87 1837.38 2146.92 1838.69 2145.74 1840.48L2142.25 1838.18C2144.5 1834.77 2146.67 1832.23 2148.75 1830.55 2150.82 1828.87 2153.28 1828.02 2156.11 1828.02Z" fill-rule="evenodd"/><text fill="#000000" fill-opacity="0" font-family="Arial,Arial_MSFontService,sans-serif" font-size="53.1201" x="2136.5" y="1874.5">洧논</text><path d="M2213.34 1849.42 2216.16 1849.42 2209.28 1879.81 2210.37 1879.81C2211.36 1879.81 2212.43 1879.6 2213.58 1879.19 2214.72 1878.77 2215.86 1878.23 2217 1877.57 2218.13 1876.9 2219.22 1876.15 2220.26 1875.32 2221.3 1874.49 2222.22 1873.65 2223.01 1872.8 2223.81 1871.96 2224.44 1871.15 2224.91 1870.4 2225.37 1869.64 2225.61 1869.01 2225.61 1868.48 2225.61 1867.86 2225.4 1867.35 2224.98 1866.96 2224.57 1866.57 2223.81 1866.31 2222.72 1866.18L2223.19 1863.68 2237.25 1863.68 2238.23 1866.1C2236.59 1867.51 2235.01 1868.81 2233.5 1870.01 2231.99 1871.21 2230.51 1872.36 2229.07 1873.47 2227.62 1874.57 2226.18 1875.66 2224.73 1876.73 2223.28 1877.79 2221.81 1878.9 2220.3 1880.05 2220.92 1882.03 2221.56 1884.04 2222.21 1886.08 2222.86 1888.13 2223.51 1890.15 2224.16 1892.16 2224.48 1893.22 2224.77 1894.14 2225.04 1894.91 2225.32 1895.68 2225.61 1896.3 2225.92 1896.79 2226.23 1897.27 2226.57 1897.63 2226.94 1897.86 2227.3 1898.09 2227.74 1898.21 2228.27 1898.21 2228.63 1898.21 2229.01 1898.15 2229.4 1898.02 2229.79 1897.89 2230.23 1897.65 2230.71 1897.31 2231.19 1896.97 2231.74 1896.51 2232.35 1895.93 2232.96 1895.34 2233.66 1894.6 2234.44 1893.72L2237.09 1896.26C2235.87 1897.51 2234.73 1898.59 2233.68 1899.5 2232.62 1900.41 2231.62 1901.16 2230.67 1901.75 2229.72 1902.33 2228.8 1902.76 2227.91 1903.04 2227.03 1903.31 2226.13 1903.45 2225.22 1903.45 2223.58 1903.45 2222.26 1903.04 2221.25 1902.22 2220.25 1901.4 2219.4 1900.22 2218.7 1898.7 2217.99 1897.18 2217.35 1895.33 2216.76 1893.17 2216.18 1891.01 2215.49 1888.6 2214.71 1885.95 2214.53 1885.32 2214.35 1884.82 2214.18 1884.44 2214.01 1884.06 2213.8 1883.78 2213.54 1883.58 2213.28 1883.39 2212.95 1883.26 2212.56 1883.21 2212.17 1883.16 2211.68 1883.13 2211.08 1883.13L2208.58 1883.13 2204.28 1902.74 2196.78 1902.74 2206.23 1860.79C2206.55 1859.41 2206.77 1858.32 2206.9 1857.53 2207.03 1856.73 2207.09 1856.02 2207.09 1855.4 2207.09 1854.9 2207.01 1854.47 2206.84 1854.11 2206.67 1853.75 2206.39 1853.45 2206 1853.23 2205.61 1853.01 2205.09 1852.85 2204.44 1852.74 2203.79 1852.64 2202.98 1852.57 2202.02 1852.55L2202.6 1849.89Z" fill-rule="evenodd"/><text fill="#000000" fill-opacity="0" font-family="Arial,Arial_MSFontService,sans-serif" font-size="54.0234" x="2196.78" y="1896.69">洧녲</text><path d="M2269.25 1856.34 2275.57 1856.34 2275.57 1876.88 2294.91 1876.88 2294.91 1882.86 2275.57 1882.86 2275.57 1903.41 2269.25 1903.41 2269.25 1882.86 2249.91 1882.86 2249.91 1876.88 2269.25 1876.88Z" fill-rule="evenodd"/><text fill="#000000" fill-opacity="0" font-family="Arial,Arial_MSFontService,sans-serif" font-size="47.0703" x="2249.91" y="1897.52">+</text><path d="M2328.11 1852.43 2330.5 1852.43C2330.44 1853.86 2330.4 1855.15 2330.38 1856.28 2330.35 1857.41 2330.33 1858.51 2330.32 1859.58 2330.31 1860.65 2330.3 1861.7 2330.3 1862.74L2330.3 1892.43C2330.3 1893.24 2330.33 1893.93 2330.38 1894.52 2330.43 1895.11 2330.52 1895.6 2330.63 1896 2330.75 1896.41 2330.91 1896.75 2331.1 1897.04 2331.3 1897.33 2331.52 1897.57 2331.78 1897.78 2332.1 1898.09 2332.51 1898.34 2333.03 1898.5 2333.56 1898.67 2334.22 1898.82 2335.03 1898.93 2335.83 1899.05 2336.8 1899.14 2337.94 1899.21 2339.07 1899.27 2340.43 1899.32 2342.02 1899.34L2342.02 1902.74 2311.04 1902.74 2311.04 1899.34C2312.58 1899.29 2313.88 1899.23 2314.95 1899.17 2316.02 1899.1 2316.93 1899.01 2317.68 1898.9 2318.44 1898.78 2319.04 1898.65 2319.5 1898.5 2319.96 1898.36 2320.35 1898.19 2320.69 1897.98 2321.06 1897.74 2321.37 1897.49 2321.63 1897.22 2321.89 1896.94 2322.1 1896.6 2322.25 1896.18 2322.41 1895.76 2322.53 1895.26 2322.62 1894.66 2322.72 1894.06 2322.76 1893.32 2322.76 1892.43L2322.76 1864.42C2322.76 1863.41 2322.57 1862.69 2322.18 1862.27 2321.78 1861.86 2321.22 1861.65 2320.5 1861.65 2319.69 1861.65 2318.49 1862.07 2316.9 1862.9 2315.31 1863.73 2313.26 1864.97 2310.73 1866.61 2310.39 1866.01 2310.08 1865.41 2309.79 1864.81 2309.51 1864.21 2309.21 1863.6 2308.89 1862.98 2312.12 1861.21 2315.32 1859.44 2318.48 1857.68 2321.65 1855.93 2324.86 1854.18 2328.11 1852.43Z" fill-rule="evenodd"/><text fill="#000000" fill-opacity="0" font-family="Arial,Arial_MSFontService,sans-serif" font-size="50.3125" x="2308.89" y="1896.45">1</text><path d="M0 0 0.000360892 528" stroke="#000000" stroke-width="3.4375" stroke-linejoin="round" stroke-miterlimit="10" stroke-dasharray="13.75 10.3125" fill="none" fill-rule="evenodd" transform="matrix(1 0 0 -1 2563.5 1773.5)"/><path d="M0 0 1022 7.9999" stroke="#000000" stroke-width="3.4375" stroke-linejoin="round" stroke-miterlimit="10" stroke-dasharray="13.75 10.3125" fill="none" fill-rule="evenodd" transform="matrix(-1 0 0 1 2563.5 1237.5)"/><path d="M1311.33 1211.37C1314.26 1211.37 1316.79 1211.61 1318.92 1212.09L1317.17 1219.73 1313.21 1219.73C1312.79 1218.02 1312.25 1216.79 1311.57 1216.04 1310.9 1215.29 1309.9 1214.92 1308.59 1214.92 1306.88 1214.92 1305.43 1215.39 1304.25 1216.33 1303.07 1217.28 1302.06 1218.68 1301.22 1220.53 1300.38 1222.39 1299.6 1224.89 1298.88 1228.04L1297.76 1232.93 1309.3 1232.93 1308.32 1237.47 1296.73 1237.47 1288.37 1276.64C1286.99 1283.14 1284.88 1287.98 1282.04 1291.17 1279.19 1294.36 1275.61 1295.96 1271.3 1295.96 1270.04 1295.96 1269.05 1295.88 1268.34 1295.73L1269.1 1291.78C1269.4 1291.87 1270.1 1291.91 1271.21 1291.91 1272.56 1291.91 1273.71 1291.57 1274.67 1290.88 1275.63 1290.19 1276.52 1288.99 1277.34 1287.29 1278.17 1285.58 1278.92 1283.21 1279.61 1280.19L1289.27 1237.47 1281.68 1237.47 1282.35 1234.37C1284.36 1234.25 1285.8 1234.09 1286.69 1233.88 1287.57 1233.67 1288.26 1233.35 1288.75 1232.93 1289.25 1232.51 1289.67 1231.97 1290.01 1231.29 1290.35 1230.62 1290.8 1229.38 1291.34 1227.59 1292.92 1222.2 1295.37 1218.15 1298.68 1215.44 1301.99 1212.72 1306.2 1211.37 1311.33 1211.37Z" fill-rule="evenodd"/><text fill="#000000" fill-opacity="0" font-family="Arial,Arial_MSFontService,sans-serif" font-size="84.5879" x="1268.34" y="1285.38">洧녭</text><path d="M1357.37 1210.97 1358.58 1214.42C1351.58 1216.73 1346.39 1221.23 1343.02 1227.92 1339.65 1234.62 1337.96 1243.02 1337.96 1253.15 1337.96 1263.63 1339.65 1272.27 1343.02 1279.07 1346.39 1285.87 1351.53 1290.42 1358.45 1292.72L1357.37 1296.18C1348.6 1293.88 1341.87 1288.91 1337.2 1281.29 1332.53 1273.67 1330.19 1264.44 1330.19 1253.6 1330.19 1242.79 1332.54 1233.55 1337.22 1225.9 1341.91 1218.25 1348.63 1213.27 1357.37 1210.97Z" fill-rule="evenodd"/><text fill="#000000" fill-opacity="0" font-family="Arial,Arial_MSFontService,sans-serif" font-size="85.2168" x="1330.19" y="1285.53">(</text><path d="M1377.66 1232.17C1378.59 1232.17 1379.41 1232.27 1380.11 1232.48 1380.82 1232.69 1381.44 1233.01 1381.98 1233.45 1382.52 1233.88 1382.99 1234.44 1383.41 1235.13 1383.83 1235.82 1384.24 1236.76 1384.63 1237.94 1385.02 1239.12 1385.38 1240.59 1385.73 1242.34 1386.07 1244.1 1386.38 1245.91 1386.65 1247.8L1387.1 1247.8C1389.97 1243.76 1392.15 1240.8 1393.63 1238.93 1395.12 1237.06 1396.37 1235.67 1397.38 1234.75 1398.4 1233.84 1399.38 1233.19 1400.33 1232.82 1401.27 1232.45 1402.52 1232.26 1404.08 1232.26 1405.49 1232.26 1406.64 1232.44 1407.54 1232.8L1405.74 1240.93 1402.6 1240.93C1402.42 1239.67 1401.89 1239.04 1401.02 1239.04 1400.75 1239.04 1400.47 1239.09 1400.17 1239.18 1399.87 1239.27 1399.5 1239.46 1399.07 1239.76 1398.63 1240.06 1398 1240.64 1397.16 1241.51 1396.32 1242.38 1395.38 1243.44 1394.33 1244.7 1393.28 1245.96 1392.2 1247.28 1391.1 1248.65L1388.04 1252.47C1388.58 1255.35 1389.09 1257.83 1389.57 1259.93 1390.05 1262.03 1390.47 1263.77 1390.85 1265.16 1391.22 1266.56 1391.55 1267.66 1391.84 1268.47 1392.12 1269.27 1392.43 1269.88 1392.76 1270.28 1393.09 1270.69 1393.42 1270.97 1393.77 1271.14 1394.11 1271.3 1394.51 1271.39 1394.96 1271.39 1395.77 1271.39 1396.55 1271.07 1397.32 1270.44 1398.08 1269.81 1399.18 1268.39 1400.62 1266.17L1403.54 1268.11C1401.44 1271.22 1399.55 1273.41 1397.86 1274.69 1396.16 1275.96 1394.15 1276.6 1391.81 1276.6 1390.53 1276.6 1389.43 1276.36 1388.53 1275.9 1387.64 1275.44 1386.86 1274.69 1386.2 1273.68 1385.54 1272.66 1384.96 1271.07 1384.45 1268.91 1383.52 1265.08 1382.95 1262.15 1382.74 1260.11L1382.29 1260.11C1379.12 1264.57 1376.76 1267.78 1375.22 1269.72 1373.67 1271.67 1372.4 1273.11 1371.4 1274.04 1370.39 1274.96 1369.42 1275.62 1368.48 1275.99 1367.53 1276.36 1366.28 1276.55 1364.73 1276.55 1363.32 1276.55 1362.17 1276.37 1361.27 1276.01L1363.06 1267.88 1366.21 1267.88C1366.39 1269.14 1366.91 1269.77 1367.78 1269.77 1368.2 1269.77 1368.64 1269.66 1369.11 1269.43 1369.57 1269.21 1370.24 1268.67 1371.11 1267.81 1371.97 1266.96 1373.17 1265.62 1374.7 1263.79 1376.23 1261.97 1378.44 1259.23 1381.35 1255.57 1380.9 1253.21 1380.43 1250.93 1379.95 1248.74 1379.48 1246.56 1378.98 1244.52 1378.47 1242.64 1377.96 1240.75 1377.54 1239.51 1377.21 1238.93 1376.89 1238.35 1376.53 1237.94 1376.16 1237.72 1375.78 1237.49 1375.31 1237.38 1374.74 1237.38 1374.11 1237.38 1373.55 1237.52 1373.04 1237.81 1372.53 1238.09 1371.97 1238.58 1371.37 1239.29 1370.78 1239.99 1369.98 1241.09 1368.99 1242.59L1366.07 1240.66C1367.96 1237.81 1369.77 1235.69 1371.51 1234.28 1373.25 1232.87 1375.3 1232.17 1377.66 1232.17Z" fill-rule="evenodd"/><text fill="#000000" fill-opacity="0" font-family="Arial,Arial_MSFontService,sans-serif" font-size="44.4277" x="1361.27" y="1271.04">洧논</text><path d="M1425.39 1249.92 1427.75 1249.92 1421.99 1275.37 1422.9 1275.37C1423.73 1275.37 1424.63 1275.2 1425.59 1274.85 1426.55 1274.5 1427.5 1274.05 1428.45 1273.49 1429.4 1272.94 1430.31 1272.31 1431.18 1271.61 1432.05 1270.91 1432.82 1270.21 1433.49 1269.5 1434.15 1268.79 1434.68 1268.12 1435.07 1267.49 1435.47 1266.86 1435.66 1266.32 1435.66 1265.89 1435.66 1265.36 1435.49 1264.94 1435.14 1264.61 1434.79 1264.28 1434.16 1264.07 1433.24 1263.96L1433.63 1261.86 1445.41 1261.86 1446.23 1263.89C1444.86 1265.07 1443.54 1266.16 1442.27 1267.16 1441.01 1268.17 1439.77 1269.13 1438.56 1270.06 1437.35 1270.98 1436.14 1271.9 1434.93 1272.79 1433.72 1273.68 1432.48 1274.61 1431.21 1275.57 1431.74 1277.23 1432.27 1278.91 1432.82 1280.62 1433.36 1282.34 1433.91 1284.03 1434.45 1285.71 1434.71 1286.61 1434.96 1287.37 1435.19 1288.02 1435.42 1288.66 1435.66 1289.19 1435.92 1289.59 1436.19 1289.99 1436.47 1290.29 1436.77 1290.49 1437.08 1290.68 1437.45 1290.78 1437.89 1290.78 1438.19 1290.78 1438.51 1290.73 1438.84 1290.62 1439.16 1290.51 1439.53 1290.31 1439.93 1290.03 1440.34 1289.75 1440.79 1289.36 1441.31 1288.87 1441.82 1288.38 1442.4 1287.76 1443.06 1287.02L1445.28 1289.15C1444.26 1290.19 1443.3 1291.1 1442.42 1291.86 1441.53 1292.63 1440.69 1293.25 1439.9 1293.74 1439.1 1294.23 1438.33 1294.59 1437.59 1294.82 1436.85 1295.05 1436.1 1295.17 1435.34 1295.17 1433.96 1295.17 1432.85 1294.82 1432.01 1294.14 1431.17 1293.45 1430.46 1292.47 1429.87 1291.19 1429.28 1289.92 1428.74 1288.37 1428.25 1286.56 1427.76 1284.75 1427.19 1282.73 1426.53 1280.51 1426.38 1279.99 1426.23 1279.57 1426.09 1279.25 1425.95 1278.93 1425.77 1278.69 1425.55 1278.53 1425.34 1278.37 1425.06 1278.26 1424.74 1278.22 1424.41 1278.18 1423.99 1278.15 1423.49 1278.15L1421.4 1278.15 1417.8 1294.58 1411.52 1294.58 1419.44 1259.44C1419.7 1258.29 1419.88 1257.38 1419.99 1256.71 1420.1 1256.05 1420.16 1255.45 1420.16 1254.93 1420.16 1254.51 1420.08 1254.15 1419.94 1253.85 1419.8 1253.54 1419.57 1253.3 1419.24 1253.11 1418.91 1252.93 1418.48 1252.79 1417.93 1252.7 1417.39 1252.62 1416.71 1252.56 1415.9 1252.54L1416.39 1250.31Z" fill-rule="evenodd"/><text fill="#000000" fill-opacity="0" font-family="Arial,Arial_MSFontService,sans-serif" font-size="45.2446" x="1411.52" y="1289.51">洧녲</text><path d="M1457.1 1210.97C1465.84 1213.27 1472.56 1218.25 1477.24 1225.9 1481.93 1233.55 1484.27 1242.79 1484.27 1253.6 1484.27 1264.44 1481.94 1273.67 1477.27 1281.29 1472.59 1288.91 1465.87 1293.88 1457.1 1296.18L1456.02 1292.72C1462.94 1290.42 1468.08 1285.87 1471.45 1279.07 1474.82 1272.27 1476.5 1263.63 1476.5 1253.15 1476.5 1243.02 1474.82 1234.62 1471.47 1227.92 1468.12 1221.23 1462.92 1216.73 1455.88 1214.42Z" fill-rule="evenodd"/><text fill="#000000" fill-opacity="0" font-family="Arial,Arial_MSFontService,sans-serif" font-size="85.2168" x="1455.88" y="1285.53">)</text><path d="M2663.32 569.933C2666.83 569.933 2669.85 570.219 2672.4 570.792L2670.3 579.923 2665.57 579.923C2665.07 577.882 2664.42 576.414 2663.61 575.518 2662.81 574.623 2661.62 574.176 2660.04 574.176 2658 574.176 2656.27 574.74 2654.86 575.868 2653.44 576.996 2652.24 578.67 2651.23 580.89 2650.23 583.11 2649.3 586.1 2648.44 589.859L2647.1 595.714 2660.9 595.714 2659.72 601.139 2645.86 601.139 2635.87 647.975C2634.22 655.745 2631.7 661.537 2628.3 665.35 2624.9 669.164 2620.62 671.07 2615.46 671.07 2613.96 671.07 2612.78 670.981 2611.92 670.802L2612.83 666.075C2613.19 666.183 2614.03 666.236 2615.35 666.236 2616.97 666.236 2618.34 665.824 2619.49 665.001 2620.64 664.177 2621.7 662.745 2622.69 660.704 2623.67 658.663 2624.57 655.834 2625.4 652.218L2636.95 601.139 2627.87 601.139 2628.67 597.433C2631.07 597.289 2632.8 597.092 2633.86 596.842 2634.91 596.591 2635.74 596.215 2636.33 595.714 2636.92 595.213 2637.42 594.559 2637.83 593.753 2638.24 592.948 2638.77 591.471 2639.42 589.322 2641.31 582.877 2644.24 578.034 2648.2 574.793 2652.16 571.553 2657.2 569.933 2663.32 569.933Z" fill-rule="evenodd"/><text fill="#000000" fill-opacity="0" font-family="Arial,Arial_MSFontService,sans-serif" font-size="101.138" x="2611.92" y="658.428">洧녭</text><path d="M2718.85 569.449 2720.3 573.585C2711.92 576.342 2705.71 581.722 2701.69 589.725 2697.66 597.728 2695.64 607.781 2695.64 619.884 2695.64 632.416 2697.66 642.747 2701.69 650.875 2705.71 659.003 2711.86 664.446 2720.14 667.203L2718.85 671.339C2708.35 668.582 2700.32 662.647 2694.73 653.534 2689.14 644.421 2686.35 633.383 2686.35 620.421 2686.35 607.494 2689.15 596.457 2694.76 587.308 2700.36 578.159 2708.39 572.206 2718.85 569.449Z" fill-rule="evenodd"/><text fill="#000000" fill-opacity="0" font-family="Arial,Arial_MSFontService,sans-serif" font-size="101.89" x="2686.35" y="658.603">(</text><path d="M2743.73 594.801C2744.84 594.801 2745.82 594.926 2746.66 595.177 2747.5 595.427 2748.24 595.812 2748.89 596.331 2749.53 596.851 2750.11 597.522 2750.61 598.346 2751.11 599.169 2751.59 600.288 2752.06 601.703 2752.52 603.117 2752.96 604.872 2753.37 606.966 2753.79 609.061 2754.15 611.236 2754.47 613.492L2755.01 613.492C2758.45 608.658 2761.05 605.122 2762.83 602.884 2764.6 600.646 2766.09 598.981 2767.31 597.889 2768.53 596.797 2769.7 596.027 2770.83 595.58 2771.96 595.132 2773.45 594.908 2775.31 594.908 2777 594.908 2778.38 595.123 2779.45 595.553L2777.3 605.274 2773.54 605.274C2773.33 603.77 2772.7 603.018 2771.66 603.018 2771.34 603.018 2771 603.072 2770.64 603.18 2770.28 603.287 2769.84 603.52 2769.33 603.878 2768.81 604.236 2768.05 604.934 2767.04 605.973 2766.04 607.011 2764.91 608.282 2763.66 609.786 2762.41 611.29 2761.12 612.865 2759.79 614.513L2756.14 619.078C2756.78 622.516 2757.39 625.488 2757.97 627.994 2758.54 630.501 2759.05 632.586 2759.5 634.251 2759.94 635.916 2760.34 637.232 2760.68 638.199 2761.02 639.166 2761.39 639.891 2761.78 640.374 2762.17 640.858 2762.58 641.198 2762.99 641.395 2763.4 641.592 2763.87 641.69 2764.41 641.69 2765.38 641.69 2766.32 641.314 2767.23 640.562 2768.14 639.81 2769.46 638.11 2771.18 635.46L2774.67 637.769C2772.16 641.493 2769.9 644.116 2767.88 645.638 2765.85 647.16 2763.44 647.921 2760.65 647.921 2759.11 647.921 2757.8 647.643 2756.73 647.088 2755.66 646.533 2754.73 645.647 2753.94 644.43 2753.15 643.212 2752.45 641.314 2751.84 638.736 2750.73 634.153 2750.05 630.644 2749.8 628.209L2749.26 628.209C2745.47 633.544 2742.65 637.376 2740.8 639.703 2738.96 642.031 2737.44 643.749 2736.24 644.859 2735.04 645.969 2733.88 646.748 2732.75 647.196 2731.62 647.643 2730.13 647.867 2728.26 647.867 2726.58 647.867 2725.2 647.652 2724.13 647.223L2726.28 637.501 2730.04 637.501C2730.25 639.005 2730.88 639.757 2731.92 639.757 2732.42 639.757 2732.95 639.622 2733.5 639.354 2734.06 639.085 2734.85 638.441 2735.89 637.42 2736.93 636.4 2738.36 634.797 2740.19 632.613 2742.01 630.429 2744.66 627.153 2748.14 622.784 2747.6 619.955 2747.04 617.234 2746.47 614.62 2745.9 612.006 2745.31 609.571 2744.7 607.315 2744.09 605.06 2743.59 603.582 2743.2 602.884 2742.8 602.186 2742.38 601.703 2741.93 601.434 2741.49 601.165 2740.92 601.031 2740.24 601.031 2739.49 601.031 2738.81 601.201 2738.2 601.541 2737.59 601.882 2736.93 602.472 2736.21 603.314 2735.5 604.155 2734.55 605.471 2733.37 607.262L2729.87 604.952C2732.13 601.55 2734.3 599.008 2736.37 597.325 2738.45 595.642 2740.9 594.801 2743.73 594.801Z" fill-rule="evenodd"/><text fill="#000000" fill-opacity="0" font-family="Arial,Arial_MSFontService,sans-serif" font-size="53.1201" x="2724.13" y="641.281">洧논</text><path d="M2787.77 569.449C2798.22 572.206 2806.25 578.159 2811.86 587.308 2817.46 596.457 2820.26 607.494 2820.26 620.421 2820.26 633.383 2817.47 644.421 2811.88 653.534 2806.3 662.647 2798.26 668.582 2787.77 671.339L2786.48 667.203C2794.75 664.446 2800.9 659.003 2804.93 650.875 2808.96 642.747 2810.97 632.416 2810.97 619.884 2810.97 607.781 2808.97 597.728 2804.96 589.725 2800.94 581.722 2794.73 576.342 2786.32 573.585Z" fill-rule="evenodd"/><text fill="#000000" fill-opacity="0" font-family="Arial,Arial_MSFontService,sans-serif" font-size="101.89" x="2786.32" y="658.603">)</text></g></svg>
