<svg width="1951" height="1740" xmlns="http://www.w3.org/2000/svg" xmlns:xlink="http://www.w3.org/1999/xlink" overflow="hidden"><defs><clipPath id="clip0"><rect x="1182" y="347" width="1951" height="1740"/></clipPath></defs><g clip-path="url(#clip0)" transform="translate(-1182 -347)"><path d="M2.29167-4.98152e-07 2.29202 1618.97-2.29131 1618.97-2.29167 4.98152e-07ZM22.917 1614.39 0.000360892 1660.22-22.9163 1614.39Z" transform="matrix(1 0 0 -1 1541.5 2053.72)"/><path d="M1289.5 1766.21 3019.65 1766.21 3019.65 1770.79 1289.5 1770.79ZM3015.07 1745.58 3060.91 1768.5 3015.07 1791.42Z"/><path d="M1687.5 1919.5C2178.91 1693.68 2776.68 1162.39 2909.5 604.5" stroke="#000000" stroke-width="4.58333" stroke-linejoin="round" stroke-miterlimit="10" fill="none" fill-rule="evenodd"/><path d="M1411.17 436.286C1412.64 436.286 1413.89 436.482 1414.93 436.876 1415.64 437.163 1416.36 437.637 1417.08 438.3 1417.79 438.962 1418.43 439.884 1418.98 441.066 1419.54 442.247 1420.02 443.572 1420.43 445.04 1420.84 446.509 1421.3 448.621 1421.8 451.378 1422.66 455.997 1423.49 460.858 1424.3 465.961 1425.11 471.063 1425.8 475.799 1426.37 480.167 1429.84 475.154 1432.79 470.249 1435.2 465.451 1437.62 460.652 1439.36 456.481 1440.41 452.936 1441.47 449.391 1442 446.509 1442 444.288 1442 442.606 1441.64 441.46 1440.92 440.851 1440.21 440.242 1438.99 439.884 1437.27 439.777L1437.81 437.145 1451.93 437.145 1453.38 439.83C1450.66 447.278 1446.98 455.245 1442.32 463.732 1437.74 472.039 1432.49 480.311 1426.58 488.546 1420.93 496.388 1416.22 502.064 1412.46 505.573 1409.84 507.972 1407.32 509.69 1404.88 510.729 1402.95 511.517 1400.89 511.911 1398.71 511.911 1397.96 511.911 1397.09 511.848 1396.1 511.723 1395.12 511.597 1394.36 511.427 1393.82 511.212L1396.13 500.792 1400.37 500.792C1400.37 503.084 1401.16 504.23 1402.74 504.23 1404.81 504.23 1407.23 502.932 1409.99 500.336 1412.74 497.74 1415.98 493.828 1419.71 488.6 1418.67 482.334 1417.26 474.778 1415.46 465.934 1413.57 456.481 1412.31 450.626 1411.71 448.37 1410.95 445.649 1410.17 443.912 1409.34 443.161 1408.84 442.695 1408.21 442.462 1407.46 442.462 1406.32 442.462 1405.24 442.928 1404.24 443.859 1403.24 444.79 1402 446.401 1400.53 448.693L1397.04 446.383C1399.51 442.695 1401.82 440.09 1403.97 438.568 1406.12 437.046 1408.52 436.286 1411.17 436.286Z" fill-rule="evenodd"/><text fill="#000000" fill-opacity="0" font-family="Arial,Arial_MSFontService,sans-serif" font-size="75.625" x="1393.82" y="502.457">𝑦</text><path d="M3043.01 1836.41C3044.12 1836.41 3045.1 1836.54 3045.94 1836.79 3046.78 1837.04 3047.52 1837.42 3048.17 1837.94 3048.81 1838.46 3049.39 1839.13 3049.89 1839.96 3050.39 1840.78 3050.87 1841.9 3051.34 1843.32 3051.8 1844.73 3052.24 1846.48 3052.65 1848.58 3053.07 1850.67 3053.43 1852.85 3053.76 1855.1L3054.29 1855.1C3057.73 1850.27 3060.33 1846.73 3062.11 1844.5 3063.88 1842.26 3065.37 1840.59 3066.59 1839.5 3067.81 1838.41 3068.98 1837.64 3070.11 1837.19 3071.24 1836.74 3072.73 1836.52 3074.59 1836.52 3076.28 1836.52 3077.66 1836.74 3078.73 1837.17L3076.58 1846.89 3072.82 1846.89C3072.61 1845.38 3071.98 1844.63 3070.94 1844.63 3070.62 1844.63 3070.28 1844.68 3069.92 1844.79 3069.56 1844.9 3069.13 1845.13 3068.61 1845.49 3068.09 1845.85 3067.33 1846.55 3066.32 1847.59 3065.32 1848.62 3064.19 1849.89 3062.94 1851.4 3061.69 1852.9 3060.4 1854.48 3059.07 1856.13L3055.42 1860.69C3056.06 1864.13 3056.67 1867.1 3057.25 1869.61 3057.82 1872.11 3058.33 1874.2 3058.78 1875.86 3059.22 1877.53 3059.62 1878.84 3059.96 1879.81 3060.3 1880.78 3060.67 1881.5 3061.06 1881.99 3061.45 1882.47 3061.86 1882.81 3062.27 1883.01 3062.68 1883.2 3063.15 1883.3 3063.69 1883.3 3064.66 1883.3 3065.6 1882.93 3066.51 1882.18 3067.42 1881.42 3068.74 1879.72 3070.46 1877.07L3073.95 1879.38C3071.44 1883.11 3069.18 1885.73 3067.16 1887.25 3065.13 1888.77 3062.72 1889.53 3059.93 1889.53 3058.39 1889.53 3057.09 1889.26 3056.01 1888.7 3054.94 1888.15 3054.01 1887.26 3053.22 1886.04 3052.43 1884.82 3051.73 1882.93 3051.12 1880.35 3050.01 1875.77 3049.33 1872.26 3049.08 1869.82L3048.55 1869.82C3044.75 1875.16 3041.93 1878.99 3040.09 1881.32 3038.24 1883.64 3036.72 1885.36 3035.52 1886.47 3034.32 1887.58 3033.16 1888.36 3032.03 1888.81 3030.9 1889.26 3029.41 1889.48 3027.54 1889.48 3025.86 1889.48 3024.48 1889.26 3023.41 1888.84L3025.56 1879.11 3029.32 1879.11C3029.53 1880.62 3030.16 1881.37 3031.2 1881.37 3031.7 1881.37 3032.23 1881.24 3032.78 1880.97 3033.34 1880.7 3034.13 1880.05 3035.17 1879.03 3036.21 1878.01 3037.64 1876.41 3039.47 1874.23 3041.29 1872.04 3043.94 1868.77 3047.42 1864.4 3046.88 1861.57 3046.33 1858.85 3045.75 1856.23 3045.18 1853.62 3044.59 1851.18 3043.98 1848.93 3043.37 1846.67 3042.87 1845.2 3042.48 1844.5 3042.08 1843.8 3041.66 1843.32 3041.21 1843.05 3040.77 1842.78 3040.2 1842.64 3039.52 1842.64 3038.77 1842.64 3038.09 1842.81 3037.48 1843.15 3036.87 1843.49 3036.21 1844.09 3035.49 1844.93 3034.78 1845.77 3033.83 1847.08 3032.65 1848.87L3029.16 1846.56C3031.41 1843.16 3033.58 1840.62 3035.65 1838.94 3037.73 1837.25 3040.18 1836.41 3043.01 1836.41Z" fill-rule="evenodd"/><text fill="#000000" fill-opacity="0" font-family="Arial,Arial_MSFontService,sans-serif" font-size="53.1201" x="3023.41" y="1882.89">𝑥</text><path d="M1471.28 1817.98C1467.41 1817.98 1463.8 1819.36 1460.45 1822.12 1457.11 1824.88 1454.17 1828.81 1451.64 1833.94 1449.12 1839.06 1447.16 1844.68 1445.76 1850.8 1444.37 1856.92 1443.67 1862.33 1443.67 1867.02 1443.67 1878.09 1447.7 1883.62 1455.75 1883.62 1460.66 1883.62 1465.16 1881.36 1469.26 1876.85 1473.36 1872.34 1476.72 1866.01 1479.33 1857.86 1481.95 1849.72 1483.25 1841.9 1483.25 1834.42 1483.25 1823.46 1479.26 1817.98 1471.28 1817.98ZM1471.87 1813.26C1478.78 1813.26 1484.1 1815.26 1487.85 1819.27 1491.59 1823.28 1493.46 1829.08 1493.46 1836.67 1493.46 1842.22 1492.51 1848.46 1490.61 1855.39 1488.71 1862.32 1485.97 1868.32 1482.37 1873.39 1478.77 1878.45 1474.66 1882.21 1470.04 1884.67 1465.42 1887.12 1460.59 1888.34 1455.54 1888.34 1448.34 1888.34 1442.88 1886.34 1439.16 1882.33 1435.43 1878.32 1433.57 1872.59 1433.57 1865.14 1433.57 1859.77 1434.48 1853.7 1436.28 1846.93 1438.09 1840.17 1440.71 1834.2 1444.13 1829.02 1447.54 1823.85 1451.63 1819.93 1456.37 1817.26 1461.12 1814.59 1466.28 1813.26 1471.87 1813.26Z" fill-rule="evenodd"/><text fill="#000000" fill-opacity="0" font-family="Arial,Arial_MSFontService,sans-serif" font-size="75.0879" x="1433.57" y="1878.96">𝑂</text><path d="M2743.92 1826.78C2746.18 1826.78 2747.96 1827.52 2749.27 1829.01 2750.57 1830.5 2751.23 1832.44 2751.23 1834.84 2751.23 1836.63 2750.89 1838.47 2750.21 1840.37L2750.91 1840.64C2754.41 1835.88 2757.79 1832.38 2761.03 1830.16 2764.27 1827.94 2767.56 1826.83 2770.89 1826.83 2773.5 1826.83 2775.68 1827.03 2777.44 1827.42L2774.86 1839.46 2769.33 1839.46C2769.11 1837.95 2768.81 1836.79 2768.42 1835.96 2768.02 1835.14 2767.56 1834.57 2767.02 1834.25 2766.48 1833.92 2765.8 1833.76 2764.98 1833.76 2763.69 1833.76 2762.28 1834.32 2760.76 1835.43 2759.24 1836.54 2757.53 1838.27 2755.63 1840.64 2753.73 1843 2752.22 1845.27 2751.09 1847.46 2749.97 1849.64 2749.03 1852.42 2748.27 1855.78L2743.17 1879.04 2733.88 1879.04 2741.67 1844.99C2742.17 1842.84 2742.49 1841.17 2742.63 1839.99 2742.78 1838.81 2742.85 1837.83 2742.85 1837.04 2742.85 1835.61 2742.62 1834.57 2742.15 1833.92 2741.69 1833.28 2740.95 1832.96 2739.95 1832.96 2738.84 1832.96 2737.67 1833.41 2736.43 1834.33 2735.2 1835.24 2733.5 1836.9 2731.35 1839.3L2728.29 1836.29C2731.59 1832.85 2734.34 1830.41 2736.56 1828.96 2738.78 1827.51 2741.24 1826.78 2743.92 1826.78Z" fill-rule="evenodd"/><text fill="#000000" fill-opacity="0" font-family="Arial,Arial_MSFontService,sans-serif" font-size="52.2607" x="2728.29" y="1872.51">𝑟</text><path d="M1936.54 1682.05C1932.85 1682.05 1929.54 1683.54 1926.6 1686.51 1923.67 1689.48 1921.38 1693.46 1919.73 1698.46 1918.08 1703.45 1917.26 1708.44 1917.26 1713.42 1917.26 1717.14 1917.77 1719.93 1918.79 1721.77 1919.81 1723.61 1921.52 1724.54 1923.92 1724.54 1926.28 1724.54 1928.6 1723.52 1930.87 1721.47 1933.15 1719.43 1935.49 1716.52 1937.91 1712.75 1940.33 1708.97 1942.04 1704.61 1943.04 1699.67L1943.52 1697.36C1943.84 1695.89 1944.06 1694.62 1944.17 1693.55 1944.27 1692.47 1944.33 1691.31 1944.33 1690.05 1944.33 1687.3 1943.74 1685.27 1942.56 1683.98 1941.37 1682.7 1939.37 1682.05 1936.54 1682.05ZM1935.47 1677.81C1937.79 1677.81 1939.97 1678.07 1941.99 1678.59 1944.01 1679.11 1946.1 1680.03 1948.25 1681.35L1953.19 1677.81 1956.63 1678.67 1948.73 1712.72C1947.94 1716.12 1947.55 1718.77 1947.55 1720.67 1947.55 1722.1 1947.78 1723.14 1948.25 1723.78 1948.71 1724.43 1949.45 1724.75 1950.45 1724.75 1951.53 1724.75 1952.67 1724.31 1953.89 1723.44 1955.11 1722.56 1956.82 1720.88 1959.04 1718.41L1962.11 1721.42C1958.88 1724.86 1956.14 1727.3 1953.86 1728.75 1951.59 1730.2 1949.13 1730.93 1946.48 1730.93 1944.26 1730.93 1942.48 1730.19 1941.16 1728.73 1939.83 1727.26 1939.17 1725.31 1939.17 1722.87 1939.17 1720.9 1939.58 1718.81 1940.41 1716.59L1939.71 1716.37C1936.27 1721.39 1933.01 1725.06 1929.93 1727.38 1926.85 1729.71 1923.6 1730.87 1920.16 1730.87 1916.22 1730.87 1913.17 1729.39 1911 1726.42 1908.83 1723.44 1907.75 1719.27 1907.75 1713.9 1907.75 1707.74 1908.96 1701.83 1911.38 1696.15 1913.79 1690.47 1917.11 1686 1921.34 1682.72 1925.57 1679.45 1930.27 1677.81 1935.47 1677.81Z" fill-rule="evenodd"/><text fill="#000000" fill-opacity="0" font-family="Arial,Arial_MSFontService,sans-serif" font-size="53.1201" x="1907.75" y="1724.29">𝑎</text><path d="M1767.73 1664.69 1770.9 1664.69 1757.68 1724.15C1756.89 1727.69 1756.5 1730.34 1756.5 1732.1 1756.5 1733.53 1756.73 1734.57 1757.2 1735.21 1757.66 1735.86 1758.4 1736.18 1759.4 1736.18 1760.48 1736.18 1761.62 1735.74 1762.84 1734.86 1764.06 1733.99 1765.78 1732.31 1768 1729.84L1771.06 1732.85C1767.58 1736.5 1764.75 1739 1762.54 1740.34 1760.34 1741.68 1757.88 1742.36 1755.16 1742.36 1752.83 1742.36 1750.97 1741.51 1749.57 1739.8 1748.18 1738.1 1747.48 1735.93 1747.48 1733.28 1747.48 1730.88 1747.98 1727.41 1748.98 1722.86L1758.6 1679.84C1759.03 1677.94 1759.33 1676.43 1759.51 1675.3 1759.69 1674.17 1759.78 1673.12 1759.78 1672.16 1759.78 1671.08 1759.58 1670.27 1759.19 1669.71 1758.79 1669.16 1758.23 1668.75 1757.49 1668.5 1756.76 1668.25 1755.44 1668.07 1753.55 1667.97L1754.19 1665.17Z" fill-rule="evenodd"/><text fill="#000000" fill-opacity="0" font-family="Arial,Arial_MSFontService,sans-serif" font-size="77.666" x="1747.48" y="1732.65">𝑙</text><path d="M0 0 1262 8.99993" stroke="#000000" stroke-width="3.4375" stroke-linejoin="round" stroke-miterlimit="10" stroke-dasharray="13.75 10.3125" fill="none" fill-rule="evenodd" transform="matrix(-1 0 0 1 2802.5 883.5)"/><path d="M1356.56 852.247C1359.49 852.247 1362.02 852.486 1364.15 852.965L1362.4 860.602 1358.45 860.602C1358.03 858.895 1357.48 857.667 1356.81 856.918 1356.13 856.17 1355.14 855.795 1353.82 855.795 1352.11 855.795 1350.67 856.267 1349.48 857.21 1348.3 858.154 1347.29 859.554 1346.45 861.411 1345.61 863.267 1344.83 865.768 1344.12 868.913L1342.99 873.809 1354.54 873.809 1353.55 878.346 1341.96 878.346 1333.6 917.518C1332.23 924.017 1330.11 928.861 1327.27 932.05 1324.42 935.24 1320.85 936.834 1316.53 936.834 1315.28 936.834 1314.29 936.76 1313.57 936.61L1314.33 932.657C1314.63 932.747 1315.34 932.791 1316.44 932.791 1317.79 932.791 1318.94 932.447 1319.9 931.758 1320.86 931.069 1321.75 929.872 1322.58 928.164 1323.4 926.457 1324.16 924.092 1324.84 921.067L1334.5 878.346 1326.91 878.346 1327.58 875.247C1329.59 875.127 1331.04 874.962 1331.92 874.752 1332.8 874.543 1333.49 874.228 1333.99 873.809 1334.48 873.39 1334.9 872.843 1335.24 872.169 1335.59 871.496 1336.03 870.26 1336.57 868.463 1338.16 863.073 1340.6 859.022 1343.91 856.312 1347.22 853.602 1351.44 852.247 1356.56 852.247Z" fill-rule="evenodd"/><text fill="#000000" fill-opacity="0" font-family="Arial,Arial_MSFontService,sans-serif" font-size="84.5879" x="1313.57" y="926.261">𝑓</text><path d="M1402.6 851.842 1403.82 855.301C1396.81 857.607 1391.62 862.107 1388.25 868.8 1384.88 875.494 1383.2 883.901 1383.2 894.024 1383.2 904.506 1384.88 913.146 1388.25 919.944 1391.62 926.742 1396.76 931.294 1403.68 933.6L1402.6 937.059C1393.83 934.753 1387.11 929.789 1382.43 922.167 1377.76 914.546 1375.43 905.314 1375.43 894.473 1375.43 883.662 1377.77 874.43 1382.46 866.779 1387.14 859.127 1393.86 854.148 1402.6 851.842Z" fill-rule="evenodd"/><text fill="#000000" fill-opacity="0" font-family="Arial,Arial_MSFontService,sans-serif" font-size="85.2168" x="1375.43" y="926.407">(</text><path d="M1419.26 873.045C1421.15 873.045 1422.64 873.667 1423.73 874.91 1424.82 876.152 1425.37 877.777 1425.37 879.784 1425.37 881.281 1425.08 882.823 1424.51 884.411L1425.1 884.635C1428.03 880.652 1430.86 877.732 1433.57 875.875 1436.28 874.019 1439.02 873.09 1441.81 873.09 1444 873.09 1445.82 873.255 1447.29 873.584L1445.13 883.647 1440.51 883.647C1440.33 882.389 1440.07 881.416 1439.74 880.727 1439.41 880.038 1439.02 879.559 1438.57 879.289 1438.13 879.02 1437.56 878.885 1436.87 878.885 1435.79 878.885 1434.61 879.349 1433.34 880.278 1432.07 881.206 1430.64 882.659 1429.05 884.635 1427.46 886.612 1426.2 888.513 1425.26 890.34 1424.31 892.167 1423.53 894.488 1422.9 897.303L1418.63 916.754 1410.86 916.754 1417.37 888.274C1417.79 886.477 1418.06 885.084 1418.18 884.096 1418.3 883.108 1418.36 882.284 1418.36 881.625 1418.36 880.427 1418.17 879.559 1417.78 879.02 1417.39 878.481 1416.77 878.211 1415.93 878.211 1415.01 878.211 1414.03 878.593 1412.99 879.357 1411.96 880.121 1410.54 881.506 1408.75 883.512L1406.19 880.997C1408.94 878.122 1411.25 876.078 1413.1 874.865 1414.96 873.652 1417.01 873.045 1419.26 873.045Z" fill-rule="evenodd"/><text fill="#000000" fill-opacity="0" font-family="Arial,Arial_MSFontService,sans-serif" font-size="43.709" x="1406.19" y="911.291">𝑟</text><path d="M1453.63 851.842C1462.38 854.148 1469.09 859.127 1473.78 866.779 1478.47 874.43 1480.81 883.662 1480.81 894.473 1480.81 905.314 1478.47 914.546 1473.8 922.167 1469.13 929.789 1462.41 934.753 1453.63 937.059L1452.55 933.6C1459.47 931.294 1464.61 926.742 1467.98 919.944 1471.35 913.146 1473.04 904.506 1473.04 894.024 1473.04 883.901 1471.36 875.494 1468.01 868.8 1464.65 862.107 1459.46 857.607 1452.42 855.301Z" fill-rule="evenodd"/><text fill="#000000" fill-opacity="0" font-family="Arial,Arial_MSFontService,sans-serif" font-size="85.2168" x="1452.42" y="926.407">)</text><path d="M0 0 0.000360892 940" stroke="#000000" stroke-width="3.4375" stroke-linejoin="round" stroke-miterlimit="10" stroke-dasharray="13.75 10.3125" fill="none" fill-rule="evenodd" transform="matrix(1 0 0 -1 1810.5 1991.5)"/><path d="M0 0 0.000360892 932" stroke="#000000" stroke-width="3.4375" stroke-linejoin="round" stroke-miterlimit="10" stroke-dasharray="13.75 10.3125" fill="none" fill-rule="evenodd" transform="matrix(1 0 0 -1 2309.5 2001.5)"/><path d="M0 0 0.000360892 1180" stroke="#000000" stroke-width="3.4375" stroke-linejoin="round" stroke-miterlimit="10" stroke-dasharray="13.75 10.3125" fill="none" fill-rule="evenodd" transform="matrix(1 0 0 -1 2809.5 2053.5)"/><path d="M2356.97 1823.58C2359.22 1823.58 2361.01 1824.32 2362.31 1825.81 2363.62 1827.29 2364.27 1829.23 2364.27 1831.63 2364.27 1833.6 2363.86 1835.7 2363.04 1837.92L2363.68 1838.13C2366.98 1833.23 2370.25 1829.58 2373.51 1827.2 2376.77 1824.82 2380.06 1823.63 2383.39 1823.63 2386.83 1823.63 2389.45 1824.61 2391.24 1826.56 2393.03 1828.51 2393.92 1831.33 2393.92 1835.02L2393.92 1835.77C2393.92 1836.02 2393.9 1836.29 2393.87 1836.58 2396.95 1832.21 2400.02 1828.96 2403.08 1826.83 2406.14 1824.7 2409.32 1823.63 2412.61 1823.63 2415.91 1823.63 2418.45 1824.58 2420.24 1826.48 2422.03 1828.38 2422.93 1831.04 2422.93 1834.48 2422.93 1836.74 2422.41 1839.94 2421.37 1844.09L2417.88 1858.17C2416.91 1862.07 2416.43 1864.83 2416.43 1866.44 2416.43 1867.87 2416.66 1868.91 2417.12 1869.55 2417.59 1870.2 2418.32 1870.52 2419.33 1870.52 2420.4 1870.52 2421.55 1870.08 2422.76 1869.2 2423.98 1868.33 2425.7 1866.65 2427.92 1864.18L2430.98 1867.19C2427.9 1870.45 2425.22 1872.85 2422.93 1874.39 2420.63 1875.93 2418.02 1876.7 2415.08 1876.7 2412.76 1876.7 2410.89 1875.86 2409.5 1874.2 2408.1 1872.53 2407.4 1870.41 2407.4 1867.83 2407.4 1865.51 2407.99 1862.09 2409.18 1857.58L2411.54 1848.28C2412.4 1844.92 2412.96 1842.43 2413.23 1840.82 2413.5 1839.21 2413.63 1837.9 2413.63 1836.9 2413.63 1834.43 2413.22 1832.65 2412.4 1831.55 2411.57 1830.46 2410.23 1829.92 2408.37 1829.92 2406.87 1829.92 2405.25 1830.48 2403.54 1831.61 2401.82 1832.73 2400.01 1834.49 2398.11 1836.87 2396.21 1839.25 2394.66 1841.6 2393.47 1843.91 2392.27 1846.22 2391.31 1849.04 2390.59 1852.37L2385.7 1875.84 2376.41 1875.84 2382.59 1848.55C2383.34 1845.22 2383.85 1842.76 2384.12 1841.17 2384.39 1839.57 2384.52 1838.2 2384.52 1837.06 2384.52 1834.48 2384.07 1832.65 2383.15 1831.55 2382.24 1830.46 2380.82 1829.92 2378.88 1829.92 2377.52 1829.92 2375.97 1830.48 2374.24 1831.61 2372.5 1832.73 2370.65 1834.54 2368.68 1837.03 2366.71 1839.52 2365.17 1841.91 2364.06 1844.2 2362.95 1846.49 2362.02 1849.29 2361.27 1852.58L2356.16 1875.84 2346.87 1875.84 2354.71 1841.79C2355.5 1838.35 2355.89 1835.7 2355.89 1833.84 2355.89 1832.4 2355.66 1831.37 2355.2 1830.72 2354.73 1830.08 2354 1829.75 2352.99 1829.75 2351.88 1829.75 2350.71 1830.21 2349.48 1831.12 2348.24 1832.04 2346.55 1833.69 2344.4 1836.09L2341.34 1833.08C2344.49 1829.79 2347.2 1827.38 2349.48 1825.86 2351.75 1824.34 2354.25 1823.58 2356.97 1823.58Z" fill-rule="evenodd"/><text fill="#000000" fill-opacity="0" font-family="Arial,Arial_MSFontService,sans-serif" font-size="53.1201" x="2341.34" y="1870.06">𝑚</text><path d="M1271.83 1983.84C1274.77 1983.84 1277.3 1984.08 1279.42 1984.56L1277.67 1992.19 1273.72 1992.19C1273.3 1990.49 1272.75 1989.26 1272.08 1988.51 1271.41 1987.76 1270.41 1987.39 1269.09 1987.39 1267.39 1987.39 1265.94 1987.86 1264.76 1988.8 1263.57 1989.75 1262.56 1991.15 1261.73 1993 1260.89 1994.86 1260.11 1997.36 1259.39 2000.5L1258.27 2005.4 1269.81 2005.4 1268.82 2009.94 1257.23 2009.94 1248.88 2049.11C1247.5 2055.61 1245.39 2060.45 1242.54 2063.64 1239.7 2066.83 1236.12 2068.43 1231.81 2068.43 1230.55 2068.43 1229.56 2068.35 1228.84 2068.2L1229.61 2064.25C1229.91 2064.34 1230.61 2064.38 1231.72 2064.38 1233.07 2064.38 1234.22 2064.04 1235.18 2063.35 1236.14 2062.66 1237.03 2061.46 1237.85 2059.76 1238.67 2058.05 1239.43 2055.68 1240.12 2052.66L1249.78 2009.94 1242.18 2009.94 1242.86 2006.84C1244.86 2006.72 1246.31 2006.55 1247.19 2006.34 1248.08 2006.13 1248.77 2005.82 1249.26 2005.4 1249.75 2004.98 1250.17 2004.43 1250.52 2003.76 1250.86 2003.09 1251.3 2001.85 1251.84 2000.05 1253.43 1994.66 1255.88 1990.61 1259.19 1987.9 1262.5 1985.19 1266.71 1983.84 1271.83 1983.84Z" fill-rule="evenodd"/><text fill="#000000" fill-opacity="0" font-family="Arial,Arial_MSFontService,sans-serif" font-size="84.5879" x="1228.84" y="2057.85">𝑓</text><path d="M1317.88 1983.43 1319.09 1986.89C1312.08 1989.2 1306.89 1993.7 1303.53 2000.39 1300.16 2007.08 1298.47 2015.49 1298.47 2025.62 1298.47 2036.1 1300.16 2044.74 1303.53 2051.54 1306.89 2058.33 1312.04 2062.89 1318.96 2065.19L1317.88 2068.65C1309.1 2066.34 1302.38 2061.38 1297.71 2053.76 1293.04 2046.14 1290.7 2036.91 1290.7 2026.06 1290.7 2015.25 1293.04 2006.02 1297.73 1998.37 1302.42 1990.72 1309.13 1985.74 1317.88 1983.43Z" fill-rule="evenodd"/><text fill="#000000" fill-opacity="0" font-family="Arial,Arial_MSFontService,sans-serif" font-size="85.2168" x="1290.7" y="2058">(</text><path d="M1343.56 1984.11 1346.21 1984.11 1335.16 2033.84C1334.5 2036.8 1334.17 2039.02 1334.17 2040.48 1334.17 2041.68 1334.37 2042.55 1334.76 2043.09 1335.15 2043.63 1335.76 2043.9 1336.6 2043.9 1337.5 2043.9 1338.46 2043.53 1339.47 2042.8 1340.49 2042.06 1341.93 2040.66 1343.79 2038.6L1346.35 2041.11C1343.44 2044.17 1341.07 2046.26 1339.23 2047.38 1337.39 2048.5 1335.33 2049.06 1333.05 2049.06 1331.1 2049.06 1329.55 2048.35 1328.38 2046.93 1327.21 2045.51 1326.63 2043.69 1326.63 2041.47 1326.63 2039.47 1327.05 2036.56 1327.88 2032.76L1335.93 1996.78C1336.28 1995.19 1336.54 1993.92 1336.69 1992.98 1336.84 1992.04 1336.91 1991.16 1336.91 1990.35 1336.91 1989.45 1336.75 1988.77 1336.42 1988.31 1336.09 1987.84 1335.62 1987.51 1335 1987.3 1334.39 1987.09 1333.29 1986.94 1331.7 1986.85L1332.24 1984.51Z" fill-rule="evenodd"/><text fill="#000000" fill-opacity="0" font-family="Arial,Arial_MSFontService,sans-serif" font-size="64.957" x="1326.63" y="2040.94">𝑙</text><path d="M1355.48 1983.43C1364.22 1985.74 1370.94 1990.72 1375.62 1998.37 1380.31 2006.02 1382.65 2015.25 1382.65 2026.06 1382.65 2036.91 1380.32 2046.14 1375.65 2053.76 1370.97 2061.38 1364.25 2066.34 1355.48 2068.65L1354.4 2065.19C1361.32 2062.89 1366.46 2058.33 1369.83 2051.54 1373.2 2044.74 1374.88 2036.1 1374.88 2025.62 1374.88 2015.49 1373.21 2007.08 1369.85 2000.39 1366.5 1993.7 1361.3 1989.2 1354.26 1986.89Z" fill-rule="evenodd"/><text fill="#000000" fill-opacity="0" font-family="Arial,Arial_MSFontService,sans-serif" font-size="85.2168" x="1354.26" y="2058">)</text><path d="M1329.69 1475.42C1332.62 1475.42 1335.15 1475.66 1337.28 1476.14L1335.53 1483.78 1331.57 1483.78C1331.16 1482.07 1330.61 1480.84 1329.94 1480.09 1329.26 1479.34 1328.27 1478.97 1326.95 1478.97 1325.24 1478.97 1323.8 1479.44 1322.61 1480.39 1321.43 1481.33 1320.42 1482.73 1319.58 1484.59 1318.74 1486.44 1317.96 1488.94 1317.24 1492.09L1316.12 1496.98 1327.67 1496.98 1326.68 1501.52 1315.09 1501.52 1306.73 1540.69C1305.36 1547.19 1303.24 1552.04 1300.4 1555.23 1297.55 1558.41 1293.98 1560.01 1289.66 1560.01 1288.4 1560.01 1287.42 1559.93 1286.7 1559.79L1287.46 1555.83C1287.76 1555.92 1288.46 1555.97 1289.57 1555.97 1290.92 1555.97 1292.07 1555.62 1293.03 1554.93 1293.99 1554.24 1294.88 1553.05 1295.7 1551.34 1296.53 1549.63 1297.28 1547.27 1297.97 1544.24L1307.63 1501.52 1300.04 1501.52 1300.71 1498.42C1302.72 1498.3 1304.17 1498.14 1305.05 1497.93 1305.93 1497.72 1306.62 1497.4 1307.11 1496.98 1307.61 1496.56 1308.03 1496.02 1308.37 1495.34 1308.72 1494.67 1309.16 1493.44 1309.7 1491.64 1311.29 1486.25 1313.73 1482.2 1317.04 1479.49 1320.35 1476.78 1324.57 1475.42 1329.69 1475.42Z" fill-rule="evenodd"/><text fill="#000000" fill-opacity="0" font-family="Arial,Arial_MSFontService,sans-serif" font-size="84.5879" x="1286.7" y="1549.44">𝑓</text><path d="M1375.73 1475.02 1376.95 1478.48C1369.94 1480.78 1364.75 1485.28 1361.38 1491.98 1358.01 1498.67 1356.33 1507.08 1356.33 1517.2 1356.33 1527.68 1358.01 1536.32 1361.38 1543.12 1364.75 1549.92 1369.89 1554.47 1376.81 1556.78L1375.73 1560.23C1366.96 1557.93 1360.24 1552.96 1355.56 1545.34 1350.89 1537.72 1348.56 1528.49 1348.56 1517.65 1348.56 1506.84 1350.9 1497.61 1355.59 1489.95 1360.27 1482.3 1366.99 1477.32 1375.73 1475.02Z" fill-rule="evenodd"/><text fill="#000000" fill-opacity="0" font-family="Arial,Arial_MSFontService,sans-serif" font-size="85.2168" x="1348.56" y="1549.58">(</text><path d="M1392.43 1496.22C1394.32 1496.22 1395.81 1496.84 1396.9 1498.08 1398 1499.33 1398.54 1500.95 1398.54 1502.96 1398.54 1504.61 1398.2 1506.36 1397.51 1508.21L1398.05 1508.39C1400.8 1504.29 1403.54 1501.24 1406.27 1499.25 1408.99 1497.26 1411.75 1496.27 1414.53 1496.27 1417.41 1496.27 1419.6 1497.08 1421.09 1498.71 1422.59 1500.35 1423.34 1502.7 1423.34 1505.79L1423.34 1506.42C1423.34 1506.63 1423.32 1506.85 1423.29 1507.09 1425.87 1503.44 1428.44 1500.72 1431 1498.94 1433.56 1497.16 1436.22 1496.27 1438.97 1496.27 1441.73 1496.27 1443.85 1497.06 1445.35 1498.65 1446.85 1500.23 1447.6 1502.46 1447.6 1505.34 1447.6 1507.23 1447.16 1509.91 1446.29 1513.38L1443.37 1525.15C1442.57 1528.41 1442.16 1530.72 1442.16 1532.07 1442.16 1533.27 1442.36 1534.13 1442.74 1534.67 1443.13 1535.21 1443.75 1535.48 1444.59 1535.48 1445.49 1535.48 1446.44 1535.12 1447.46 1534.38 1448.48 1533.65 1449.92 1532.25 1451.77 1530.18L1454.33 1532.7C1451.76 1535.42 1449.51 1537.43 1447.6 1538.72 1445.68 1540 1443.49 1540.65 1441.04 1540.65 1439.09 1540.65 1437.53 1539.95 1436.37 1538.56 1435.2 1537.17 1434.61 1535.39 1434.61 1533.24 1434.61 1531.29 1435.11 1528.43 1436.1 1524.66L1438.07 1516.88C1438.79 1514.07 1439.26 1511.99 1439.49 1510.64 1439.71 1509.29 1439.83 1508.2 1439.83 1507.36 1439.83 1505.29 1439.48 1503.8 1438.79 1502.89 1438.1 1501.98 1436.98 1501.52 1435.42 1501.52 1434.16 1501.52 1432.82 1501.99 1431.38 1502.94 1429.94 1503.88 1428.43 1505.35 1426.84 1507.34 1425.26 1509.33 1423.96 1511.29 1422.96 1513.22 1421.95 1515.16 1421.15 1517.51 1420.55 1520.3L1416.47 1539.93 1408.69 1539.93 1413.86 1517.11C1414.49 1514.32 1414.92 1512.27 1415.14 1510.93 1415.37 1509.6 1415.48 1508.45 1415.48 1507.5 1415.48 1505.34 1415.1 1503.8 1414.33 1502.89 1413.57 1501.98 1412.38 1501.52 1410.76 1501.52 1409.62 1501.52 1408.33 1501.99 1406.87 1502.94 1405.42 1503.88 1403.87 1505.39 1402.23 1507.47 1400.58 1509.55 1399.29 1511.55 1398.36 1513.47 1397.43 1515.39 1396.66 1517.72 1396.03 1520.48L1391.76 1539.93 1383.99 1539.93 1390.55 1511.45C1391.2 1508.57 1391.53 1506.36 1391.53 1504.8 1391.53 1503.6 1391.34 1502.73 1390.95 1502.2 1390.56 1501.66 1389.95 1501.39 1389.11 1501.39 1388.18 1501.39 1387.2 1501.77 1386.17 1502.53 1385.13 1503.3 1383.72 1504.68 1381.92 1506.69L1379.36 1504.17C1382 1501.42 1384.26 1499.4 1386.17 1498.13 1388.07 1496.86 1390.16 1496.22 1392.43 1496.22Z" fill-rule="evenodd"/><text fill="#000000" fill-opacity="0" font-family="Arial,Arial_MSFontService,sans-serif" font-size="44.4277" x="1379.36" y="1535.09">𝑚</text><path d="M1459.53 1475.02C1468.28 1477.32 1474.99 1482.3 1479.68 1489.95 1484.37 1497.61 1486.71 1506.84 1486.71 1517.65 1486.71 1528.49 1484.37 1537.72 1479.7 1545.34 1475.03 1552.96 1468.31 1557.93 1459.53 1560.23L1458.45 1556.78C1465.37 1554.47 1470.51 1549.92 1473.88 1543.12 1477.25 1536.32 1478.94 1527.68 1478.94 1517.2 1478.94 1507.08 1477.26 1498.67 1473.91 1491.98 1470.55 1485.28 1465.36 1480.78 1458.32 1478.48Z" fill-rule="evenodd"/><text fill="#000000" fill-opacity="0" font-family="Arial,Arial_MSFontService,sans-serif" font-size="85.2168" x="1458.32" y="1549.58">)</text><path d="M0 0 765 4.9998" stroke="#000000" stroke-width="3.4375" stroke-linejoin="round" stroke-miterlimit="10" stroke-dasharray="13.75 10.3125" fill="none" fill-rule="evenodd" transform="matrix(-1 0 0 1 2309.5 1505.5)"/><path d="M0 0 275 2.00007" stroke="#000000" stroke-width="3.4375" stroke-linejoin="round" stroke-miterlimit="10" stroke-dasharray="13.75 10.3125" fill="none" fill-rule="evenodd" transform="matrix(-1 0 0 1 1810.5 1860.5)"/><path d="M0.966505-0.61547 86.2016 133.234 84.2686 134.465-0.966505 0.61547ZM94.3713 122.598 97.5445 153.179 71.1752 137.369Z" transform="matrix(1 0 0 -1 1438 2015.18)"/><path d="M2663.32 569.933C2666.83 569.933 2669.85 570.219 2672.4 570.792L2670.3 579.923 2665.57 579.923C2665.07 577.882 2664.42 576.414 2663.61 575.518 2662.81 574.623 2661.62 574.176 2660.04 574.176 2658 574.176 2656.27 574.74 2654.86 575.868 2653.44 576.996 2652.24 578.67 2651.23 580.89 2650.23 583.11 2649.3 586.1 2648.44 589.859L2647.1 595.714 2660.9 595.714 2659.72 601.139 2645.86 601.139 2635.87 647.975C2634.22 655.745 2631.7 661.537 2628.3 665.35 2624.9 669.164 2620.62 671.07 2615.46 671.07 2613.96 671.07 2612.78 670.981 2611.92 670.802L2612.83 666.075C2613.19 666.183 2614.03 666.236 2615.35 666.236 2616.97 666.236 2618.34 665.824 2619.49 665.001 2620.64 664.177 2621.7 662.745 2622.69 660.704 2623.67 658.663 2624.57 655.834 2625.4 652.218L2636.95 601.139 2627.87 601.139 2628.67 597.433C2631.07 597.289 2632.8 597.092 2633.86 596.842 2634.91 596.591 2635.74 596.215 2636.33 595.714 2636.92 595.213 2637.42 594.559 2637.83 593.753 2638.24 592.948 2638.77 591.471 2639.42 589.322 2641.31 582.877 2644.24 578.034 2648.2 574.793 2652.16 571.553 2657.2 569.933 2663.32 569.933Z" fill-rule="evenodd"/><text fill="#000000" fill-opacity="0" font-family="Arial,Arial_MSFontService,sans-serif" font-size="101.138" x="2611.92" y="658.428">𝑓</text><path d="M2718.85 569.449 2720.3 573.585C2711.92 576.342 2705.71 581.722 2701.69 589.725 2697.66 597.728 2695.64 607.781 2695.64 619.884 2695.64 632.416 2697.66 642.747 2701.69 650.875 2705.71 659.003 2711.86 664.446 2720.14 667.203L2718.85 671.339C2708.35 668.582 2700.32 662.647 2694.73 653.534 2689.14 644.421 2686.35 633.383 2686.35 620.421 2686.35 607.494 2689.15 596.457 2694.76 587.308 2700.36 578.159 2708.39 572.206 2718.85 569.449Z" fill-rule="evenodd"/><text fill="#000000" fill-opacity="0" font-family="Arial,Arial_MSFontService,sans-serif" font-size="101.89" x="2686.35" y="658.603">(</text><path d="M2743.73 594.801C2744.84 594.801 2745.82 594.926 2746.66 595.177 2747.5 595.427 2748.24 595.812 2748.89 596.331 2749.53 596.851 2750.11 597.522 2750.61 598.346 2751.11 599.169 2751.59 600.288 2752.06 601.703 2752.52 603.117 2752.96 604.872 2753.37 606.966 2753.79 609.061 2754.15 611.236 2754.47 613.492L2755.01 613.492C2758.45 608.658 2761.05 605.122 2762.83 602.884 2764.6 600.646 2766.09 598.981 2767.31 597.889 2768.53 596.797 2769.7 596.027 2770.83 595.58 2771.96 595.132 2773.45 594.908 2775.31 594.908 2777 594.908 2778.38 595.123 2779.45 595.553L2777.3 605.274 2773.54 605.274C2773.33 603.77 2772.7 603.018 2771.66 603.018 2771.34 603.018 2771 603.072 2770.64 603.18 2770.28 603.287 2769.84 603.52 2769.33 603.878 2768.81 604.236 2768.05 604.934 2767.04 605.973 2766.04 607.011 2764.91 608.282 2763.66 609.786 2762.41 611.29 2761.12 612.865 2759.79 614.513L2756.14 619.078C2756.78 622.516 2757.39 625.488 2757.97 627.994 2758.54 630.501 2759.05 632.586 2759.5 634.251 2759.94 635.916 2760.34 637.232 2760.68 638.199 2761.02 639.166 2761.39 639.891 2761.78 640.374 2762.17 640.858 2762.58 641.198 2762.99 641.395 2763.4 641.592 2763.87 641.69 2764.41 641.69 2765.38 641.69 2766.32 641.314 2767.23 640.562 2768.14 639.81 2769.46 638.11 2771.18 635.46L2774.67 637.769C2772.16 641.493 2769.9 644.116 2767.88 645.638 2765.85 647.16 2763.44 647.921 2760.65 647.921 2759.11 647.921 2757.8 647.643 2756.73 647.088 2755.66 646.533 2754.73 645.647 2753.94 644.43 2753.15 643.212 2752.45 641.314 2751.84 638.736 2750.73 634.153 2750.05 630.644 2749.8 628.209L2749.26 628.209C2745.47 633.544 2742.65 637.376 2740.8 639.703 2738.96 642.031 2737.44 643.749 2736.24 644.859 2735.04 645.969 2733.88 646.748 2732.75 647.196 2731.62 647.643 2730.13 647.867 2728.26 647.867 2726.58 647.867 2725.2 647.652 2724.13 647.223L2726.28 637.501 2730.04 637.501C2730.25 639.005 2730.88 639.757 2731.92 639.757 2732.42 639.757 2732.95 639.622 2733.5 639.354 2734.06 639.085 2734.85 638.441 2735.89 637.42 2736.93 636.4 2738.36 634.797 2740.19 632.613 2742.01 630.429 2744.66 627.153 2748.14 622.784 2747.6 619.955 2747.04 617.234 2746.47 614.62 2745.9 612.006 2745.31 609.571 2744.7 607.315 2744.09 605.06 2743.59 603.582 2743.2 602.884 2742.8 602.186 2742.38 601.703 2741.93 601.434 2741.49 601.165 2740.92 601.031 2740.24 601.031 2739.49 601.031 2738.81 601.201 2738.2 601.541 2737.59 601.882 2736.93 602.472 2736.21 603.314 2735.5 604.155 2734.55 605.471 2733.37 607.262L2729.87 604.952C2732.13 601.55 2734.3 599.008 2736.37 597.325 2738.45 595.642 2740.9 594.801 2743.73 594.801Z" fill-rule="evenodd"/><text fill="#000000" fill-opacity="0" font-family="Arial,Arial_MSFontService,sans-serif" font-size="53.1201" x="2724.13" y="641.281">𝑥</text><path d="M2787.77 569.449C2798.22 572.206 2806.25 578.159 2811.86 587.308 2817.46 596.457 2820.26 607.494 2820.26 620.421 2820.26 633.383 2817.47 644.421 2811.88 653.534 2806.3 662.647 2798.26 668.582 2787.77 671.339L2786.48 667.203C2794.75 664.446 2800.9 659.003 2804.93 650.875 2808.96 642.747 2810.97 632.416 2810.97 619.884 2810.97 607.781 2808.97 597.728 2804.96 589.725 2800.94 581.722 2794.73 576.342 2786.32 573.585Z" fill-rule="evenodd"/><text fill="#000000" fill-opacity="0" font-family="Arial,Arial_MSFontService,sans-serif" font-size="101.89" x="2786.32" y="658.603">)</text></g></svg>
