<svg width="2011" height="1707" xmlns="http://www.w3.org/2000/svg" xmlns:xlink="http://www.w3.org/1999/xlink" overflow="hidden"><defs><clipPath id="clip0"><rect x="1122" y="347" width="2011" height="1707"/></clipPath></defs><g clip-path="url(#clip0)" transform="translate(-1122 -347)"><path d="M2.29167-4.98152e-07 2.29202 1618.97-2.29131 1618.97-2.29167 4.98152e-07ZM22.917 1614.39 0.000360892 1660.22-22.9163 1614.39Z" transform="matrix(1 0 0 -1 1541.5 2053.72)"/><path d="M1289.5 1766.21 3019.65 1766.21 3019.65 1770.79 1289.5 1770.79ZM3015.07 1745.58 3060.91 1768.5 3015.07 1791.42Z"/><path d="M1687.5 1919.5C2178.91 1693.68 2776.68 1162.39 2909.5 604.5" stroke="#000000" stroke-width="4.58333" stroke-linejoin="round" stroke-miterlimit="10" fill="none" fill-rule="evenodd"/><path d="M0 0 920 1188" stroke="#000000" stroke-width="4.58333" stroke-linejoin="round" stroke-miterlimit="10" fill="none" fill-rule="evenodd" transform="matrix(1 0 0 -1 2099.5 1804.5)"/><path d="M1411.17 436.286C1412.64 436.286 1413.89 436.482 1414.93 436.876 1415.64 437.163 1416.36 437.637 1417.08 438.3 1417.79 438.962 1418.43 439.884 1418.98 441.066 1419.54 442.247 1420.02 443.572 1420.43 445.04 1420.84 446.509 1421.3 448.621 1421.8 451.378 1422.66 455.997 1423.49 460.858 1424.3 465.961 1425.11 471.063 1425.8 475.799 1426.37 480.167 1429.84 475.154 1432.79 470.249 1435.2 465.451 1437.62 460.652 1439.36 456.481 1440.41 452.936 1441.47 449.391 1442 446.509 1442 444.288 1442 442.606 1441.64 441.46 1440.92 440.851 1440.21 440.242 1438.99 439.884 1437.27 439.777L1437.81 437.145 1451.93 437.145 1453.38 439.83C1450.66 447.278 1446.98 455.245 1442.32 463.732 1437.74 472.039 1432.49 480.311 1426.58 488.546 1420.93 496.388 1416.22 502.064 1412.46 505.573 1409.84 507.972 1407.32 509.69 1404.88 510.729 1402.95 511.517 1400.89 511.911 1398.71 511.911 1397.96 511.911 1397.09 511.848 1396.1 511.723 1395.12 511.597 1394.36 511.427 1393.82 511.212L1396.13 500.792 1400.37 500.792C1400.37 503.084 1401.16 504.23 1402.74 504.23 1404.81 504.23 1407.23 502.932 1409.99 500.336 1412.74 497.74 1415.98 493.828 1419.71 488.6 1418.67 482.334 1417.26 474.778 1415.46 465.934 1413.57 456.481 1412.31 450.626 1411.71 448.37 1410.95 445.649 1410.17 443.912 1409.34 443.161 1408.84 442.695 1408.21 442.462 1407.46 442.462 1406.32 442.462 1405.24 442.928 1404.24 443.859 1403.24 444.79 1402 446.401 1400.53 448.693L1397.04 446.383C1399.51 442.695 1401.82 440.09 1403.97 438.568 1406.12 437.046 1408.52 436.286 1411.17 436.286Z" fill-rule="evenodd"/><text fill="#000000" fill-opacity="0" font-family="Arial,Arial_MSFontService,sans-serif" font-size="75.625" x="1393.82" y="502.457">𝑦</text><path d="M3043.01 1836.41C3044.12 1836.41 3045.1 1836.54 3045.94 1836.79 3046.78 1837.04 3047.52 1837.42 3048.17 1837.94 3048.81 1838.46 3049.39 1839.13 3049.89 1839.96 3050.39 1840.78 3050.87 1841.9 3051.34 1843.32 3051.8 1844.73 3052.24 1846.48 3052.65 1848.58 3053.07 1850.67 3053.43 1852.85 3053.76 1855.1L3054.29 1855.1C3057.73 1850.27 3060.33 1846.73 3062.11 1844.5 3063.88 1842.26 3065.37 1840.59 3066.59 1839.5 3067.81 1838.41 3068.98 1837.64 3070.11 1837.19 3071.24 1836.74 3072.73 1836.52 3074.59 1836.52 3076.28 1836.52 3077.66 1836.74 3078.73 1837.17L3076.58 1846.89 3072.82 1846.89C3072.61 1845.38 3071.98 1844.63 3070.94 1844.63 3070.62 1844.63 3070.28 1844.68 3069.92 1844.79 3069.56 1844.9 3069.13 1845.13 3068.61 1845.49 3068.09 1845.85 3067.33 1846.55 3066.32 1847.59 3065.32 1848.62 3064.19 1849.89 3062.94 1851.4 3061.69 1852.9 3060.4 1854.48 3059.07 1856.13L3055.42 1860.69C3056.06 1864.13 3056.67 1867.1 3057.25 1869.61 3057.82 1872.11 3058.33 1874.2 3058.78 1875.86 3059.22 1877.53 3059.62 1878.84 3059.96 1879.81 3060.3 1880.78 3060.67 1881.5 3061.06 1881.99 3061.45 1882.47 3061.86 1882.81 3062.27 1883.01 3062.68 1883.2 3063.15 1883.3 3063.69 1883.3 3064.66 1883.3 3065.6 1882.93 3066.51 1882.18 3067.42 1881.42 3068.74 1879.72 3070.46 1877.07L3073.95 1879.38C3071.44 1883.11 3069.18 1885.73 3067.16 1887.25 3065.13 1888.77 3062.72 1889.53 3059.93 1889.53 3058.39 1889.53 3057.09 1889.26 3056.01 1888.7 3054.94 1888.15 3054.01 1887.26 3053.22 1886.04 3052.43 1884.82 3051.73 1882.93 3051.12 1880.35 3050.01 1875.77 3049.33 1872.26 3049.08 1869.82L3048.55 1869.82C3044.75 1875.16 3041.93 1878.99 3040.09 1881.32 3038.24 1883.64 3036.72 1885.36 3035.52 1886.47 3034.32 1887.58 3033.16 1888.36 3032.03 1888.81 3030.9 1889.26 3029.41 1889.48 3027.54 1889.48 3025.86 1889.48 3024.48 1889.26 3023.41 1888.84L3025.56 1879.11 3029.32 1879.11C3029.53 1880.62 3030.16 1881.37 3031.2 1881.37 3031.7 1881.37 3032.23 1881.24 3032.78 1880.97 3033.34 1880.7 3034.13 1880.05 3035.17 1879.03 3036.21 1878.01 3037.64 1876.41 3039.47 1874.23 3041.29 1872.04 3043.94 1868.77 3047.42 1864.4 3046.88 1861.57 3046.33 1858.85 3045.75 1856.23 3045.18 1853.62 3044.59 1851.18 3043.98 1848.93 3043.37 1846.67 3042.87 1845.2 3042.48 1844.5 3042.08 1843.8 3041.66 1843.32 3041.21 1843.05 3040.77 1842.78 3040.2 1842.64 3039.52 1842.64 3038.77 1842.64 3038.09 1842.81 3037.48 1843.15 3036.87 1843.49 3036.21 1844.09 3035.49 1844.93 3034.78 1845.77 3033.83 1847.08 3032.65 1848.87L3029.16 1846.56C3031.41 1843.16 3033.58 1840.62 3035.65 1838.94 3037.73 1837.25 3040.18 1836.41 3043.01 1836.41Z" fill-rule="evenodd"/><text fill="#000000" fill-opacity="0" font-family="Arial,Arial_MSFontService,sans-serif" font-size="53.1201" x="3023.41" y="1882.89">𝑥</text><path d="M2663.32 569.933C2666.83 569.933 2669.85 570.219 2672.4 570.792L2670.3 579.923 2665.57 579.923C2665.07 577.882 2664.42 576.414 2663.61 575.518 2662.81 574.623 2661.62 574.176 2660.04 574.176 2658 574.176 2656.27 574.74 2654.86 575.868 2653.44 576.996 2652.24 578.67 2651.23 580.89 2650.23 583.11 2649.3 586.1 2648.44 589.859L2647.1 595.714 2660.9 595.714 2659.72 601.139 2645.86 601.139 2635.87 647.975C2634.22 655.745 2631.7 661.537 2628.3 665.35 2624.9 669.164 2620.62 671.07 2615.46 671.07 2613.96 671.07 2612.78 670.981 2611.92 670.802L2612.83 666.075C2613.19 666.183 2614.03 666.236 2615.35 666.236 2616.97 666.236 2618.34 665.824 2619.49 665.001 2620.64 664.177 2621.7 662.745 2622.69 660.704 2623.67 658.663 2624.57 655.834 2625.4 652.218L2636.95 601.139 2627.87 601.139 2628.67 597.433C2631.07 597.289 2632.8 597.092 2633.86 596.842 2634.91 596.591 2635.74 596.215 2636.33 595.714 2636.92 595.213 2637.42 594.559 2637.83 593.753 2638.24 592.948 2638.77 591.471 2639.42 589.322 2641.31 582.877 2644.24 578.034 2648.2 574.793 2652.16 571.553 2657.2 569.933 2663.32 569.933Z" fill-rule="evenodd"/><text fill="#000000" fill-opacity="0" font-family="Arial,Arial_MSFontService,sans-serif" font-size="101.138" x="2611.92" y="658.428">𝑓</text><path d="M2718.85 569.449 2720.3 573.585C2711.92 576.342 2705.71 581.722 2701.69 589.725 2697.66 597.728 2695.64 607.781 2695.64 619.884 2695.64 632.416 2697.66 642.747 2701.69 650.875 2705.71 659.003 2711.86 664.446 2720.14 667.203L2718.85 671.339C2708.35 668.582 2700.32 662.647 2694.73 653.534 2689.14 644.421 2686.35 633.383 2686.35 620.421 2686.35 607.494 2689.15 596.457 2694.76 587.308 2700.36 578.159 2708.39 572.206 2718.85 569.449Z" fill-rule="evenodd"/><text fill="#000000" fill-opacity="0" font-family="Arial,Arial_MSFontService,sans-serif" font-size="101.89" x="2686.35" y="658.603">(</text><path d="M2743.73 594.801C2744.84 594.801 2745.82 594.926 2746.66 595.177 2747.5 595.427 2748.24 595.812 2748.89 596.331 2749.53 596.851 2750.11 597.522 2750.61 598.346 2751.11 599.169 2751.59 600.288 2752.06 601.703 2752.52 603.117 2752.96 604.872 2753.37 606.966 2753.79 609.061 2754.15 611.236 2754.47 613.492L2755.01 613.492C2758.45 608.658 2761.05 605.122 2762.83 602.884 2764.6 600.646 2766.09 598.981 2767.31 597.889 2768.53 596.797 2769.7 596.027 2770.83 595.58 2771.96 595.132 2773.45 594.908 2775.31 594.908 2777 594.908 2778.38 595.123 2779.45 595.553L2777.3 605.274 2773.54 605.274C2773.33 603.77 2772.7 603.018 2771.66 603.018 2771.34 603.018 2771 603.072 2770.64 603.18 2770.28 603.287 2769.84 603.52 2769.33 603.878 2768.81 604.236 2768.05 604.934 2767.04 605.973 2766.04 607.011 2764.91 608.282 2763.66 609.786 2762.41 611.29 2761.12 612.865 2759.79 614.513L2756.14 619.078C2756.78 622.516 2757.39 625.488 2757.97 627.994 2758.54 630.501 2759.05 632.586 2759.5 634.251 2759.94 635.916 2760.34 637.232 2760.68 638.199 2761.02 639.166 2761.39 639.891 2761.78 640.374 2762.17 640.858 2762.58 641.198 2762.99 641.395 2763.4 641.592 2763.87 641.69 2764.41 641.69 2765.38 641.69 2766.32 641.314 2767.23 640.562 2768.14 639.81 2769.46 638.11 2771.18 635.46L2774.67 637.769C2772.16 641.493 2769.9 644.116 2767.88 645.638 2765.85 647.16 2763.44 647.921 2760.65 647.921 2759.11 647.921 2757.8 647.643 2756.73 647.088 2755.66 646.533 2754.73 645.647 2753.94 644.43 2753.15 643.212 2752.45 641.314 2751.84 638.736 2750.73 634.153 2750.05 630.644 2749.8 628.209L2749.26 628.209C2745.47 633.544 2742.65 637.376 2740.8 639.703 2738.96 642.031 2737.44 643.749 2736.24 644.859 2735.04 645.969 2733.88 646.748 2732.75 647.196 2731.62 647.643 2730.13 647.867 2728.26 647.867 2726.58 647.867 2725.2 647.652 2724.13 647.223L2726.28 637.501 2730.04 637.501C2730.25 639.005 2730.88 639.757 2731.92 639.757 2732.42 639.757 2732.95 639.622 2733.5 639.354 2734.06 639.085 2734.85 638.441 2735.89 637.42 2736.93 636.4 2738.36 634.797 2740.19 632.613 2742.01 630.429 2744.66 627.153 2748.14 622.784 2747.6 619.955 2747.04 617.234 2746.47 614.62 2745.9 612.006 2745.31 609.571 2744.7 607.315 2744.09 605.06 2743.59 603.582 2743.2 602.884 2742.8 602.186 2742.38 601.703 2741.93 601.434 2741.49 601.165 2740.92 601.031 2740.24 601.031 2739.49 601.031 2738.81 601.201 2738.2 601.541 2737.59 601.882 2736.93 602.472 2736.21 603.314 2735.5 604.155 2734.55 605.471 2733.37 607.262L2729.87 604.952C2732.13 601.55 2734.3 599.008 2736.37 597.325 2738.45 595.642 2740.9 594.801 2743.73 594.801Z" fill-rule="evenodd"/><text fill="#000000" fill-opacity="0" font-family="Arial,Arial_MSFontService,sans-serif" font-size="53.1201" x="2724.13" y="641.281">𝑥</text><path d="M2787.77 569.449C2798.22 572.206 2806.25 578.159 2811.86 587.308 2817.46 596.457 2820.26 607.494 2820.26 620.421 2820.26 633.383 2817.47 644.421 2811.88 653.534 2806.3 662.647 2798.26 668.582 2787.77 671.339L2786.48 667.203C2794.75 664.446 2800.9 659.003 2804.93 650.875 2808.96 642.747 2810.97 632.416 2810.97 619.884 2810.97 607.781 2808.97 597.728 2804.96 589.725 2800.94 581.722 2794.73 576.342 2786.32 573.585Z" fill-rule="evenodd"/><text fill="#000000" fill-opacity="0" font-family="Arial,Arial_MSFontService,sans-serif" font-size="101.89" x="2786.32" y="658.603">)</text><path d="M1471.28 1817.98C1467.41 1817.98 1463.8 1819.36 1460.45 1822.12 1457.11 1824.88 1454.17 1828.81 1451.64 1833.94 1449.12 1839.06 1447.16 1844.68 1445.76 1850.8 1444.37 1856.92 1443.67 1862.33 1443.67 1867.02 1443.67 1878.09 1447.7 1883.62 1455.75 1883.62 1460.66 1883.62 1465.16 1881.36 1469.26 1876.85 1473.36 1872.34 1476.72 1866.01 1479.33 1857.86 1481.95 1849.72 1483.25 1841.9 1483.25 1834.42 1483.25 1823.46 1479.26 1817.98 1471.28 1817.98ZM1471.87 1813.26C1478.78 1813.26 1484.1 1815.26 1487.85 1819.27 1491.59 1823.28 1493.46 1829.08 1493.46 1836.67 1493.46 1842.22 1492.51 1848.46 1490.61 1855.39 1488.71 1862.32 1485.97 1868.32 1482.37 1873.39 1478.77 1878.45 1474.66 1882.21 1470.04 1884.67 1465.42 1887.12 1460.59 1888.34 1455.54 1888.34 1448.34 1888.34 1442.88 1886.34 1439.16 1882.33 1435.43 1878.32 1433.57 1872.59 1433.57 1865.14 1433.57 1859.77 1434.48 1853.7 1436.28 1846.93 1438.09 1840.17 1440.71 1834.2 1444.13 1829.02 1447.54 1823.85 1451.63 1819.93 1456.37 1817.26 1461.12 1814.59 1466.28 1813.26 1471.87 1813.26Z" fill-rule="evenodd"/><text fill="#000000" fill-opacity="0" font-family="Arial,Arial_MSFontService,sans-serif" font-size="75.0879" x="1433.57" y="1878.96">𝑂</text><path d="M2411.18 1832.15C2412.29 1832.15 2413.26 1832.28 2414.1 1832.53 2414.94 1832.78 2415.69 1833.16 2416.33 1833.68 2416.98 1834.2 2417.55 1834.87 2418.05 1835.7 2418.55 1836.52 2419.04 1837.64 2419.5 1839.05 2419.97 1840.47 2420.41 1842.22 2420.82 1844.32 2421.23 1846.41 2421.6 1848.59 2421.92 1850.84L2422.46 1850.84C2425.89 1846.01 2428.5 1842.47 2430.27 1840.23 2432.04 1838 2433.54 1836.33 2434.75 1835.24 2435.97 1834.15 2437.15 1833.38 2438.27 1832.93 2439.4 1832.48 2440.9 1832.26 2442.76 1832.26 2444.44 1832.26 2445.82 1832.47 2446.89 1832.9L2444.75 1842.62 2440.99 1842.62C2440.77 1841.12 2440.14 1840.37 2439.11 1840.37 2438.78 1840.37 2438.44 1840.42 2438.08 1840.53 2437.73 1840.64 2437.29 1840.87 2436.77 1841.23 2436.25 1841.59 2435.49 1842.28 2434.49 1843.32 2433.48 1844.36 2432.36 1845.63 2431.1 1847.14 2429.85 1848.64 2428.56 1850.22 2427.24 1851.86L2423.58 1856.43C2424.23 1859.87 2424.84 1862.84 2425.41 1865.34 2425.98 1867.85 2426.49 1869.94 2426.94 1871.6 2427.39 1873.27 2427.78 1874.58 2428.12 1875.55 2428.46 1876.52 2428.83 1877.24 2429.22 1877.72 2429.62 1878.21 2430.02 1878.55 2430.43 1878.75 2430.84 1878.94 2431.32 1879.04 2431.85 1879.04 2432.82 1879.04 2433.76 1878.66 2434.67 1877.91 2435.59 1877.16 2436.9 1875.46 2438.62 1872.81L2442.11 1875.12C2439.61 1878.84 2437.34 1881.47 2435.32 1882.99 2433.3 1884.51 2430.89 1885.27 2428.09 1885.27 2426.55 1885.27 2425.25 1884.99 2424.17 1884.44 2423.1 1883.88 2422.17 1883 2421.38 1881.78 2420.59 1880.56 2419.89 1878.66 2419.29 1876.09 2418.18 1871.5 2417.5 1867.99 2417.25 1865.56L2416.71 1865.56C2412.91 1870.89 2410.09 1874.73 2408.25 1877.05 2406.4 1879.38 2404.88 1881.1 2403.68 1882.21 2402.48 1883.32 2401.32 1884.1 2400.19 1884.55 2399.06 1884.99 2397.57 1885.22 2395.71 1885.22 2394.02 1885.22 2392.65 1885 2391.57 1884.57L2393.72 1874.85 2397.48 1874.85C2397.69 1876.35 2398.32 1877.11 2399.36 1877.11 2399.86 1877.11 2400.39 1876.97 2400.94 1876.7 2401.5 1876.44 2402.3 1875.79 2403.33 1874.77 2404.37 1873.75 2405.8 1872.15 2407.63 1869.96 2409.46 1867.78 2412.11 1864.5 2415.58 1860.13 2415.04 1857.31 2414.49 1854.58 2413.92 1851.97 2413.34 1849.36 2412.75 1846.92 2412.14 1844.67 2411.53 1842.41 2411.03 1840.93 2410.64 1840.23 2410.24 1839.54 2409.82 1839.05 2409.38 1838.78 2408.93 1838.52 2408.36 1838.38 2407.68 1838.38 2406.93 1838.38 2406.25 1838.55 2405.64 1838.89 2405.03 1839.23 2404.37 1839.82 2403.66 1840.66 2402.94 1841.51 2401.99 1842.82 2400.81 1844.61L2397.32 1842.3C2399.57 1838.9 2401.74 1836.36 2403.82 1834.68 2405.89 1832.99 2408.35 1832.15 2411.18 1832.15Z" fill-rule="evenodd"/><text fill="#000000" fill-opacity="0" font-family="Arial,Arial_MSFontService,sans-serif" font-size="53.1201" x="2391.57" y="1878.63">𝑥</text><path d="M2468.41 1853.55 2471.23 1853.55 2464.35 1883.94 2465.45 1883.94C2466.43 1883.94 2467.5 1883.73 2468.65 1883.32 2469.79 1882.9 2470.93 1882.36 2472.07 1881.69 2473.2 1881.03 2474.29 1880.28 2475.33 1879.45 2476.37 1878.61 2477.29 1877.77 2478.08 1876.93 2478.88 1876.08 2479.51 1875.28 2479.98 1874.53 2480.45 1873.77 2480.68 1873.13 2480.68 1872.61 2480.68 1871.99 2480.47 1871.48 2480.05 1871.09 2479.64 1870.7 2478.88 1870.44 2477.79 1870.31L2478.26 1867.81 2492.32 1867.81 2493.3 1870.23C2491.66 1871.64 2490.08 1872.94 2488.57 1874.14 2487.06 1875.33 2485.58 1876.49 2484.14 1877.59 2482.69 1878.7 2481.25 1879.79 2479.8 1880.85 2478.36 1881.92 2476.88 1883.03 2475.37 1884.17 2475.99 1886.15 2476.63 1888.17 2477.28 1890.21 2477.93 1892.25 2478.58 1894.28 2479.23 1896.28 2479.55 1897.35 2479.84 1898.27 2480.11 1899.04 2480.39 1899.81 2480.68 1900.43 2480.99 1900.91 2481.3 1901.39 2481.64 1901.75 2482.01 1901.99 2482.37 1902.22 2482.82 1902.34 2483.34 1902.34 2483.7 1902.34 2484.08 1902.27 2484.47 1902.14 2484.86 1902.01 2485.3 1901.78 2485.78 1901.44 2486.26 1901.1 2486.81 1900.64 2487.42 1900.05 2488.03 1899.47 2488.73 1898.73 2489.51 1897.85L2492.16 1900.39C2490.94 1901.64 2489.8 1902.72 2488.75 1903.63 2487.69 1904.54 2486.69 1905.29 2485.74 1905.87 2484.79 1906.46 2483.87 1906.89 2482.98 1907.16 2482.1 1907.44 2481.2 1907.57 2480.29 1907.57 2478.65 1907.57 2477.33 1907.16 2476.32 1906.34 2475.32 1905.52 2474.47 1904.35 2473.77 1902.83 2473.06 1901.3 2472.42 1899.46 2471.83 1897.3 2471.25 1895.14 2470.56 1892.73 2469.78 1890.07 2469.6 1889.45 2469.42 1888.95 2469.25 1888.57 2469.08 1888.19 2468.87 1887.91 2468.61 1887.71 2468.35 1887.51 2468.02 1887.39 2467.63 1887.34 2467.24 1887.29 2466.75 1887.26 2466.15 1887.26L2463.65 1887.26 2459.35 1906.87 2451.85 1906.87 2461.3 1864.92C2461.62 1863.54 2461.84 1862.45 2461.97 1861.66 2462.1 1860.86 2462.16 1860.15 2462.16 1859.53 2462.16 1859.03 2462.08 1858.6 2461.91 1858.24 2461.74 1857.87 2461.46 1857.58 2461.07 1857.36 2460.68 1857.14 2460.16 1856.97 2459.51 1856.87 2458.86 1856.77 2458.05 1856.7 2457.09 1856.67L2457.67 1854.02Z" fill-rule="evenodd"/><text fill="#000000" fill-opacity="0" font-family="Arial,Arial_MSFontService,sans-serif" font-size="54.0234" x="2451.85" y="1900.82">𝑘</text><path d="M1956.09 1833.84C1952.41 1833.84 1949.09 1835.32 1946.16 1838.3 1943.22 1841.27 1940.93 1845.25 1939.28 1850.25 1937.64 1855.24 1936.81 1860.23 1936.81 1865.2 1936.81 1868.93 1937.32 1871.71 1938.34 1873.56 1939.36 1875.4 1941.07 1876.32 1943.47 1876.32 1945.84 1876.32 1948.15 1875.3 1950.43 1873.26 1952.7 1871.22 1955.05 1868.31 1957.46 1864.53 1959.88 1860.76 1961.59 1856.4 1962.59 1851.45L1963.08 1849.15C1963.4 1847.68 1963.61 1846.41 1963.72 1845.33 1963.83 1844.26 1963.88 1843.09 1963.88 1841.84 1963.88 1839.08 1963.29 1837.06 1962.11 1835.77 1960.93 1834.48 1958.92 1833.84 1956.09 1833.84ZM1955.02 1829.59C1957.35 1829.59 1959.52 1829.85 1961.55 1830.37 1963.57 1830.89 1965.65 1831.81 1967.8 1833.14L1972.74 1829.59 1976.18 1830.45 1968.29 1864.51C1967.5 1867.91 1967.1 1870.56 1967.1 1872.46 1967.1 1873.89 1967.34 1874.93 1967.8 1875.57 1968.27 1876.22 1969 1876.54 1970.01 1876.54 1971.08 1876.54 1972.23 1876.1 1973.44 1875.22 1974.66 1874.34 1976.38 1872.67 1978.6 1870.2L1981.66 1873.21C1978.44 1876.65 1975.69 1879.09 1973.42 1880.54 1971.14 1881.99 1968.68 1882.71 1966.03 1882.71 1963.81 1882.71 1962.04 1881.98 1960.71 1880.51 1959.39 1879.04 1958.73 1877.09 1958.73 1874.66 1958.73 1872.69 1959.14 1870.59 1959.96 1868.37L1959.26 1868.16C1955.83 1873.17 1952.57 1876.84 1949.49 1879.17 1946.41 1881.5 1943.15 1882.66 1939.71 1882.66 1935.77 1882.66 1932.72 1881.18 1930.55 1878.2 1928.39 1875.23 1927.3 1871.06 1927.3 1865.69 1927.3 1859.53 1928.51 1853.61 1930.93 1847.94 1933.35 1842.26 1936.67 1837.79 1940.89 1834.51 1945.12 1831.23 1949.83 1829.59 1955.02 1829.59Z" fill-rule="evenodd"/><text fill="#000000" fill-opacity="0" font-family="Arial,Arial_MSFontService,sans-serif" font-size="53.1201" x="1927.3" y="1876.07">𝑎</text><path d="M2149.99 1828.02C2151.1 1828.02 2152.08 1828.15 2152.92 1828.4 2153.76 1828.65 2154.51 1829.04 2155.15 1829.55 2155.79 1830.07 2156.37 1830.74 2156.87 1831.57 2157.37 1832.39 2157.85 1833.51 2158.32 1834.93 2158.78 1836.34 2159.22 1838.09 2159.63 1840.19 2160.05 1842.28 2160.41 1844.46 2160.74 1846.72L2161.27 1846.72C2164.71 1841.88 2167.32 1838.35 2169.09 1836.11 2170.86 1833.87 2172.35 1832.2 2173.57 1831.11 2174.79 1830.02 2175.96 1829.25 2177.09 1828.8 2178.22 1828.35 2179.71 1828.13 2181.58 1828.13 2183.26 1828.13 2184.64 1828.35 2185.71 1828.78L2183.56 1838.5 2179.8 1838.5C2179.59 1836.99 2178.96 1836.24 2177.92 1836.24 2177.6 1836.24 2177.26 1836.3 2176.9 1836.4 2176.54 1836.51 2176.11 1836.74 2175.59 1837.1 2175.07 1837.46 2174.31 1838.16 2173.3 1839.2 2172.3 1840.23 2171.17 1841.51 2169.92 1843.01 2168.67 1844.51 2167.38 1846.09 2166.05 1847.74L2162.4 1852.3C2163.05 1855.74 2163.65 1858.71 2164.23 1861.22 2164.8 1863.72 2165.31 1865.81 2165.76 1867.47 2166.21 1869.14 2166.6 1870.46 2166.94 1871.42 2167.28 1872.39 2167.65 1873.11 2168.04 1873.6 2168.43 1874.08 2168.84 1874.42 2169.25 1874.62 2169.66 1874.81 2170.14 1874.91 2170.67 1874.91 2171.64 1874.91 2172.58 1874.54 2173.49 1873.79 2174.41 1873.03 2175.72 1871.33 2177.44 1868.68L2180.93 1870.99C2178.42 1874.72 2176.16 1877.34 2174.14 1878.86 2172.11 1880.38 2169.71 1881.14 2166.91 1881.14 2165.37 1881.14 2164.07 1880.87 2162.99 1880.31 2161.92 1879.76 2160.99 1878.87 2160.2 1877.65 2159.41 1876.44 2158.71 1874.54 2158.1 1871.96 2156.99 1867.38 2156.31 1863.87 2156.06 1861.43L2155.53 1861.43C2151.73 1866.77 2148.91 1870.6 2147.07 1872.93 2145.22 1875.25 2143.7 1876.97 2142.5 1878.08 2141.3 1879.19 2140.14 1879.97 2139.01 1880.42 2137.88 1880.87 2136.39 1881.09 2134.52 1881.09 2132.84 1881.09 2131.46 1880.88 2130.39 1880.45L2132.54 1870.72 2136.3 1870.72C2136.51 1872.23 2137.14 1872.98 2138.18 1872.98 2138.68 1872.98 2139.21 1872.85 2139.76 1872.58 2140.32 1872.31 2141.11 1871.66 2142.15 1870.64 2143.19 1869.62 2144.62 1868.02 2146.45 1865.84 2148.27 1863.65 2150.92 1860.38 2154.4 1856.01 2153.86 1853.18 2153.31 1850.46 2152.73 1847.84 2152.16 1845.23 2151.57 1842.79 2150.96 1840.54 2150.35 1838.28 2149.85 1836.81 2149.46 1836.11 2149.06 1835.41 2148.64 1834.93 2148.19 1834.66 2147.75 1834.39 2147.18 1834.25 2146.5 1834.25 2145.75 1834.25 2145.07 1834.42 2144.46 1834.76 2143.85 1835.1 2143.19 1835.7 2142.47 1836.54 2141.76 1837.38 2140.81 1838.69 2139.63 1840.48L2136.14 1838.18C2138.39 1834.77 2140.56 1832.23 2142.64 1830.55 2144.71 1828.87 2147.16 1828.02 2149.99 1828.02Z" fill-rule="evenodd"/><text fill="#000000" fill-opacity="0" font-family="Arial,Arial_MSFontService,sans-serif" font-size="53.1201" x="2130.39" y="1874.5">𝑥</text><path d="M2207.23 1849.42 2210.04 1849.42 2203.17 1879.81 2204.26 1879.81C2205.25 1879.81 2206.32 1879.6 2207.47 1879.19 2208.61 1878.77 2209.75 1878.23 2210.88 1877.57 2212.02 1876.9 2213.1 1876.15 2214.15 1875.32 2215.19 1874.49 2216.11 1873.65 2216.9 1872.8 2217.69 1871.96 2218.33 1871.15 2218.79 1870.4 2219.26 1869.64 2219.5 1869.01 2219.5 1868.48 2219.5 1867.86 2219.29 1867.35 2218.87 1866.96 2218.46 1866.57 2217.7 1866.31 2216.61 1866.18L2217.08 1863.68 2231.14 1863.68 2232.11 1866.1C2230.47 1867.51 2228.9 1868.81 2227.39 1870.01 2225.88 1871.21 2224.4 1872.36 2222.95 1873.47 2221.51 1874.57 2220.06 1875.66 2218.62 1876.73 2217.17 1877.79 2215.7 1878.9 2214.18 1880.05 2214.81 1882.03 2215.45 1884.04 2216.1 1886.08 2216.75 1888.13 2217.4 1890.15 2218.05 1892.16 2218.36 1893.22 2218.66 1894.14 2218.93 1894.91 2219.2 1895.68 2219.5 1896.3 2219.81 1896.79 2220.12 1897.27 2220.46 1897.63 2220.83 1897.86 2221.19 1898.09 2221.63 1898.21 2222.15 1898.21 2222.52 1898.21 2222.9 1898.15 2223.29 1898.02 2223.68 1897.89 2224.11 1897.65 2224.59 1897.31 2225.08 1896.97 2225.62 1896.51 2226.24 1895.93 2226.85 1895.34 2227.54 1894.6 2228.33 1893.72L2230.98 1896.26C2229.76 1897.51 2228.62 1898.59 2227.56 1899.5 2226.51 1900.41 2225.51 1901.16 2224.56 1901.75 2223.61 1902.33 2222.69 1902.76 2221.8 1903.04 2220.92 1903.31 2220.02 1903.45 2219.11 1903.45 2217.47 1903.45 2216.14 1903.04 2215.14 1902.22 2214.14 1901.4 2213.29 1900.22 2212.58 1898.7 2211.88 1897.18 2211.24 1895.33 2210.65 1893.17 2210.06 1891.01 2209.38 1888.6 2208.6 1885.95 2208.42 1885.32 2208.24 1884.82 2208.07 1884.44 2207.9 1884.06 2207.69 1883.78 2207.43 1883.58 2207.17 1883.39 2206.84 1883.26 2206.45 1883.21 2206.06 1883.16 2205.56 1883.13 2204.97 1883.13L2202.47 1883.13 2198.17 1902.74 2190.67 1902.74 2200.12 1860.79C2200.43 1859.41 2200.66 1858.32 2200.79 1857.53 2200.92 1856.73 2200.98 1856.02 2200.98 1855.4 2200.98 1854.9 2200.9 1854.47 2200.73 1854.11 2200.56 1853.75 2200.28 1853.45 2199.89 1853.23 2199.5 1853.01 2198.98 1852.85 2198.33 1852.74 2197.67 1852.64 2196.87 1852.57 2195.9 1852.55L2196.49 1849.89Z" fill-rule="evenodd"/><text fill="#000000" fill-opacity="0" font-family="Arial,Arial_MSFontService,sans-serif" font-size="54.0234" x="2190.67" y="1896.69">𝑘</text><path d="M2263.13 1856.34 2269.46 1856.34 2269.46 1876.88 2288.8 1876.88 2288.8 1882.86 2269.46 1882.86 2269.46 1903.41 2263.13 1903.41 2263.13 1882.86 2243.8 1882.86 2243.8 1876.88 2263.13 1876.88Z" fill-rule="evenodd"/><text fill="#000000" fill-opacity="0" font-family="Arial,Arial_MSFontService,sans-serif" font-size="47.0703" x="2243.8" y="1897.52">+</text><path d="M2322 1852.43 2324.38 1852.43C2324.33 1853.86 2324.29 1855.15 2324.27 1856.28 2324.24 1857.41 2324.22 1858.51 2324.21 1859.58 2324.2 1860.65 2324.19 1861.7 2324.19 1862.74L2324.19 1892.43C2324.19 1893.24 2324.21 1893.93 2324.27 1894.52 2324.32 1895.11 2324.4 1895.6 2324.52 1896 2324.64 1896.41 2324.79 1896.75 2324.99 1897.04 2325.18 1897.33 2325.41 1897.57 2325.67 1897.78 2325.99 1898.09 2326.4 1898.34 2326.92 1898.5 2327.44 1898.67 2328.11 1898.82 2328.92 1898.93 2329.72 1899.05 2330.69 1899.14 2331.83 1899.21 2332.96 1899.27 2334.32 1899.32 2335.91 1899.34L2335.91 1902.74 2304.93 1902.74 2304.93 1899.34C2306.47 1899.29 2307.77 1899.23 2308.84 1899.17 2309.9 1899.1 2310.82 1899.01 2311.57 1898.9 2312.33 1898.78 2312.93 1898.65 2313.39 1898.5 2313.84 1898.36 2314.24 1898.19 2314.58 1897.98 2314.94 1897.74 2315.26 1897.49 2315.52 1897.22 2315.78 1896.94 2315.99 1896.6 2316.14 1896.18 2316.3 1895.76 2316.42 1895.26 2316.51 1894.66 2316.6 1894.06 2316.65 1893.32 2316.65 1892.43L2316.65 1864.42C2316.65 1863.41 2316.45 1862.69 2316.06 1862.27 2315.67 1861.86 2315.11 1861.65 2314.38 1861.65 2313.58 1861.65 2312.38 1862.07 2310.79 1862.9 2309.2 1863.73 2307.14 1864.97 2304.62 1866.61 2304.28 1866.01 2303.97 1865.41 2303.68 1864.81 2303.39 1864.21 2303.09 1863.6 2302.78 1862.98 2306.01 1861.21 2309.21 1859.44 2312.37 1857.68 2315.54 1855.93 2318.75 1854.18 2322 1852.43Z" fill-rule="evenodd"/><text fill="#000000" fill-opacity="0" font-family="Arial,Arial_MSFontService,sans-serif" font-size="50.3125" x="2302.78" y="1896.45">1</text><path d="M0 0 0.999672 340" stroke="#000000" stroke-width="3.4375" stroke-linejoin="round" stroke-miterlimit="10" stroke-dasharray="13.75 10.3125" fill="none" fill-rule="evenodd" transform="matrix(1 0 0 -1 2389.5 1768.5)"/><path d="M0 0 847 8.99993" stroke="#000000" stroke-width="3.4375" stroke-linejoin="round" stroke-miterlimit="10" stroke-dasharray="13.75 10.3125" fill="none" fill-rule="evenodd" transform="matrix(-1 0 0 1 2389.5 1427.5)"/><path d="M1212.89 880.43C1215.83 880.43 1218.36 880.67 1220.49 881.149L1218.73 888.786 1214.78 888.786C1214.36 887.078 1213.82 885.851 1213.14 885.102 1212.47 884.353 1211.47 883.979 1210.15 883.979 1208.45 883.979 1207 884.451 1205.82 885.394 1204.64 886.337 1203.63 887.737 1202.79 889.594 1201.95 891.451 1201.17 893.952 1200.45 897.096L1199.33 901.993 1210.87 901.993 1209.88 906.53 1198.29 906.53 1189.94 945.702C1188.56 952.2 1186.45 957.044 1183.61 960.234 1180.76 963.423 1177.18 965.018 1172.87 965.018 1171.61 965.018 1170.62 964.943 1169.9 964.793L1170.67 960.84C1170.97 960.93 1171.67 960.975 1172.78 960.975 1174.13 960.975 1175.28 960.631 1176.24 959.942 1177.2 959.253 1178.09 958.055 1178.91 956.348 1179.73 954.641 1180.49 952.275 1181.18 949.25L1190.84 906.53 1183.25 906.53 1183.92 903.43C1185.93 903.31 1187.37 903.146 1188.25 902.936 1189.14 902.726 1189.83 902.412 1190.32 901.993 1190.82 901.573 1191.23 901.027 1191.58 900.353 1191.92 899.679 1192.36 898.444 1192.9 896.647 1194.49 891.256 1196.94 887.206 1200.25 884.495 1203.56 881.785 1207.77 880.43 1212.89 880.43Z" fill-rule="evenodd"/><text fill="#000000" fill-opacity="0" font-family="Arial,Arial_MSFontService,sans-serif" font-size="84.5879" x="1169.9" y="954.444">𝑓</text><path d="M1258.94 880.026 1260.15 883.485C1253.14 885.791 1247.96 890.29 1244.59 896.984 1241.22 903.677 1239.53 912.085 1239.53 922.207 1239.53 932.689 1241.22 941.329 1244.59 948.127 1247.96 954.925 1253.1 959.478 1260.02 961.784L1258.94 965.243C1250.16 962.937 1243.44 957.973 1238.77 950.351 1234.1 942.729 1231.76 933.498 1231.76 922.657 1231.76 911.845 1234.11 902.614 1238.79 894.962 1243.48 887.311 1250.19 882.332 1258.94 880.026Z" fill-rule="evenodd"/><text fill="#000000" fill-opacity="0" font-family="Arial,Arial_MSFontService,sans-serif" font-size="85.2168" x="1231.76" y="954.59">(</text><path d="M1279.23 901.229C1280.16 901.229 1280.98 901.334 1281.68 901.543 1282.38 901.753 1283.01 902.075 1283.54 902.509 1284.08 902.943 1284.56 903.505 1284.98 904.194 1285.4 904.883 1285.81 905.818 1286.2 907.001 1286.58 908.184 1286.95 909.652 1287.3 911.404 1287.64 913.156 1287.95 914.975 1288.22 916.862L1288.67 916.862C1291.54 912.819 1293.72 909.861 1295.2 907.99 1296.68 906.118 1297.93 904.725 1298.95 903.812 1299.97 902.898 1300.95 902.255 1301.9 901.88 1302.84 901.506 1304.09 901.319 1305.65 901.319 1307.05 901.319 1308.21 901.498 1309.11 901.858L1307.31 909.989 1304.16 909.989C1303.98 908.731 1303.46 908.102 1302.59 908.102 1302.32 908.102 1302.04 908.147 1301.74 908.237 1301.44 908.327 1301.07 908.521 1300.64 908.821 1300.2 909.12 1299.57 909.704 1298.73 910.573 1297.89 911.441 1296.95 912.504 1295.9 913.762 1294.85 915.02 1293.77 916.338 1292.66 917.715L1289.61 921.534C1290.15 924.409 1290.66 926.894 1291.14 928.991 1291.62 931.087 1292.04 932.831 1292.42 934.224 1292.79 935.617 1293.12 936.717 1293.41 937.526 1293.69 938.334 1294 938.941 1294.33 939.345 1294.66 939.749 1294.99 940.034 1295.34 940.199 1295.68 940.363 1296.08 940.446 1296.53 940.446 1297.34 940.446 1298.12 940.131 1298.89 939.502 1299.65 938.873 1300.75 937.451 1302.19 935.235L1305.11 937.166C1303.01 940.281 1301.12 942.475 1299.42 943.747 1297.73 945.02 1295.72 945.657 1293.38 945.657 1292.1 945.657 1291 945.424 1290.1 944.96 1289.21 944.496 1288.43 943.755 1287.77 942.737 1287.11 941.718 1286.52 940.131 1286.02 937.975 1285.09 934.142 1284.52 931.207 1284.31 929.17L1283.86 929.17C1280.68 933.633 1278.33 936.837 1276.78 938.784 1275.24 940.73 1273.97 942.168 1272.97 943.096 1271.96 944.024 1270.99 944.676 1270.05 945.05 1269.1 945.424 1267.85 945.612 1266.29 945.612 1264.89 945.612 1263.73 945.432 1262.84 945.073L1264.63 936.942 1267.78 936.942C1267.96 938.2 1268.48 938.828 1269.35 938.828 1269.77 938.828 1270.21 938.716 1270.67 938.492 1271.14 938.267 1271.81 937.728 1272.67 936.874 1273.54 936.021 1274.74 934.681 1276.27 932.854 1277.79 931.027 1280.01 928.287 1282.92 924.633 1282.47 922.267 1282 919.991 1281.52 917.805 1281.04 915.619 1280.55 913.582 1280.04 911.696 1279.53 909.809 1279.11 908.574 1278.78 907.99 1278.45 907.406 1278.1 907.001 1277.73 906.777 1277.35 906.552 1276.88 906.44 1276.31 906.44 1275.68 906.44 1275.11 906.582 1274.61 906.867 1274.1 907.151 1273.54 907.645 1272.94 908.349 1272.34 909.053 1271.55 910.153 1270.56 911.651L1267.64 909.719C1269.53 906.874 1271.34 904.748 1273.08 903.34 1274.82 901.933 1276.87 901.229 1279.23 901.229Z" fill-rule="evenodd"/><text fill="#000000" fill-opacity="0" font-family="Arial,Arial_MSFontService,sans-serif" font-size="44.4277" x="1262.84" y="940.103">𝑥</text><path d="M1326.96 918.982 1329.31 918.982 1323.56 944.434 1324.47 944.434C1325.3 944.434 1326.2 944.26 1327.15 943.911 1328.11 943.562 1329.07 943.109 1330.02 942.553 1330.97 941.997 1331.88 941.37 1332.75 940.672 1333.62 939.974 1334.39 939.271 1335.06 938.562 1335.72 937.853 1336.25 937.182 1336.64 936.55 1337.03 935.917 1337.23 935.383 1337.23 934.947 1337.23 934.423 1337.06 933.998 1336.71 933.671 1336.36 933.344 1335.73 933.126 1334.81 933.017L1335.2 930.923 1346.98 930.923 1347.8 932.951C1346.42 934.129 1345.1 935.22 1343.84 936.223 1342.57 937.226 1341.34 938.191 1340.13 939.118 1338.92 940.045 1337.71 940.956 1336.49 941.85 1335.28 942.744 1334.05 943.671 1332.78 944.63 1333.31 946.288 1333.84 947.973 1334.38 949.685 1334.93 951.397 1335.48 953.093 1336.02 954.772 1336.28 955.666 1336.53 956.435 1336.76 957.078 1336.99 957.722 1337.23 958.245 1337.49 958.649 1337.75 959.052 1338.04 959.352 1338.34 959.548 1338.65 959.745 1339.02 959.843 1339.46 959.843 1339.76 959.843 1340.08 959.788 1340.4 959.679 1340.73 959.57 1341.1 959.374 1341.5 959.09 1341.9 958.807 1342.36 958.42 1342.87 957.929 1343.39 957.438 1343.97 956.822 1344.62 956.081L1346.85 958.207C1345.82 959.254 1344.87 960.159 1343.99 960.922 1343.1 961.686 1342.26 962.313 1341.47 962.804 1340.67 963.294 1339.9 963.654 1339.16 963.883 1338.42 964.112 1337.67 964.227 1336.9 964.227 1335.53 964.227 1334.42 963.883 1333.58 963.196 1332.74 962.509 1332.03 961.528 1331.44 960.252 1330.85 958.976 1330.31 957.433 1329.82 955.623 1329.33 953.812 1328.76 951.795 1328.1 949.57 1327.95 949.047 1327.8 948.627 1327.66 948.311 1327.52 947.995 1327.34 947.755 1327.12 947.591 1326.9 947.428 1326.63 947.324 1326.3 947.28 1325.98 947.237 1325.56 947.215 1325.06 947.215L1322.97 947.215 1319.37 963.638 1313.09 963.638 1321 928.502C1321.27 927.346 1321.45 926.436 1321.56 925.77 1321.67 925.105 1321.72 924.511 1321.72 923.987 1321.72 923.573 1321.65 923.213 1321.51 922.908 1321.37 922.602 1321.14 922.357 1320.81 922.172 1320.48 921.986 1320.04 921.85 1319.5 921.763 1318.95 921.676 1318.28 921.621 1317.47 921.599L1317.96 919.375Z" fill-rule="evenodd"/><text fill="#000000" fill-opacity="0" font-family="Arial,Arial_MSFontService,sans-serif" font-size="45.2446" x="1313.09" y="958.571">𝑘</text><path d="M1357.47 941.981 1395.16 941.981 1395.16 946.986 1357.47 946.986Z" fill-rule="evenodd"/><text fill="#000000" fill-opacity="0" font-family="Arial,Arial_MSFontService,sans-serif" font-size="5.00537" x="1357.47" y="946.36">−</text><path d="M1422.72 921.501 1424.72 921.501C1424.67 922.701 1424.64 923.775 1424.62 924.724 1424.6 925.672 1424.58 926.594 1424.57 927.488 1424.56 928.382 1424.55 929.265 1424.55 930.138L1424.55 955.001C1424.55 955.677 1424.57 956.261 1424.62 956.751 1424.66 957.242 1424.73 957.656 1424.83 957.995 1424.93 958.333 1425.06 958.622 1425.22 958.861 1425.39 959.101 1425.58 959.309 1425.8 959.483 1426.06 959.745 1426.41 959.946 1426.84 960.088 1427.28 960.23 1427.84 960.35 1428.51 960.448 1429.19 960.546 1430 960.623 1430.95 960.677 1431.9 960.732 1433.04 960.77 1434.37 960.792L1434.37 963.638 1408.42 963.638 1408.42 960.792C1409.71 960.748 1410.8 960.699 1411.7 960.644 1412.59 960.59 1413.35 960.514 1413.99 960.415 1414.62 960.317 1415.13 960.208 1415.51 960.088 1415.89 959.968 1416.22 959.821 1416.51 959.647 1416.81 959.45 1417.07 959.238 1417.29 959.009 1417.51 958.78 1417.68 958.491 1417.81 958.142 1417.94 957.793 1418.05 957.367 1418.12 956.866 1418.2 956.364 1418.24 955.743 1418.24 955.001L1418.24 931.545C1418.24 930.694 1418.08 930.094 1417.75 929.745 1417.42 929.396 1416.95 929.222 1416.34 929.222 1415.67 929.222 1414.66 929.571 1413.33 930.269 1412 930.967 1410.28 932.003 1408.16 933.377 1407.88 932.875 1407.62 932.373 1407.38 931.872 1407.14 931.37 1406.89 930.858 1406.63 930.334 1409.33 928.851 1412.01 927.373 1414.66 925.901 1417.31 924.429 1419.99 922.962 1422.72 921.501Z" fill-rule="evenodd"/><text fill="#000000" fill-opacity="0" font-family="Arial,Arial_MSFontService,sans-serif" font-size="42.1367" x="1406.63" y="958.371">1</text><path d="M1446.32 880.026C1455.07 882.332 1461.78 887.311 1466.47 894.962 1471.16 902.614 1473.5 911.845 1473.5 922.657 1473.5 933.498 1471.16 942.729 1466.49 950.351 1461.82 957.973 1455.1 962.937 1446.32 965.243L1445.24 961.784C1452.16 959.478 1457.3 954.925 1460.67 948.127 1464.04 941.329 1465.73 932.689 1465.73 922.207 1465.73 912.085 1464.05 903.677 1460.7 896.984 1457.34 890.29 1452.15 885.791 1445.11 883.485Z" fill-rule="evenodd"/><text fill="#000000" fill-opacity="0" font-family="Arial,Arial_MSFontService,sans-serif" font-size="85.2168" x="1445.11" y="954.59">)</text><path d="M1300.19 1400.39C1303.12 1400.39 1305.65 1400.63 1307.78 1401.11L1306.03 1408.75 1302.07 1408.75C1301.66 1407.04 1301.11 1405.81 1300.44 1405.06 1299.76 1404.31 1298.77 1403.94 1297.45 1403.94 1295.74 1403.94 1294.3 1404.41 1293.11 1405.35 1291.93 1406.3 1290.92 1407.7 1290.08 1409.55 1289.24 1411.41 1288.46 1413.91 1287.74 1417.06L1286.62 1421.95 1298.17 1421.95 1297.18 1426.49 1285.59 1426.49 1277.23 1465.66C1275.86 1472.16 1273.74 1477 1270.9 1480.19 1268.05 1483.38 1264.48 1484.98 1260.16 1484.98 1258.9 1484.98 1257.92 1484.9 1257.2 1484.75L1257.96 1480.8C1258.26 1480.89 1258.96 1480.93 1260.07 1480.93 1261.42 1480.93 1262.57 1480.59 1263.53 1479.9 1264.49 1479.21 1265.38 1478.02 1266.2 1476.31 1267.03 1474.6 1267.78 1472.24 1268.47 1469.21L1278.13 1426.49 1270.54 1426.49 1271.21 1423.39C1273.22 1423.27 1274.67 1423.11 1275.55 1422.9 1276.43 1422.69 1277.12 1422.37 1277.61 1421.95 1278.11 1421.53 1278.53 1420.99 1278.87 1420.31 1279.22 1419.64 1279.66 1418.4 1280.2 1416.61 1281.79 1411.22 1284.23 1407.17 1287.54 1404.46 1290.85 1401.75 1295.07 1400.39 1300.19 1400.39Z" fill-rule="evenodd"/><text fill="#000000" fill-opacity="0" font-family="Arial,Arial_MSFontService,sans-serif" font-size="84.5879" x="1257.2" y="1474.4">𝑓</text><path d="M1346.23 1399.99 1347.45 1403.44C1340.44 1405.75 1335.25 1410.25 1331.88 1416.94 1328.51 1423.64 1326.83 1432.04 1326.83 1442.17 1326.83 1452.65 1328.51 1461.29 1331.88 1468.09 1335.25 1474.89 1340.39 1479.44 1347.31 1481.74L1346.23 1485.2C1337.46 1482.9 1330.74 1477.93 1326.06 1470.31 1321.39 1462.69 1319.06 1453.46 1319.06 1442.62 1319.06 1431.81 1321.4 1422.57 1326.09 1414.92 1330.77 1407.27 1337.49 1402.29 1346.23 1399.99Z" fill-rule="evenodd"/><text fill="#000000" fill-opacity="0" font-family="Arial,Arial_MSFontService,sans-serif" font-size="85.2168" x="1319.06" y="1474.55">(</text><path d="M1366.53 1421.19C1367.45 1421.19 1368.27 1421.29 1368.97 1421.5 1369.68 1421.71 1370.3 1422.03 1370.84 1422.47 1371.38 1422.9 1371.86 1423.46 1372.28 1424.15 1372.7 1424.84 1373.1 1425.78 1373.49 1426.96 1373.88 1428.14 1374.25 1429.61 1374.59 1431.36 1374.93 1433.12 1375.24 1434.93 1375.51 1436.82L1375.96 1436.82C1378.83 1432.78 1381.01 1429.82 1382.5 1427.95 1383.98 1426.08 1385.23 1424.69 1386.25 1423.77 1387.27 1422.86 1388.25 1422.21 1389.19 1421.84 1390.13 1421.47 1391.38 1421.28 1392.94 1421.28 1394.35 1421.28 1395.5 1421.46 1396.4 1421.82L1394.6 1429.95 1391.46 1429.95C1391.28 1428.69 1390.75 1428.06 1389.89 1428.06 1389.62 1428.06 1389.33 1428.11 1389.03 1428.2 1388.73 1428.29 1388.37 1428.48 1387.93 1428.78 1387.5 1429.08 1386.86 1429.66 1386.02 1430.53 1385.18 1431.4 1384.24 1432.46 1383.19 1433.72 1382.14 1434.98 1381.07 1436.3 1379.96 1437.68L1376.9 1441.49C1377.44 1444.37 1377.95 1446.85 1378.43 1448.95 1378.91 1451.05 1379.34 1452.79 1379.71 1454.18 1380.09 1455.58 1380.41 1456.68 1380.7 1457.49 1380.98 1458.29 1381.29 1458.9 1381.62 1459.31 1381.95 1459.71 1382.29 1459.99 1382.63 1460.16 1382.98 1460.32 1383.37 1460.41 1383.82 1460.41 1384.63 1460.41 1385.42 1460.09 1386.18 1459.46 1386.94 1458.83 1388.04 1457.41 1389.48 1455.19L1392.4 1457.13C1390.31 1460.24 1388.41 1462.43 1386.72 1463.71 1385.03 1464.98 1383.01 1465.62 1380.68 1465.62 1379.39 1465.62 1378.3 1465.38 1377.4 1464.92 1376.5 1464.46 1375.72 1463.71 1375.06 1462.7 1374.4 1461.68 1373.82 1460.09 1373.31 1457.93 1372.38 1454.1 1371.81 1451.17 1371.6 1449.13L1371.15 1449.13C1367.98 1453.59 1365.62 1456.8 1364.08 1458.74 1362.54 1460.69 1361.26 1462.13 1360.26 1463.06 1359.26 1463.98 1358.28 1464.64 1357.34 1465.01 1356.4 1465.38 1355.15 1465.57 1353.59 1465.57 1352.18 1465.57 1351.03 1465.39 1350.13 1465.03L1351.93 1456.9 1355.07 1456.9C1355.25 1458.16 1355.78 1458.79 1356.64 1458.79 1357.06 1458.79 1357.5 1458.68 1357.97 1458.45 1358.43 1458.23 1359.1 1457.69 1359.97 1456.83 1360.84 1455.98 1362.03 1454.64 1363.56 1452.81 1365.09 1450.99 1367.31 1448.25 1370.21 1444.59 1369.76 1442.23 1369.3 1439.95 1368.82 1437.77 1368.34 1435.58 1367.84 1433.54 1367.33 1431.66 1366.83 1429.77 1366.41 1428.53 1366.08 1427.95 1365.75 1427.37 1365.4 1426.96 1365.02 1426.74 1364.65 1426.51 1364.18 1426.4 1363.61 1426.4 1362.98 1426.4 1362.41 1426.54 1361.9 1426.83 1361.39 1427.11 1360.84 1427.61 1360.24 1428.31 1359.64 1429.01 1358.84 1430.11 1357.86 1431.61L1354.94 1429.68C1356.82 1426.83 1358.64 1424.71 1360.37 1423.3 1362.11 1421.89 1364.16 1421.19 1366.53 1421.19Z" fill-rule="evenodd"/><text fill="#000000" fill-opacity="0" font-family="Arial,Arial_MSFontService,sans-serif" font-size="44.4277" x="1350.13" y="1460.06">𝑥</text><path d="M1414.25 1438.94 1416.61 1438.94 1410.85 1464.39 1411.77 1464.39C1412.59 1464.39 1413.49 1464.22 1414.45 1463.87 1415.41 1463.52 1416.36 1463.07 1417.31 1462.51 1418.26 1461.96 1419.17 1461.33 1420.04 1460.63 1420.92 1459.93 1421.68 1459.23 1422.35 1458.52 1423.01 1457.81 1423.54 1457.14 1423.94 1456.51 1424.33 1455.88 1424.52 1455.34 1424.52 1454.91 1424.52 1454.38 1424.35 1453.96 1424 1453.63 1423.65 1453.3 1423.02 1453.09 1422.1 1452.98L1422.5 1450.88 1434.27 1450.88 1435.09 1452.91C1433.72 1454.09 1432.4 1455.18 1431.13 1456.18 1429.87 1457.19 1428.63 1458.15 1427.42 1459.08 1426.21 1460.01 1425 1460.92 1423.79 1461.81 1422.58 1462.7 1421.34 1463.63 1420.08 1464.59 1420.6 1466.25 1421.13 1467.93 1421.68 1469.65 1422.22 1471.36 1422.77 1473.05 1423.31 1474.73 1423.58 1475.63 1423.82 1476.4 1424.05 1477.04 1424.28 1477.68 1424.52 1478.21 1424.79 1478.61 1425.05 1479.01 1425.33 1479.31 1425.64 1479.51 1425.94 1479.7 1426.31 1479.8 1426.75 1479.8 1427.05 1479.8 1427.37 1479.75 1427.7 1479.64 1428.03 1479.53 1428.39 1479.33 1428.79 1479.05 1429.2 1478.77 1429.66 1478.38 1430.17 1477.89 1430.68 1477.4 1431.26 1476.78 1431.92 1476.04L1434.14 1478.17C1433.12 1479.21 1432.16 1480.12 1431.28 1480.88 1430.4 1481.65 1429.56 1482.27 1428.76 1482.76 1427.97 1483.25 1427.2 1483.61 1426.45 1483.84 1425.71 1484.07 1424.96 1484.19 1424.2 1484.19 1422.82 1484.19 1421.72 1483.84 1420.88 1483.16 1420.04 1482.47 1419.32 1481.49 1418.73 1480.21 1418.15 1478.94 1417.61 1477.39 1417.11 1475.58 1416.62 1473.77 1416.05 1471.76 1415.4 1469.53 1415.24 1469.01 1415.1 1468.59 1414.96 1468.27 1414.81 1467.95 1414.63 1467.71 1414.42 1467.55 1414.2 1467.39 1413.93 1467.28 1413.6 1467.24 1413.27 1467.2 1412.86 1467.18 1412.35 1467.18L1410.26 1467.18 1406.66 1483.6 1400.38 1483.6 1408.3 1448.46C1408.56 1447.31 1408.75 1446.4 1408.85 1445.73 1408.96 1445.07 1409.02 1444.47 1409.02 1443.95 1409.02 1443.53 1408.95 1443.17 1408.81 1442.87 1408.66 1442.56 1408.43 1442.32 1408.1 1442.13 1407.77 1441.95 1407.34 1441.81 1406.79 1441.72 1406.25 1441.64 1405.57 1441.58 1404.77 1441.56L1405.26 1439.33Z" fill-rule="evenodd"/><text fill="#000000" fill-opacity="0" font-family="Arial,Arial_MSFontService,sans-serif" font-size="45.2446" x="1400.38" y="1478.53">𝑘</text><path d="M1445.96 1399.99C1454.7 1402.29 1461.42 1407.27 1466.11 1414.92 1470.79 1422.57 1473.14 1431.81 1473.14 1442.62 1473.14 1453.46 1470.8 1462.69 1466.13 1470.31 1461.46 1477.93 1454.73 1482.9 1445.96 1485.2L1444.88 1481.74C1451.8 1479.44 1456.94 1474.89 1460.31 1468.09 1463.68 1461.29 1465.36 1452.65 1465.36 1442.17 1465.36 1432.04 1463.69 1423.64 1460.33 1416.94 1456.98 1410.25 1451.78 1405.75 1444.75 1403.44Z" fill-rule="evenodd"/><text fill="#000000" fill-opacity="0" font-family="Arial,Arial_MSFontService,sans-serif" font-size="85.2168" x="1444.75" y="1474.55">)</text><path d="M0 0 1252 8.99993" stroke="#000000" stroke-width="3.4375" stroke-linejoin="round" stroke-miterlimit="10" stroke-dasharray="13.75 10.3125" fill="none" fill-rule="evenodd" transform="matrix(-1 0 0 1 2791.5 907.5)"/><path d="M2771.9 1828.02C2773.01 1828.02 2773.99 1828.15 2774.83 1828.4 2775.67 1828.65 2776.41 1829.04 2777.06 1829.55 2777.7 1830.07 2778.28 1830.74 2778.78 1831.57 2779.28 1832.39 2779.76 1833.51 2780.23 1834.93 2780.69 1836.34 2781.13 1838.09 2781.54 1840.19 2781.96 1842.28 2782.32 1844.46 2782.65 1846.72L2783.18 1846.72C2786.62 1841.88 2789.22 1838.35 2791 1836.11 2792.77 1833.87 2794.26 1832.2 2795.48 1831.11 2796.7 1830.02 2797.87 1829.25 2799 1828.8 2800.13 1828.35 2801.62 1828.13 2803.49 1828.13 2805.17 1828.13 2806.55 1828.35 2807.62 1828.78L2805.47 1838.5 2801.71 1838.5C2801.5 1836.99 2800.87 1836.24 2799.83 1836.24 2799.51 1836.24 2799.17 1836.3 2798.81 1836.4 2798.45 1836.51 2798.02 1836.74 2797.5 1837.1 2796.98 1837.46 2796.22 1838.16 2795.21 1839.2 2794.21 1840.23 2793.08 1841.51 2791.83 1843.01 2790.58 1844.51 2789.29 1846.09 2787.96 1847.74L2784.31 1852.3C2784.95 1855.74 2785.56 1858.71 2786.14 1861.22 2786.71 1863.72 2787.22 1865.81 2787.67 1867.47 2788.11 1869.14 2788.51 1870.46 2788.85 1871.42 2789.19 1872.39 2789.56 1873.11 2789.95 1873.6 2790.34 1874.08 2790.75 1874.42 2791.16 1874.62 2791.57 1874.81 2792.04 1874.91 2792.58 1874.91 2793.55 1874.91 2794.49 1874.54 2795.4 1873.79 2796.31 1873.03 2797.63 1871.33 2799.35 1868.68L2802.84 1870.99C2800.33 1874.72 2798.07 1877.34 2796.05 1878.86 2794.02 1880.38 2791.61 1881.14 2788.82 1881.14 2787.28 1881.14 2785.98 1880.87 2784.9 1880.31 2783.83 1879.76 2782.9 1878.87 2782.11 1877.65 2781.32 1876.44 2780.62 1874.54 2780.01 1871.96 2778.9 1867.38 2778.22 1863.87 2777.97 1861.43L2777.44 1861.43C2773.64 1866.77 2770.82 1870.6 2768.98 1872.93 2767.13 1875.25 2765.61 1876.97 2764.41 1878.08 2763.21 1879.19 2762.05 1879.97 2760.92 1880.42 2759.79 1880.87 2758.3 1881.09 2756.43 1881.09 2754.75 1881.09 2753.37 1880.88 2752.3 1880.45L2754.45 1870.72 2758.21 1870.72C2758.42 1872.23 2759.05 1872.98 2760.09 1872.98 2760.59 1872.98 2761.12 1872.85 2761.67 1872.58 2762.23 1872.31 2763.02 1871.66 2764.06 1870.64 2765.1 1869.62 2766.53 1868.02 2768.36 1865.84 2770.18 1863.65 2772.83 1860.38 2776.31 1856.01 2775.77 1853.18 2775.22 1850.46 2774.64 1847.84 2774.07 1845.23 2773.48 1842.79 2772.87 1840.54 2772.26 1838.28 2771.76 1836.81 2771.37 1836.11 2770.97 1835.41 2770.55 1834.93 2770.1 1834.66 2769.66 1834.39 2769.09 1834.25 2768.41 1834.25 2767.66 1834.25 2766.98 1834.42 2766.37 1834.76 2765.76 1835.1 2765.1 1835.7 2764.38 1836.54 2763.67 1837.38 2762.72 1838.69 2761.54 1840.48L2758.05 1838.18C2760.3 1834.77 2762.47 1832.23 2764.54 1830.55 2766.62 1828.87 2769.07 1828.02 2771.9 1828.02Z" fill-rule="evenodd"/><text fill="#000000" fill-opacity="0" font-family="Arial,Arial_MSFontService,sans-serif" font-size="53.1201" x="2752.3" y="1874.5">𝑥</text><path d="M2829.14 1849.42 2831.95 1849.42 2825.08 1879.81 2826.17 1879.81C2827.16 1879.81 2828.23 1879.6 2829.38 1879.19 2830.52 1878.77 2831.66 1878.23 2832.79 1877.57 2833.93 1876.9 2835.01 1876.15 2836.06 1875.32 2837.1 1874.49 2838.02 1873.65 2838.81 1872.8 2839.6 1871.96 2840.24 1871.15 2840.7 1870.4 2841.17 1869.64 2841.41 1869.01 2841.41 1868.48 2841.41 1867.86 2841.2 1867.35 2840.78 1866.96 2840.37 1866.57 2839.61 1866.31 2838.52 1866.18L2838.99 1863.68 2853.05 1863.68 2854.02 1866.1C2852.38 1867.51 2850.81 1868.81 2849.3 1870.01 2847.79 1871.21 2846.31 1872.36 2844.86 1873.47 2843.42 1874.57 2841.97 1875.66 2840.53 1876.73 2839.08 1877.79 2837.6 1878.9 2836.09 1880.05 2836.72 1882.03 2837.36 1884.04 2838.01 1886.08 2838.66 1888.13 2839.31 1890.15 2839.96 1892.16 2840.27 1893.22 2840.57 1894.14 2840.84 1894.91 2841.11 1895.68 2841.41 1896.3 2841.72 1896.79 2842.03 1897.27 2842.37 1897.63 2842.74 1897.86 2843.1 1898.09 2843.54 1898.21 2844.06 1898.21 2844.43 1898.21 2844.81 1898.15 2845.2 1898.02 2845.59 1897.89 2846.02 1897.65 2846.5 1897.31 2846.99 1896.97 2847.53 1896.51 2848.15 1895.93 2848.76 1895.34 2849.45 1894.6 2850.24 1893.72L2852.89 1896.26C2851.67 1897.51 2850.53 1898.59 2849.47 1899.5 2848.42 1900.41 2847.42 1901.16 2846.47 1901.75 2845.52 1902.33 2844.6 1902.76 2843.71 1903.04 2842.83 1903.31 2841.93 1903.45 2841.02 1903.45 2839.38 1903.45 2838.05 1903.04 2837.05 1902.22 2836.05 1901.4 2835.2 1900.22 2834.49 1898.7 2833.79 1897.18 2833.15 1895.33 2832.56 1893.17 2831.97 1891.01 2831.29 1888.6 2830.51 1885.95 2830.33 1885.32 2830.15 1884.82 2829.98 1884.44 2829.81 1884.06 2829.6 1883.78 2829.34 1883.58 2829.08 1883.39 2828.75 1883.26 2828.36 1883.21 2827.97 1883.16 2827.47 1883.13 2826.88 1883.13L2824.38 1883.13 2820.08 1902.74 2812.58 1902.74 2822.03 1860.79C2822.34 1859.41 2822.57 1858.32 2822.7 1857.53 2822.83 1856.73 2822.89 1856.02 2822.89 1855.4 2822.89 1854.9 2822.81 1854.47 2822.64 1854.11 2822.47 1853.75 2822.19 1853.45 2821.8 1853.23 2821.41 1853.01 2820.89 1852.85 2820.24 1852.74 2819.58 1852.64 2818.78 1852.57 2817.81 1852.55L2818.4 1849.89Z" fill-rule="evenodd"/><text fill="#000000" fill-opacity="0" font-family="Arial,Arial_MSFontService,sans-serif" font-size="54.0234" x="2812.58" y="1896.69">𝑘</text><path d="M2865.71 1876.88 2910.71 1876.88 2910.71 1882.86 2865.71 1882.86Z" fill-rule="evenodd"/><text fill="#000000" fill-opacity="0" font-family="Arial,Arial_MSFontService,sans-serif" font-size="5.97656" x="2865.71" y="1882.11">−</text><path d="M2943.91 1852.43 2946.29 1852.43C2946.24 1853.86 2946.2 1855.15 2946.18 1856.28 2946.15 1857.41 2946.13 1858.51 2946.12 1859.58 2946.1 1860.65 2946.1 1861.7 2946.1 1862.74L2946.1 1892.43C2946.1 1893.24 2946.12 1893.93 2946.18 1894.52 2946.23 1895.11 2946.31 1895.6 2946.43 1896 2946.55 1896.41 2946.7 1896.75 2946.9 1897.04 2947.09 1897.33 2947.32 1897.57 2947.58 1897.78 2947.9 1898.09 2948.31 1898.34 2948.83 1898.5 2949.35 1898.67 2950.02 1898.82 2950.82 1898.93 2951.63 1899.05 2952.6 1899.14 2953.73 1899.21 2954.87 1899.27 2956.23 1899.32 2957.82 1899.34L2957.82 1902.74 2926.84 1902.74 2926.84 1899.34C2928.38 1899.29 2929.68 1899.23 2930.75 1899.17 2931.81 1899.1 2932.73 1899.01 2933.48 1898.9 2934.24 1898.78 2934.84 1898.65 2935.3 1898.5 2935.75 1898.36 2936.15 1898.19 2936.49 1897.98 2936.85 1897.74 2937.17 1897.49 2937.43 1897.22 2937.69 1896.94 2937.9 1896.6 2938.05 1896.18 2938.21 1895.76 2938.33 1895.26 2938.42 1894.66 2938.51 1894.06 2938.56 1893.32 2938.56 1892.43L2938.56 1864.42C2938.56 1863.41 2938.36 1862.69 2937.97 1862.27 2937.58 1861.86 2937.02 1861.65 2936.29 1861.65 2935.49 1861.65 2934.29 1862.07 2932.7 1862.9 2931.11 1863.73 2929.05 1864.97 2926.53 1866.61 2926.19 1866.01 2925.88 1865.41 2925.59 1864.81 2925.3 1864.21 2925 1863.6 2924.69 1862.98 2927.92 1861.21 2931.12 1859.44 2934.28 1857.68 2937.45 1855.93 2940.66 1854.18 2943.91 1852.43Z" fill-rule="evenodd"/><text fill="#000000" fill-opacity="0" font-family="Arial,Arial_MSFontService,sans-serif" font-size="50.3125" x="2924.69" y="1896.45">1</text><path d="M0 0 0.000360892 865" stroke="#000000" stroke-width="3.4375" stroke-linejoin="round" stroke-miterlimit="10" stroke-dasharray="13.75 10.3125" fill="none" fill-rule="evenodd" transform="matrix(1 0 0 -1 2794.5 1768.5)"/></g></svg>
