<svg width="1892" height="1969" xmlns="http://www.w3.org/2000/svg" xmlns:xlink="http://www.w3.org/1999/xlink" overflow="hidden"><defs><clipPath id="clip0"><rect x="1675" y="355" width="1892" height="1969"/></clipPath></defs><g clip-path="url(#clip0)" transform="translate(-1675 -355)"><path d="M2021.5 395.001C2021.5 377.051 2036.05 362.5 2054 362.5L2606 362.5C2623.95 362.5 2638.5 377.051 2638.5 395.001L2638.5 525C2638.5 542.949 2623.95 557.5 2606 557.5L2054 557.5C2036.05 557.5 2021.5 542.949 2021.5 525Z" stroke="#000000" stroke-width="6.875" stroke-linejoin="round" stroke-miterlimit="10" fill="none" fill-rule="evenodd"/><text font-family="MS PGothic,MS PGothic_MSFontService,sans-serif" font-weight="400" font-size="110" transform="matrix(1 0 0 1 2219.89 501)">開始</text><rect x="1973.5" y="671.5" width="714" height="211" stroke="#000000" stroke-width="6.875" stroke-miterlimit="8" fill="none"/><path d="M1851.5 1454.5 2330.5 1316.5 2809.5 1454.5 2330.5 1592.5Z" stroke="#000000" stroke-width="6.875" stroke-miterlimit="8" fill="none" fill-rule="evenodd"/><rect x="1745.5" y="1013.5" width="1170" height="200" stroke="#000000" stroke-width="6.875" stroke-miterlimit="8" fill="none"/><rect x="1964.5" y="1721.5" width="731" height="329" stroke="#000000" stroke-width="6.875" stroke-miterlimit="8" fill="none"/><path d="M2890.5 1941.5 3043.35 1738.5 3559.5 1738.5 3406.65 1941.5Z" stroke="#000000" stroke-width="6.875" stroke-miterlimit="8" fill="none" fill-rule="evenodd"/><path d="M3032.37 1828.94C3033.48 1828.94 3034.45 1829.07 3035.29 1829.32 3036.14 1829.57 3036.88 1829.96 3037.52 1830.48 3038.17 1830.99 3038.74 1831.67 3039.24 1832.49 3039.74 1833.31 3040.23 1834.43 3040.69 1835.85 3041.16 1837.26 3041.6 1839.02 3042.01 1841.11 3042.42 1843.2 3042.79 1845.38 3043.11 1847.64L3043.65 1847.64C3047.08 1842.8 3049.69 1839.27 3051.46 1837.03 3053.23 1834.79 3054.73 1833.12 3055.95 1832.03 3057.16 1830.94 3058.34 1830.17 3059.46 1829.72 3060.59 1829.28 3062.09 1829.05 3063.95 1829.05 3065.63 1829.05 3067.01 1829.27 3068.08 1829.7L3065.94 1839.42 3062.18 1839.42C3061.96 1837.91 3061.33 1837.16 3060.3 1837.16 3059.97 1837.16 3059.63 1837.22 3059.28 1837.32 3058.92 1837.43 3058.48 1837.66 3057.96 1838.02 3057.44 1838.38 3056.68 1839.08 3055.68 1840.12 3054.67 1841.15 3053.55 1842.43 3052.29 1843.93 3051.04 1845.43 3049.75 1847.01 3048.43 1848.66L3044.77 1853.22C3045.42 1856.66 3046.03 1859.63 3046.6 1862.14 3047.17 1864.64 3047.68 1866.73 3048.13 1868.4 3048.58 1870.06 3048.97 1871.38 3049.31 1872.34 3049.65 1873.31 3050.02 1874.03 3050.41 1874.52 3050.81 1875 3051.21 1875.34 3051.62 1875.54 3052.03 1875.74 3052.51 1875.83 3053.05 1875.83 3054.01 1875.83 3054.95 1875.46 3055.87 1874.71 3056.78 1873.95 3058.09 1872.25 3059.81 1869.6L3063.3 1871.91C3060.8 1875.64 3058.53 1878.26 3056.51 1879.78 3054.49 1881.3 3052.08 1882.06 3049.29 1882.06 3047.75 1882.06 3046.44 1881.79 3045.36 1881.23 3044.29 1880.68 3043.36 1879.79 3042.57 1878.57 3041.78 1877.36 3041.09 1875.46 3040.48 1872.88 3039.37 1868.3 3038.69 1864.79 3038.44 1862.35L3037.9 1862.35C3034.1 1867.69 3031.28 1871.52 3029.44 1873.85 3027.6 1876.17 3026.07 1877.89 3024.87 1879 3023.67 1880.11 3022.51 1880.89 3021.38 1881.34 3020.25 1881.79 3018.76 1882.01 3016.9 1882.01 3015.22 1882.01 3013.84 1881.8 3012.76 1881.37L3014.91 1871.64 3018.67 1871.64C3018.89 1873.15 3019.51 1873.9 3020.55 1873.9 3021.05 1873.9 3021.58 1873.77 3022.13 1873.5 3022.69 1873.23 3023.49 1872.58 3024.52 1871.56 3025.56 1870.54 3027 1868.94 3028.82 1866.76 3030.65 1864.57 3033.3 1861.3 3036.77 1856.93 3036.23 1854.1 3035.68 1851.38 3035.11 1848.76 3034.53 1846.15 3033.94 1843.71 3033.33 1841.46 3032.72 1839.2 3032.22 1837.73 3031.83 1837.03 3031.44 1836.33 3031.01 1835.85 3030.57 1835.58 3030.12 1835.31 3029.56 1835.17 3028.88 1835.17 3028.12 1835.17 3027.44 1835.34 3026.83 1835.69 3026.23 1836.03 3025.56 1836.62 3024.85 1837.46 3024.13 1838.3 3023.18 1839.61 3022 1841.41L3018.51 1839.1C3020.77 1835.69 3022.93 1833.15 3025.01 1831.47 3027.09 1829.79 3029.54 1828.94 3032.37 1828.94Z" fill-rule="evenodd"/><text fill="#000000" fill-opacity="0" font-family="Arial,Arial_MSFontService,sans-serif" font-size="53.1201" x="3012.76" y="1875.42">𝑥</text><path d="M3089.6 1850.34 3092.42 1850.34 3085.54 1880.73 3086.64 1880.73C3087.63 1880.73 3088.69 1880.53 3089.84 1880.11 3090.99 1879.69 3092.12 1879.15 3093.26 1878.49 3094.39 1877.82 3095.48 1877.07 3096.52 1876.24 3097.56 1875.41 3098.48 1874.57 3099.27 1873.72 3100.07 1872.88 3100.7 1872.07 3101.17 1871.32 3101.64 1870.56 3101.87 1869.93 3101.87 1869.41 3101.87 1868.78 3101.66 1868.27 3101.25 1867.88 3100.83 1867.49 3100.07 1867.23 3098.98 1867.1L3099.45 1864.6 3113.51 1864.6 3114.49 1867.02C3112.85 1868.43 3111.27 1869.73 3109.76 1870.93 3108.25 1872.13 3106.77 1873.28 3105.33 1874.39 3103.88 1875.49 3102.44 1876.58 3100.99 1877.65 3099.55 1878.72 3098.07 1879.82 3096.56 1880.97 3097.18 1882.95 3097.82 1884.96 3098.47 1887 3099.12 1889.05 3099.77 1891.07 3100.43 1893.08 3100.74 1894.15 3101.03 1895.06 3101.3 1895.83 3101.58 1896.6 3101.87 1897.22 3102.18 1897.71 3102.5 1898.19 3102.83 1898.55 3103.2 1898.78 3103.56 1899.02 3104.01 1899.13 3104.53 1899.13 3104.89 1899.13 3105.27 1899.07 3105.66 1898.94 3106.05 1898.81 3106.49 1898.57 3106.97 1898.23 3107.45 1897.9 3108 1897.43 3108.61 1896.85 3109.22 1896.26 3109.92 1895.53 3110.7 1894.64L3113.35 1897.18C3112.13 1898.43 3110.99 1899.51 3109.94 1900.42 3108.88 1901.33 3107.88 1902.08 3106.93 1902.67 3105.98 1903.25 3105.06 1903.68 3104.18 1903.96 3103.29 1904.23 3102.39 1904.37 3101.48 1904.37 3099.84 1904.37 3098.52 1903.96 3097.52 1903.14 3096.51 1902.32 3095.66 1901.14 3094.96 1899.62 3094.25 1898.1 3093.61 1896.25 3093.02 1894.09 3092.44 1891.93 3091.75 1889.52 3090.97 1886.87 3090.79 1886.24 3090.61 1885.74 3090.44 1885.36 3090.28 1884.99 3090.06 1884.7 3089.8 1884.5 3089.54 1884.31 3089.21 1884.18 3088.82 1884.13 3088.43 1884.08 3087.94 1884.05 3087.34 1884.05L3084.84 1884.05 3080.54 1903.66 3073.04 1903.66 3082.5 1861.71C3082.81 1860.33 3083.03 1859.24 3083.16 1858.45 3083.29 1857.65 3083.35 1856.94 3083.35 1856.32 3083.35 1855.82 3083.27 1855.4 3083.1 1855.03 3082.93 1854.67 3082.65 1854.37 3082.26 1854.15 3081.87 1853.93 3081.35 1853.77 3080.7 1853.66 3080.05 1853.56 3079.24 1853.49 3078.28 1853.47L3078.86 1850.81Z" fill-rule="evenodd"/><text fill="#000000" fill-opacity="0" font-family="Arial,Arial_MSFontService,sans-serif" font-size="54.0234" x="3073.04" y="1897.61">𝑘</text><text font-family="MS PGothic,MS PGothic_MSFontService,sans-serif" font-weight="400" font-size="110" transform="matrix(1 0 0 1 3124.13 1881)">を出力</text><path d="M2916.5 2132C2916.5 2114.05 2931.05 2099.5 2949 2099.5L3501 2099.5C3518.95 2099.5 3533.5 2114.05 3533.5 2132L3533.5 2262C3533.5 2279.95 3518.95 2294.5 3501 2294.5L2949 2294.5C2931.05 2294.5 2916.5 2279.95 2916.5 2262Z" stroke="#000000" stroke-width="6.875" stroke-linejoin="round" stroke-miterlimit="10" fill="none" fill-rule="evenodd"/><text font-family="MS PGothic,MS PGothic_MSFontService,sans-serif" font-weight="400" font-size="110" transform="matrix(1 0 0 1 3114.62 2239)">終了</text><path d="M2333.94 560.5 2333.94 640.135 2327.06 640.135 2327.06 560.5ZM2330.5 640.135 2353.42 621.802 2330.5 667.635 2307.58 621.802Z"/><path d="M2333.94 882.499 2333.97 985.964 2327.1 985.966 2327.06 882.501ZM2330.54 985.965 2353.45 967.624 2330.55 1013.47 2307.61 967.64Z"/><path d="M3.4375-0.00156437 3.47154 74.7974-3.40346 74.8005-3.4375 0.00156437ZM0.0340402 74.7989 22.9424 56.4552 0.0465551 102.299-22.891 56.476Z" transform="matrix(-1 0 0 1 2330.55 1213.5)"/><path d="M3.43749-0.00759788 3.6629 101.972-3.21209 101.987-3.43749 0.00759788ZM0.225405 101.979 23.1015 83.5953 0.286188 129.479-22.7317 83.6966Z" transform="matrix(-1 0 0 1 2330.79 1592.5)"/><path d="M3228.94 1941.5 3228.94 2072.57 3222.06 2072.57 3222.06 1941.5ZM3225.5 2072.57 3248.42 2054.24 3225.5 2100.07 3202.58 2054.24Z"/><path d="M2809.5 1451.06 3228.71 1451.06 3228.71 1711.17 3221.83 1711.17 3221.83 1454.5 3225.27 1457.94 2809.5 1457.94ZM3225.27 1711.17 3248.19 1692.83 3225.27 1738.67 3202.36 1692.83Z"/><text font-family="Times New Roman,Times New Roman_MSFontService,sans-serif" font-weight="400" font-size="110" transform="matrix(1 0 0 1 2402.99 1665)">no<tspan font-size="110" x="568.907" y="-260">yes</tspan><tspan fill="#CC0000" font-family="MS PGothic,MS PGothic_MSFontService,sans-serif" font-size="110" x="-348.62" y="-854">初期値設定</tspan></text><path d="M2333.94 2049.95 2333.94 2135.89 1675.75 2135.89 1675.75 931.129 2308.99 931.129 2308.99 938.004 1679.18 938.004 1682.62 934.566 1682.62 2132.46 1679.18 2129.02 2330.5 2129.02 2327.06 2132.46 2327.06 2049.95ZM2308.99 934.566 2301.28 906.25 2334.22 945.5 2283.06 948.304Z"/><path d="M1912.13 1104.87C1908.67 1104.87 1906.04 1106.26 1904.22 1109.03 1902.41 1111.8 1901.51 1115.78 1901.51 1120.96 1901.51 1126.15 1902.25 1130.09 1903.74 1132.8 1905.22 1135.5 1907.48 1136.85 1910.51 1136.85 1911.7 1136.85 1912.68 1136.75 1913.47 1136.55 1914.25 1136.34 1915.02 1136.02 1915.78 1135.57 1916.53 1135.13 1917.3 1134.51 1918.09 1133.73 1918.87 1132.95 1919.44 1132.23 1919.81 1131.58 1920.17 1130.93 1920.45 1130.19 1920.64 1129.35 1920.83 1128.51 1920.92 1127.43 1920.92 1126.11L1920.92 1117.03C1920.92 1114.92 1920.83 1113.24 1920.64 1111.97 1920.45 1110.7 1920.13 1109.63 1919.69 1108.76 1919.24 1107.9 1918.64 1107.17 1917.88 1106.58 1917.13 1105.98 1916.3 1105.55 1915.39 1105.28 1914.49 1105.01 1913.4 1104.87 1912.13 1104.87ZM1948.44 1101.96 1950.91 1101.96 1950.91 1130.93C1950.91 1133.26 1951.02 1134.87 1951.24 1135.78 1951.45 1136.68 1951.87 1137.37 1952.47 1137.84 1953.08 1138.31 1954.08 1138.73 1955.45 1139.08L1955.45 1141.06 1939.57 1141.06 1939.57 1139.08C1940.62 1138.75 1941.37 1138.47 1941.82 1138.23 1942.26 1137.98 1942.64 1137.65 1942.95 1137.21 1943.26 1136.78 1943.5 1136.12 1943.68 1135.23 1943.86 1134.34 1943.94 1132.95 1943.94 1131.05L1943.94 1113.38C1943.94 1111.65 1943.92 1110.26 1943.86 1109.21 1943.81 1108.16 1943.62 1107.31 1943.29 1106.68 1942.97 1106.04 1942.48 1105.57 1941.82 1105.26 1941.15 1104.95 1940.21 1104.68 1939 1104.47L1939 1102.32ZM1943.7 1086.43 1951.16 1086.43 1951.16 1094.3 1943.7 1094.3ZM1925.5 1083.07 1927.89 1083.07 1927.89 1130C1927.89 1132.11 1927.93 1133.61 1928.01 1134.52 1928.1 1135.42 1928.27 1136.15 1928.54 1136.69 1928.81 1137.23 1929.24 1137.67 1929.82 1138 1930.4 1138.34 1931.42 1138.66 1932.88 1138.96L1932.88 1141.06 1923.31 1141.47 1920.88 1141.47 1921.37 1134.82 1920.76 1134.66C1919.06 1136.47 1917.58 1137.83 1916.32 1138.73 1915.07 1139.64 1913.73 1140.36 1912.31 1140.9 1910.89 1141.44 1909.37 1141.71 1907.75 1141.71 1903.32 1141.71 1899.9 1140.03 1897.5 1136.67 1895.09 1133.3 1893.89 1128.45 1893.89 1122.1 1893.89 1117.67 1894.67 1113.9 1896.24 1110.81 1897.81 1107.72 1899.92 1105.41 1902.58 1103.9 1905.24 1102.39 1908.24 1101.63 1911.56 1101.63 1913.34 1101.63 1914.96 1101.77 1916.42 1102.06 1917.88 1102.34 1919.38 1102.81 1920.92 1103.45L1920.92 1097.01C1920.92 1094.42 1920.9 1092.61 1920.86 1091.58 1920.82 1090.55 1920.71 1089.68 1920.54 1088.97 1920.36 1088.25 1920.12 1087.69 1919.81 1087.28 1919.5 1086.88 1919.08 1086.55 1918.55 1086.31 1918.02 1086.07 1917.07 1085.83 1915.69 1085.58L1915.69 1083.47ZM2008.32 1082.87C2010.45 1082.87 2012.26 1083.02 2013.75 1083.31L2013.75 1090.65 2009.73 1090.65C2009.22 1089.05 2008.62 1087.93 2007.93 1087.26 2007.24 1086.6 2006.28 1086.27 2005.03 1086.27 2004.14 1086.27 2003.39 1086.39 2002.78 1086.64 2002.18 1086.88 2001.62 1087.26 2001.1 1087.77 2000.59 1088.28 2000.15 1088.97 1999.79 1089.84 1999.42 1090.7 1999.15 1091.78 1998.97 1093.06 1998.8 1094.34 1998.71 1096.01 1998.71 1098.06L1998.71 1102.32 2008.4 1102.32 2008.4 1106.41 1998.71 1106.41 1998.71 1130.93C1998.71 1132.74 1998.8 1134.11 1998.97 1135.03 1999.15 1135.94 1999.41 1136.64 1999.74 1137.11 2000.08 1137.59 2000.53 1137.96 2001.08 1138.25 2001.64 1138.53 2002.52 1138.81 2003.74 1139.08L2003.74 1141.06 1987.16 1141.06 1987.16 1139.08C1988.35 1138.75 1989.2 1138.44 1989.71 1138.15 1990.23 1137.85 1990.63 1137.47 1990.91 1137.01 1991.19 1136.55 1991.4 1135.89 1991.54 1135.03 1991.67 1134.16 1991.74 1132.8 1991.74 1130.93L1991.74 1106.41 1986.84 1106.41 1986.84 1104.35C1987.86 1104.18 1988.55 1104.06 1988.88 1103.96 1989.22 1103.87 1989.55 1103.72 1989.86 1103.54 1990.17 1103.35 1990.44 1103.08 1990.67 1102.73 1990.9 1102.37 1991.1 1101.85 1991.27 1101.16 1991.45 1100.48 1991.59 1099.51 1991.7 1098.27 1991.94 1095.32 1992.48 1092.93 1993.3 1091.09 1994.12 1089.26 1995.33 1087.69 1996.91 1086.39 1998.49 1085.1 2000.18 1084.18 2001.97 1083.66 2003.77 1083.13 2005.88 1082.87 2008.32 1082.87ZM1983.32 1082.87C1985.45 1082.87 1987.26 1083.02 1988.75 1083.31L1988.75 1090.65 1984.73 1090.65C1984.22 1089.05 1983.62 1087.93 1982.93 1087.26 1982.24 1086.6 1981.28 1086.27 1980.03 1086.27 1979.14 1086.27 1978.39 1086.39 1977.78 1086.64 1977.18 1086.88 1976.62 1087.26 1976.1 1087.77 1975.59 1088.28 1975.15 1088.97 1974.79 1089.84 1974.42 1090.7 1974.15 1091.78 1973.97 1093.06 1973.8 1094.34 1973.71 1096.01 1973.71 1098.06L1973.71 1102.32 1983.4 1102.32 1983.4 1106.41 1973.71 1106.41 1973.71 1130.93C1973.71 1132.74 1973.8 1134.11 1973.97 1135.03 1974.15 1135.94 1974.41 1136.64 1974.74 1137.11 1975.08 1137.59 1975.53 1137.96 1976.08 1138.25 1976.64 1138.53 1977.52 1138.81 1978.74 1139.08L1978.74 1141.06 1962.16 1141.06 1962.16 1139.08C1963.35 1138.75 1964.2 1138.44 1964.71 1138.15 1965.23 1137.85 1965.63 1137.47 1965.91 1137.01 1966.19 1136.55 1966.4 1135.89 1966.54 1135.03 1966.67 1134.16 1966.74 1132.8 1966.74 1130.93L1966.74 1106.41 1961.84 1106.41 1961.84 1104.35C1962.86 1104.18 1963.55 1104.06 1963.88 1103.96 1964.22 1103.87 1964.55 1103.72 1964.86 1103.54 1965.17 1103.35 1965.44 1103.08 1965.67 1102.73 1965.9 1102.37 1966.1 1101.85 1966.27 1101.16 1966.45 1100.48 1966.59 1099.51 1966.7 1098.27 1966.94 1095.32 1967.48 1092.93 1968.3 1091.09 1969.12 1089.26 1970.33 1087.69 1971.91 1086.39 1973.49 1085.1 1975.18 1084.18 1976.97 1083.66 1978.77 1083.13 1980.88 1082.87 1983.32 1082.87Z" fill-rule="evenodd"/><text fill="#000000" fill-opacity="0" font-family="Arial,Arial_MSFontService,sans-serif" font-size="58.8457" x="1893.89" y="1134.36">diff</text><path d="M2052.31 1100.62 2054.7 1102.85 2045.42 1114.64 2096.6 1114.64 2096.6 1120.03 2045.42 1120.03 2054.7 1131.86 2052.31 1134.09 2036.38 1118.65 2036.38 1116.06Z" fill-rule="evenodd"/><text fill="#000000" fill-opacity="0" font-family="Arial,Arial_MSFontService,sans-serif" font-size="33.4756" x="2036.38" y="1129.91">←</text><path d="M2139.97 1101.63C2140.8 1101.63 2141.54 1101.73 2142.18 1101.91 2142.81 1102.1 2143.37 1102.39 2143.86 1102.79 2144.34 1103.18 2144.78 1103.68 2145.15 1104.31 2145.53 1104.93 2145.9 1105.77 2146.25 1106.84 2146.6 1107.91 2146.93 1109.23 2147.24 1110.81 2147.55 1112.39 2147.83 1114.03 2148.07 1115.73L2148.48 1115.73C2151.07 1112.09 2153.04 1109.42 2154.37 1107.73 2155.71 1106.04 2156.84 1104.79 2157.76 1103.96 2158.68 1103.14 2159.56 1102.56 2160.41 1102.22 2161.26 1101.88 2162.39 1101.71 2163.8 1101.71 2165.07 1101.71 2166.11 1101.87 2166.92 1102.2L2165.3 1109.53 2162.46 1109.53C2162.3 1108.4 2161.82 1107.83 2161.04 1107.83 2160.8 1107.83 2160.54 1107.87 2160.27 1107.95 2160 1108.03 2159.67 1108.21 2159.28 1108.48 2158.89 1108.75 2158.31 1109.28 2157.56 1110.06 2156.8 1110.84 2155.95 1111.8 2155 1112.94 2154.06 1114.07 2153.08 1115.26 2152.08 1116.5L2149.33 1119.95C2149.81 1122.54 2150.27 1124.79 2150.71 1126.68 2151.14 1128.57 2151.52 1130.14 2151.86 1131.4 2152.2 1132.65 2152.5 1133.65 2152.75 1134.38 2153.01 1135.11 2153.29 1135.65 2153.58 1136.02 2153.88 1136.38 2154.18 1136.64 2154.5 1136.79 2154.81 1136.94 2155.16 1137.01 2155.57 1137.01 2156.3 1137.01 2157.01 1136.73 2157.7 1136.16 2158.39 1135.59 2159.38 1134.31 2160.68 1132.31L2163.31 1134.05C2161.42 1136.86 2159.71 1138.84 2158.18 1139.99 2156.66 1141.14 2154.84 1141.71 2152.73 1141.71 2151.57 1141.71 2150.58 1141.5 2149.77 1141.08 2148.96 1140.67 2148.26 1140 2147.67 1139.08 2147.07 1138.16 2146.55 1136.73 2146.09 1134.78 2145.25 1131.32 2144.74 1128.68 2144.55 1126.84L2144.14 1126.84C2141.28 1130.86 2139.15 1133.76 2137.76 1135.51 2136.37 1137.27 2135.22 1138.56 2134.31 1139.4 2133.41 1140.24 2132.53 1140.83 2131.68 1141.17 2130.83 1141.5 2129.7 1141.67 2128.29 1141.67 2127.02 1141.67 2125.98 1141.51 2125.17 1141.19L2126.79 1133.85 2129.63 1133.85C2129.79 1134.98 2130.27 1135.55 2131.05 1135.55 2131.43 1135.55 2131.83 1135.45 2132.25 1135.25 2132.66 1135.05 2133.27 1134.56 2134.05 1133.79 2134.83 1133.02 2135.91 1131.81 2137.29 1130.16 2138.67 1128.51 2140.67 1126.04 2143.29 1122.75 2142.88 1120.61 2142.47 1118.56 2142.03 1116.59 2141.6 1114.61 2141.16 1112.78 2140.7 1111.07 2140.24 1109.37 2139.86 1108.26 2139.56 1107.73 2139.26 1107.2 2138.95 1106.84 2138.61 1106.64 2138.27 1106.43 2137.85 1106.33 2137.33 1106.33 2136.76 1106.33 2136.25 1106.46 2135.79 1106.72 2135.33 1106.97 2134.83 1107.42 2134.29 1108.05 2133.75 1108.69 2133.04 1109.68 2132.14 1111.03L2129.51 1109.29C2131.21 1106.72 2132.85 1104.81 2134.41 1103.54 2135.98 1102.27 2137.83 1101.63 2139.97 1101.63Z" fill-rule="evenodd"/><text fill="#000000" fill-opacity="0" font-family="Arial,Arial_MSFontService,sans-serif" font-size="40.0815" x="2125.17" y="1136.7">𝑥</text><path d="M2183.35 1117.25 2185.5 1117.25 2180.26 1140.42 2181.09 1140.42C2181.85 1140.42 2182.66 1140.27 2183.53 1139.95 2184.41 1139.63 2185.28 1139.22 2186.14 1138.71 2187 1138.2 2187.83 1137.63 2188.63 1137 2189.42 1136.36 2190.12 1135.72 2190.73 1135.08 2191.33 1134.43 2191.81 1133.82 2192.17 1133.25 2192.53 1132.67 2192.71 1132.18 2192.71 1131.79 2192.71 1131.31 2192.55 1130.92 2192.23 1130.62 2191.91 1130.33 2191.34 1130.13 2190.5 1130.03L2190.86 1128.12 2201.58 1128.12 2202.33 1129.97C2201.08 1131.04 2199.88 1132.03 2198.72 1132.95 2197.57 1133.86 2196.45 1134.74 2195.34 1135.58 2194.24 1136.43 2193.14 1137.26 2192.04 1138.07 2190.93 1138.89 2189.81 1139.73 2188.66 1140.6 2189.13 1142.11 2189.62 1143.65 2190.12 1145.2 2190.61 1146.76 2191.11 1148.31 2191.6 1149.84 2191.84 1150.65 2192.07 1151.35 2192.28 1151.94 2192.48 1152.52 2192.71 1153 2192.95 1153.37 2193.18 1153.73 2193.44 1154.01 2193.72 1154.18 2194 1154.36 2194.34 1154.45 2194.73 1154.45 2195.01 1154.45 2195.3 1154.4 2195.6 1154.3 2195.89 1154.2 2196.23 1154.03 2196.59 1153.77 2196.96 1153.51 2197.38 1153.16 2197.84 1152.71 2198.31 1152.26 2198.84 1151.7 2199.44 1151.03L2201.46 1152.96C2200.53 1153.92 2199.66 1154.74 2198.86 1155.44 2198.05 1156.13 2197.29 1156.7 2196.56 1157.15 2195.84 1157.6 2195.14 1157.92 2194.46 1158.13 2193.79 1158.34 2193.1 1158.44 2192.41 1158.44 2191.16 1158.44 2190.15 1158.13 2189.39 1157.51 2188.62 1156.88 2187.97 1155.99 2187.44 1154.83 2186.9 1153.66 2186.41 1152.26 2185.96 1150.61 2185.51 1148.96 2184.99 1147.13 2184.4 1145.1 2184.26 1144.62 2184.12 1144.24 2183.99 1143.95 2183.87 1143.67 2183.7 1143.45 2183.5 1143.3 2183.3 1143.15 2183.06 1143.05 2182.76 1143.02 2182.46 1142.98 2182.08 1142.96 2181.63 1142.96L2179.72 1142.96 2176.44 1157.91 2170.73 1157.91 2177.93 1125.92C2178.17 1124.87 2178.34 1124.04 2178.44 1123.43 2178.54 1122.83 2178.59 1122.28 2178.59 1121.81 2178.59 1121.43 2178.52 1121.1 2178.4 1120.83 2178.27 1120.55 2178.05 1120.32 2177.75 1120.16 2177.46 1119.99 2177.06 1119.86 2176.56 1119.78 2176.07 1119.7 2175.45 1119.65 2174.72 1119.63L2175.16 1117.61Z" fill-rule="evenodd"/><text fill="#000000" fill-opacity="0" font-family="Arial,Arial_MSFontService,sans-serif" font-size="41.1929" x="2170.73" y="1153.29">𝑘</text><path d="M2233.49 1114.64 2283.42 1114.64 2283.42 1120.03 2233.49 1120.03Z" fill-rule="evenodd"/><text fill="#000000" fill-opacity="0" font-family="Arial,Arial_MSFontService,sans-serif" font-size="5.39014" x="2233.49" y="1119.36">−</text><path d="M2345.83 1082.87C2348.48 1082.87 2350.77 1083.08 2352.68 1083.52L2351.1 1090.4 2347.54 1090.4C2347.16 1088.86 2346.67 1087.76 2346.06 1087.08 2345.45 1086.41 2344.55 1086.07 2343.36 1086.07 2341.82 1086.07 2340.52 1086.49 2339.45 1087.35 2338.38 1088.2 2337.47 1089.46 2336.72 1091.13 2335.96 1092.81 2335.26 1095.07 2334.61 1097.9L2333.6 1102.32 2344.01 1102.32 2343.12 1106.41 2332.66 1106.41 2325.13 1141.75C2323.88 1147.62 2321.98 1151.99 2319.41 1154.86 2316.84 1157.74 2313.62 1159.18 2309.72 1159.18 2308.59 1159.18 2307.7 1159.11 2307.05 1158.98L2307.74 1155.41C2308.01 1155.49 2308.64 1155.53 2309.64 1155.53 2310.86 1155.53 2311.9 1155.22 2312.76 1154.6 2313.63 1153.98 2314.43 1152.9 2315.18 1151.36 2315.92 1149.82 2316.6 1147.68 2317.22 1144.95L2325.94 1106.41 2319.09 1106.41 2319.69 1103.62C2321.5 1103.51 2322.81 1103.36 2323.61 1103.17 2324.4 1102.98 2325.02 1102.7 2325.47 1102.32 2325.92 1101.94 2326.29 1101.45 2326.6 1100.84 2326.92 1100.23 2327.31 1099.12 2327.8 1097.5 2329.23 1092.63 2331.44 1088.98 2334.43 1086.53 2337.41 1084.09 2341.21 1082.87 2345.83 1082.87Z" fill-rule="evenodd"/><text fill="#000000" fill-opacity="0" font-family="Arial,Arial_MSFontService,sans-serif" font-size="76.313" x="2307.05" y="1149.64">𝑓</text><path d="M2477.35 1078.95C2485.24 1081.03 2491.3 1085.52 2495.53 1092.43 2499.76 1099.33 2501.87 1107.66 2501.87 1117.41 2501.87 1127.19 2499.77 1135.52 2495.55 1142.4 2491.34 1149.27 2485.27 1153.75 2477.35 1155.83L2476.38 1152.71C2482.62 1150.63 2487.26 1146.52 2490.3 1140.39 2493.34 1134.26 2494.86 1126.46 2494.86 1117.01 2494.86 1107.87 2493.35 1100.29 2490.32 1094.25 2487.3 1088.21 2482.61 1084.15 2476.26 1082.07ZM2387.14 1078.95 2388.23 1082.07C2381.91 1084.15 2377.23 1088.21 2374.19 1094.25 2371.15 1100.29 2369.63 1107.87 2369.63 1117.01 2369.63 1126.46 2371.15 1134.26 2374.19 1140.39 2377.23 1146.52 2381.87 1150.63 2388.11 1152.71L2387.14 1155.83C2379.22 1153.75 2373.16 1149.27 2368.94 1142.4 2364.73 1135.52 2362.62 1127.19 2362.62 1117.41 2362.62 1107.66 2364.73 1099.33 2368.96 1092.43 2373.19 1085.52 2379.25 1081.03 2387.14 1078.95Z" fill-rule="evenodd"/><path d="M2405.57 1101.63C2406.41 1101.63 2407.14 1101.73 2407.78 1101.91 2408.41 1102.1 2408.97 1102.39 2409.46 1102.79 2409.95 1103.18 2410.38 1103.68 2410.76 1104.31 2411.14 1104.93 2411.5 1105.77 2411.85 1106.84 2412.2 1107.91 2412.53 1109.23 2412.85 1110.81 2413.16 1112.39 2413.43 1114.03 2413.68 1115.73L2414.08 1115.73C2416.68 1112.09 2418.64 1109.42 2419.98 1107.73 2421.32 1106.04 2422.44 1104.79 2423.36 1103.96 2424.28 1103.14 2425.17 1102.56 2426.02 1102.22 2426.87 1101.88 2428 1101.71 2429.4 1101.71 2430.67 1101.71 2431.71 1101.87 2432.52 1102.2L2430.9 1109.53 2428.06 1109.53C2427.9 1108.4 2427.43 1107.83 2426.64 1107.83 2426.4 1107.83 2426.15 1107.87 2425.87 1107.95 2425.6 1108.03 2425.27 1108.21 2424.88 1108.48 2424.49 1108.75 2423.92 1109.28 2423.16 1110.06 2422.4 1110.84 2421.55 1111.8 2420.61 1112.94 2419.66 1114.07 2418.69 1115.26 2417.69 1116.5L2414.93 1119.95C2415.42 1122.54 2415.88 1124.79 2416.31 1126.68 2416.74 1128.57 2417.13 1130.14 2417.47 1131.4 2417.8 1132.65 2418.1 1133.65 2418.36 1134.38 2418.61 1135.11 2418.89 1135.65 2419.19 1136.02 2419.48 1136.38 2419.79 1136.64 2420.1 1136.79 2420.41 1136.94 2420.77 1137.01 2421.17 1137.01 2421.9 1137.01 2422.61 1136.73 2423.3 1136.16 2423.99 1135.59 2424.98 1134.31 2426.28 1132.31L2428.91 1134.05C2427.02 1136.86 2425.31 1138.84 2423.79 1139.99 2422.26 1141.14 2420.44 1141.71 2418.34 1141.71 2417.17 1141.71 2416.19 1141.5 2415.38 1141.08 2414.57 1140.67 2413.87 1140 2413.27 1139.08 2412.68 1138.16 2412.15 1136.73 2411.69 1134.78 2410.85 1131.32 2410.34 1128.68 2410.15 1126.84L2409.74 1126.84C2406.88 1130.86 2404.75 1133.76 2403.36 1135.51 2401.97 1137.27 2400.82 1138.56 2399.92 1139.4 2399.01 1140.24 2398.13 1140.83 2397.28 1141.17 2396.43 1141.5 2395.3 1141.67 2393.9 1141.67 2392.63 1141.67 2391.59 1141.51 2390.78 1141.19L2392.4 1133.85 2395.24 1133.85C2395.4 1134.98 2395.87 1135.55 2396.65 1135.55 2397.03 1135.55 2397.43 1135.45 2397.85 1135.25 2398.27 1135.05 2398.87 1134.56 2399.65 1133.79 2400.44 1133.02 2401.52 1131.81 2402.9 1130.16 2404.27 1128.51 2406.27 1126.04 2408.89 1122.75 2408.49 1120.61 2408.07 1118.56 2407.64 1116.59 2407.21 1114.61 2406.76 1112.78 2406.3 1111.07 2405.84 1109.37 2405.46 1108.26 2405.17 1107.73 2404.87 1107.2 2404.55 1106.84 2404.21 1106.64 2403.88 1106.43 2403.45 1106.33 2402.94 1106.33 2402.37 1106.33 2401.86 1106.46 2401.4 1106.72 2400.94 1106.97 2400.44 1107.42 2399.9 1108.05 2399.36 1108.69 2398.64 1109.68 2397.75 1111.03L2395.11 1109.29C2396.82 1106.72 2398.45 1104.81 2400.02 1103.54 2401.59 1102.27 2403.44 1101.63 2405.57 1101.63Z" fill-rule="evenodd"/><text fill="#000000" fill-opacity="0" font-family="Arial,Arial_MSFontService,sans-serif" font-size="40.0815" x="2390.78" y="1136.7">𝑥</text><path d="M2448.96 1117.25 2451.1 1117.25 2445.86 1140.42 2446.7 1140.42C2447.45 1140.42 2448.26 1140.27 2449.14 1139.95 2450.01 1139.63 2450.88 1139.22 2451.74 1138.71 2452.61 1138.2 2453.44 1137.63 2454.23 1137 2455.02 1136.36 2455.72 1135.72 2456.33 1135.08 2456.94 1134.43 2457.42 1133.82 2457.78 1133.25 2458.13 1132.67 2458.31 1132.18 2458.31 1131.79 2458.31 1131.31 2458.15 1130.92 2457.83 1130.62 2457.52 1130.33 2456.94 1130.13 2456.11 1130.03L2456.46 1128.12 2467.19 1128.12 2467.93 1129.97C2466.68 1131.04 2465.48 1132.03 2464.33 1132.95 2463.18 1133.86 2462.05 1134.74 2460.95 1135.58 2459.85 1136.43 2458.74 1137.26 2457.64 1138.07 2456.54 1138.89 2455.41 1139.73 2454.26 1140.6 2454.74 1142.11 2455.22 1143.65 2455.72 1145.2 2456.22 1146.76 2456.71 1148.31 2457.21 1149.84 2457.45 1150.65 2457.67 1151.35 2457.88 1151.94 2458.09 1152.52 2458.31 1153 2458.55 1153.37 2458.79 1153.73 2459.05 1154.01 2459.32 1154.18 2459.6 1154.36 2459.94 1154.45 2460.34 1154.45 2460.61 1154.45 2460.9 1154.4 2461.2 1154.3 2461.5 1154.2 2461.83 1154.03 2462.2 1153.77 2462.57 1153.51 2462.98 1153.16 2463.45 1152.71 2463.92 1152.26 2464.45 1151.7 2465.04 1151.03L2467.07 1152.96C2466.13 1153.92 2465.27 1154.74 2464.46 1155.44 2463.66 1156.13 2462.89 1156.7 2462.17 1157.15 2461.44 1157.6 2460.74 1157.92 2460.07 1158.13 2459.39 1158.34 2458.71 1158.44 2458.01 1158.44 2456.76 1158.44 2455.75 1158.13 2454.99 1157.51 2454.23 1156.88 2453.58 1155.99 2453.04 1154.83 2452.5 1153.66 2452.01 1152.26 2451.56 1150.61 2451.12 1148.96 2450.6 1147.13 2450 1145.1 2449.86 1144.62 2449.73 1144.24 2449.6 1143.95 2449.47 1143.67 2449.31 1143.45 2449.11 1143.3 2448.91 1143.15 2448.66 1143.05 2448.36 1143.02 2448.07 1142.98 2447.69 1142.96 2447.23 1142.96L2445.32 1142.96 2442.05 1157.91 2436.33 1157.91 2443.54 1125.92C2443.78 1124.87 2443.94 1124.04 2444.04 1123.43 2444.14 1122.83 2444.19 1122.28 2444.19 1121.81 2444.19 1121.43 2444.13 1121.1 2444 1120.83 2443.87 1120.55 2443.66 1120.32 2443.36 1120.16 2443.06 1119.99 2442.66 1119.86 2442.17 1119.78 2441.67 1119.7 2441.06 1119.65 2440.32 1119.63L2440.77 1117.61Z" fill-rule="evenodd"/><text fill="#000000" fill-opacity="0" font-family="Arial,Arial_MSFontService,sans-serif" font-size="41.1929" x="2436.33" y="1153.29">𝑘</text><path d="M2540.81 1083.07 2547.09 1083.07 2517.83 1158.49 2511.47 1158.49Z" fill-rule="evenodd"/><text fill="#000000" fill-opacity="0" font-family="Arial,Arial_MSFontService,sans-serif" font-size="75.4214" x="2511.47" y="1149.06">/</text><path d="M2587.81 1082.87C2590.46 1082.87 2592.74 1083.08 2594.66 1083.52L2593.08 1090.4 2589.51 1090.4C2589.14 1088.86 2588.64 1087.76 2588.03 1087.08 2587.43 1086.41 2586.53 1086.07 2585.34 1086.07 2583.8 1086.07 2582.5 1086.49 2581.43 1087.35 2580.36 1088.2 2579.45 1089.46 2578.69 1091.13 2577.94 1092.81 2577.23 1095.07 2576.59 1097.9L2575.57 1102.32 2585.99 1102.32 2585.1 1106.41 2574.64 1106.41 2567.1 1141.75C2565.86 1147.62 2563.95 1151.99 2561.39 1154.86 2558.82 1157.74 2555.59 1159.18 2551.7 1159.18 2550.57 1159.18 2549.68 1159.11 2549.03 1158.98L2549.72 1155.41C2549.99 1155.49 2550.62 1155.53 2551.62 1155.53 2552.84 1155.53 2553.88 1155.22 2554.74 1154.6 2555.61 1153.98 2556.41 1152.9 2557.15 1151.36 2557.9 1149.82 2558.58 1147.68 2559.2 1144.95L2567.91 1106.41 2561.06 1106.41 2561.67 1103.62C2563.48 1103.51 2564.79 1103.36 2565.58 1103.17 2566.38 1102.98 2567 1102.7 2567.45 1102.32 2567.89 1101.94 2568.27 1101.45 2568.58 1100.84 2568.89 1100.23 2569.29 1099.12 2569.78 1097.5 2571.21 1092.63 2573.42 1088.98 2576.4 1086.53 2579.39 1084.09 2583.19 1082.87 2587.81 1082.87Z" fill-rule="evenodd"/><text fill="#000000" fill-opacity="0" font-family="Arial,Arial_MSFontService,sans-serif" font-size="76.313" x="2549.03" y="1149.64">𝑓</text><path d="M2610.07 1079.29 2617.76 1079.29 2617.76 1081.61 2607.84 1105.47 2604.35 1104.43Z" fill-rule="evenodd"/><text fill="#000000" fill-opacity="0" font-family="Arial,Arial_MSFontService,sans-serif" font-size="26.1812" x="2604.35" y="1102.2">′</text><path d="M2746.56 1078.95C2754.45 1081.03 2760.5 1085.52 2764.73 1092.43 2768.96 1099.33 2771.08 1107.66 2771.08 1117.41 2771.08 1127.19 2768.97 1135.52 2764.75 1142.4 2760.54 1149.27 2754.47 1153.75 2746.56 1155.83L2745.58 1152.71C2751.83 1150.63 2756.47 1146.52 2759.51 1140.39 2762.54 1134.26 2764.06 1126.46 2764.06 1117.01 2764.06 1107.87 2762.55 1100.29 2759.53 1094.25 2756.5 1088.21 2751.81 1084.15 2745.46 1082.07ZM2656.34 1078.95 2657.44 1082.07C2651.11 1084.15 2646.43 1088.21 2643.39 1094.25 2640.35 1100.29 2638.83 1107.87 2638.83 1117.01 2638.83 1126.46 2640.35 1134.26 2643.39 1140.39 2646.43 1146.52 2651.07 1150.63 2657.31 1152.71L2656.34 1155.83C2648.42 1153.75 2642.36 1149.27 2638.14 1142.4 2633.93 1135.52 2631.82 1127.19 2631.82 1117.41 2631.82 1107.66 2633.94 1099.33 2638.16 1092.43 2642.39 1085.52 2648.45 1081.03 2656.34 1078.95Z" fill-rule="evenodd"/><path d="M2674.77 1101.63C2675.61 1101.63 2676.35 1101.73 2676.98 1101.91 2677.62 1102.1 2678.18 1102.39 2678.66 1102.79 2679.15 1103.18 2679.58 1103.68 2679.96 1104.31 2680.34 1104.93 2680.7 1105.77 2681.05 1106.84 2681.41 1107.91 2681.74 1109.23 2682.05 1110.81 2682.36 1112.39 2682.64 1114.03 2682.88 1115.73L2683.28 1115.73C2685.88 1112.09 2687.84 1109.42 2689.18 1107.73 2690.52 1106.04 2691.65 1104.79 2692.56 1103.96 2693.48 1103.14 2694.37 1102.56 2695.22 1102.22 2696.07 1101.88 2697.2 1101.71 2698.6 1101.71 2699.87 1101.71 2700.91 1101.87 2701.72 1102.2L2700.1 1109.53 2697.27 1109.53C2697.1 1108.4 2696.63 1107.83 2695.85 1107.83 2695.6 1107.83 2695.35 1107.87 2695.08 1107.95 2694.81 1108.03 2694.48 1108.21 2694.08 1108.48 2693.69 1108.75 2693.12 1109.28 2692.36 1110.06 2691.6 1110.84 2690.75 1111.8 2689.81 1112.94 2688.86 1114.07 2687.89 1115.26 2686.89 1116.5L2684.13 1119.95C2684.62 1122.54 2685.08 1124.79 2685.51 1126.68 2685.94 1128.57 2686.33 1130.14 2686.67 1131.4 2687.01 1132.65 2687.3 1133.65 2687.56 1134.38 2687.82 1135.11 2688.09 1135.65 2688.39 1136.02 2688.69 1136.38 2688.99 1136.64 2689.3 1136.79 2689.61 1136.94 2689.97 1137.01 2690.38 1137.01 2691.11 1137.01 2691.81 1136.73 2692.5 1136.16 2693.19 1135.59 2694.19 1134.31 2695.48 1132.31L2698.12 1134.05C2696.23 1136.86 2694.52 1138.84 2692.99 1139.99 2691.46 1141.14 2689.65 1141.71 2687.54 1141.71 2686.38 1141.71 2685.39 1141.5 2684.58 1141.08 2683.77 1140.67 2683.07 1140 2682.47 1139.08 2681.88 1138.16 2681.35 1136.73 2680.89 1134.78 2680.05 1131.32 2679.54 1128.68 2679.35 1126.84L2678.95 1126.84C2676.08 1130.86 2673.96 1133.76 2672.56 1135.51 2671.17 1137.27 2670.02 1138.56 2669.12 1139.4 2668.21 1140.24 2667.34 1140.83 2666.48 1141.17 2665.63 1141.5 2664.51 1141.67 2663.1 1141.67 2661.83 1141.67 2660.79 1141.51 2659.98 1141.19L2661.6 1133.85 2664.44 1133.85C2664.6 1134.98 2665.07 1135.55 2665.86 1135.55 2666.23 1135.55 2666.63 1135.45 2667.05 1135.25 2667.47 1135.05 2668.07 1134.56 2668.86 1133.79 2669.64 1133.02 2670.72 1131.81 2672.1 1130.16 2673.48 1128.51 2675.48 1126.04 2678.1 1122.75 2677.69 1120.61 2677.27 1118.56 2676.84 1116.59 2676.41 1114.61 2675.96 1112.78 2675.5 1111.07 2675.04 1109.37 2674.66 1108.26 2674.37 1107.73 2674.07 1107.2 2673.75 1106.84 2673.42 1106.64 2673.08 1106.43 2672.65 1106.33 2672.14 1106.33 2671.57 1106.33 2671.06 1106.46 2670.6 1106.72 2670.14 1106.97 2669.64 1107.42 2669.1 1108.05 2668.56 1108.69 2667.84 1109.68 2666.95 1111.03L2664.32 1109.29C2666.02 1106.72 2667.65 1104.81 2669.22 1103.54 2670.79 1102.27 2672.64 1101.63 2674.77 1101.63Z" fill-rule="evenodd"/><text fill="#000000" fill-opacity="0" font-family="Arial,Arial_MSFontService,sans-serif" font-size="40.0815" x="2659.98" y="1136.7">𝑥</text><path d="M2718.16 1117.25 2720.31 1117.25 2715.06 1140.42 2715.9 1140.42C2716.65 1140.42 2717.47 1140.27 2718.34 1139.95 2719.21 1139.63 2720.08 1139.22 2720.95 1138.71 2721.81 1138.2 2722.64 1137.63 2723.43 1137 2724.23 1136.36 2724.93 1135.72 2725.53 1135.08 2726.14 1134.43 2726.62 1133.82 2726.98 1133.25 2727.33 1132.67 2727.51 1132.18 2727.51 1131.79 2727.51 1131.31 2727.35 1130.92 2727.04 1130.62 2726.72 1130.33 2726.14 1130.13 2725.31 1130.03L2725.67 1128.12 2736.39 1128.12 2737.13 1129.97C2735.88 1131.04 2734.68 1132.03 2733.53 1132.95 2732.38 1133.86 2731.25 1134.74 2730.15 1135.58 2729.05 1136.43 2727.95 1137.26 2726.84 1138.07 2725.74 1138.89 2724.61 1139.73 2723.46 1140.6 2723.94 1142.11 2724.43 1143.65 2724.92 1145.2 2725.42 1146.76 2725.92 1148.31 2726.41 1149.84 2726.65 1150.65 2726.87 1151.35 2727.08 1151.94 2727.29 1152.52 2727.51 1153 2727.75 1153.37 2727.99 1153.73 2728.25 1154.01 2728.53 1154.18 2728.8 1154.36 2729.14 1154.45 2729.54 1154.45 2729.82 1154.45 2730.1 1154.4 2730.4 1154.3 2730.7 1154.2 2731.03 1154.03 2731.4 1153.77 2731.77 1153.51 2732.18 1153.16 2732.65 1152.71 2733.12 1152.26 2733.65 1151.7 2734.24 1151.03L2736.27 1152.96C2735.34 1153.92 2734.47 1154.74 2733.66 1155.44 2732.86 1156.13 2732.1 1156.7 2731.37 1157.15 2730.65 1157.6 2729.95 1157.92 2729.27 1158.13 2728.6 1158.34 2727.91 1158.44 2727.22 1158.44 2725.96 1158.44 2724.96 1158.13 2724.19 1157.51 2723.43 1156.88 2722.78 1155.99 2722.24 1154.83 2721.71 1153.66 2721.21 1152.26 2720.77 1150.61 2720.32 1148.96 2719.8 1147.13 2719.2 1145.1 2719.06 1144.62 2718.93 1144.24 2718.8 1143.95 2718.67 1143.67 2718.51 1143.45 2718.31 1143.3 2718.11 1143.15 2717.86 1143.05 2717.57 1143.02 2717.27 1142.98 2716.89 1142.96 2716.43 1142.96L2714.53 1142.96 2711.25 1157.91 2705.53 1157.91 2712.74 1125.92C2712.98 1124.87 2713.15 1124.04 2713.25 1123.43 2713.35 1122.83 2713.4 1122.28 2713.4 1121.81 2713.4 1121.43 2713.33 1121.1 2713.2 1120.83 2713.07 1120.55 2712.86 1120.32 2712.56 1120.16 2712.26 1119.99 2711.87 1119.86 2711.37 1119.78 2710.87 1119.7 2710.26 1119.65 2709.52 1119.63L2709.97 1117.61Z" fill-rule="evenodd"/><text fill="#000000" fill-opacity="0" font-family="Arial,Arial_MSFontService,sans-serif" font-size="41.1929" x="2705.53" y="1153.29">𝑘</text><path d="M2304.18 1422.55 2310.42 1422.55 2310.42 1497.97 2304.18 1497.97ZM2158.91 1422.55 2165.15 1422.55 2165.15 1497.97 2158.91 1497.97Z" fill-rule="evenodd"/><path d="M2197.49 1447.75C2194.04 1447.75 2191.4 1449.13 2189.59 1451.9 2187.78 1454.67 2186.88 1458.65 2186.88 1463.83 2186.88 1469.02 2187.62 1472.97 2189.11 1475.67 2190.59 1478.37 2192.85 1479.72 2195.87 1479.72 2197.06 1479.72 2198.05 1479.62 2198.83 1479.42 2199.62 1479.21 2200.39 1478.89 2201.14 1478.44 2201.9 1478 2202.67 1477.38 2203.45 1476.6 2204.24 1475.82 2204.81 1475.1 2205.17 1474.45 2205.54 1473.8 2205.82 1473.06 2206.01 1472.22 2206.19 1471.39 2206.29 1470.31 2206.29 1468.98L2206.29 1459.9C2206.29 1457.8 2206.19 1456.11 2206.01 1454.84 2205.82 1453.57 2205.5 1452.5 2205.05 1451.64 2204.61 1450.77 2204.01 1450.04 2203.25 1449.45 2202.49 1448.85 2201.66 1448.42 2200.76 1448.15 2199.85 1447.88 2198.76 1447.75 2197.49 1447.75ZM2233.81 1444.83 2236.28 1444.83 2236.28 1473.8C2236.28 1476.13 2236.39 1477.74 2236.61 1478.65 2236.82 1479.55 2237.23 1480.24 2237.84 1480.71 2238.45 1481.19 2239.44 1481.6 2240.82 1481.95L2240.82 1483.94 2224.93 1483.94 2224.93 1481.95C2225.99 1481.63 2226.74 1481.34 2227.18 1481.1 2227.63 1480.86 2228.01 1480.52 2228.32 1480.09 2228.63 1479.65 2228.87 1478.99 2229.05 1478.1 2229.22 1477.21 2229.31 1475.82 2229.31 1473.93L2229.31 1456.26C2229.31 1454.53 2229.28 1453.14 2229.23 1452.08 2229.18 1451.03 2228.99 1450.18 2228.66 1449.55 2228.34 1448.91 2227.84 1448.44 2227.18 1448.13 2226.52 1447.82 2225.58 1447.56 2224.37 1447.34L2224.37 1445.19ZM2229.07 1429.31 2236.52 1429.31 2236.52 1437.17 2229.07 1437.17ZM2210.87 1425.94 2213.26 1425.94 2213.26 1472.87C2213.26 1474.98 2213.3 1476.49 2213.38 1477.39 2213.46 1478.3 2213.64 1479.02 2213.91 1479.56 2214.18 1480.1 2214.6 1480.54 2215.19 1480.88 2215.77 1481.21 2216.79 1481.53 2218.24 1481.83L2218.24 1483.94 2208.68 1484.34 2206.25 1484.34 2206.74 1477.7 2206.13 1477.53C2204.43 1479.34 2202.95 1480.7 2201.69 1481.61 2200.43 1482.51 2199.1 1483.23 2197.68 1483.77 2196.26 1484.31 2194.74 1484.58 2193.12 1484.58 2188.69 1484.58 2185.27 1482.9 2182.86 1479.54 2180.46 1476.18 2179.26 1471.32 2179.26 1464.97 2179.26 1460.54 2180.04 1456.78 2181.61 1453.68 2183.18 1450.59 2185.29 1448.29 2187.95 1446.77 2190.61 1445.26 2193.6 1444.5 2196.93 1444.5 2198.71 1444.5 2200.33 1444.65 2201.79 1444.93 2203.25 1445.21 2204.75 1445.68 2206.29 1446.33L2206.29 1439.88C2206.29 1437.29 2206.27 1435.48 2206.23 1434.45 2206.19 1433.43 2206.08 1432.55 2205.9 1431.84 2205.73 1431.12 2205.49 1430.56 2205.17 1430.16 2204.86 1429.75 2204.45 1429.43 2203.92 1429.18 2203.39 1428.94 2202.44 1428.7 2201.06 1428.45L2201.06 1426.35ZM2293.68 1425.74C2295.82 1425.74 2297.63 1425.89 2299.11 1426.18L2299.11 1433.52 2295.1 1433.52C2294.59 1431.93 2293.99 1430.8 2293.3 1430.14 2292.61 1429.47 2291.64 1429.14 2290.4 1429.14 2289.51 1429.14 2288.76 1429.27 2288.15 1429.51 2287.54 1429.75 2286.98 1430.13 2286.47 1430.64 2285.96 1431.16 2285.52 1431.85 2285.15 1432.71 2284.79 1433.57 2284.52 1434.65 2284.34 1435.93 2284.17 1437.22 2284.08 1438.88 2284.08 1440.94L2284.08 1445.19 2293.76 1445.19 2293.76 1449.29 2284.08 1449.29 2284.08 1473.8C2284.08 1475.61 2284.17 1476.98 2284.34 1477.9 2284.52 1478.82 2284.77 1479.51 2285.11 1479.98 2285.45 1480.46 2285.9 1480.84 2286.45 1481.12 2287 1481.4 2287.89 1481.68 2289.1 1481.95L2289.1 1483.94 2272.53 1483.94 2272.53 1481.95C2273.72 1481.63 2274.57 1481.32 2275.08 1481.02 2275.59 1480.72 2275.99 1480.34 2276.28 1479.88 2276.56 1479.42 2276.77 1478.76 2276.91 1477.9 2277.04 1477.03 2277.11 1475.67 2277.11 1473.8L2277.11 1449.29 2272.2 1449.29 2272.2 1447.22C2273.23 1447.06 2273.91 1446.93 2274.25 1446.83 2274.59 1446.74 2274.91 1446.6 2275.22 1446.41 2275.53 1446.22 2275.8 1445.95 2276.03 1445.6 2276.26 1445.25 2276.47 1444.73 2276.64 1444.04 2276.82 1443.35 2276.96 1442.38 2277.07 1441.14 2277.31 1438.19 2277.84 1435.8 2278.67 1433.97 2279.49 1432.13 2280.69 1430.56 2282.27 1429.27 2283.86 1427.97 2285.54 1427.06 2287.34 1426.53 2289.14 1426 2291.25 1425.74 2293.68 1425.74ZM2268.68 1425.74C2270.82 1425.74 2272.63 1425.89 2274.11 1426.18L2274.11 1433.52 2270.1 1433.52C2269.59 1431.93 2268.99 1430.8 2268.3 1430.14 2267.61 1429.47 2266.64 1429.14 2265.4 1429.14 2264.51 1429.14 2263.76 1429.27 2263.15 1429.51 2262.54 1429.75 2261.98 1430.13 2261.47 1430.64 2260.96 1431.16 2260.52 1431.85 2260.15 1432.71 2259.79 1433.57 2259.52 1434.65 2259.34 1435.93 2259.17 1437.22 2259.08 1438.88 2259.08 1440.94L2259.08 1445.19 2268.76 1445.19 2268.76 1449.29 2259.08 1449.29 2259.08 1473.8C2259.08 1475.61 2259.17 1476.98 2259.34 1477.9 2259.52 1478.82 2259.77 1479.51 2260.11 1479.98 2260.45 1480.46 2260.9 1480.84 2261.45 1481.12 2262 1481.4 2262.89 1481.68 2264.1 1481.95L2264.1 1483.94 2247.53 1483.94 2247.53 1481.95C2248.72 1481.63 2249.57 1481.32 2250.08 1481.02 2250.59 1480.72 2250.99 1480.34 2251.28 1479.88 2251.56 1479.42 2251.77 1478.76 2251.91 1477.9 2252.04 1477.03 2252.11 1475.67 2252.11 1473.8L2252.11 1449.29 2247.2 1449.29 2247.2 1447.22C2248.23 1447.06 2248.91 1446.93 2249.25 1446.83 2249.59 1446.74 2249.91 1446.6 2250.22 1446.41 2250.53 1446.22 2250.8 1445.95 2251.03 1445.6 2251.26 1445.25 2251.47 1444.73 2251.64 1444.04 2251.82 1443.35 2251.96 1442.38 2252.07 1441.14 2252.31 1438.19 2252.84 1435.8 2253.67 1433.97 2254.49 1432.13 2255.69 1430.56 2257.27 1429.27 2258.86 1427.97 2260.54 1427.06 2262.34 1426.53 2264.14 1426 2266.25 1425.74 2268.68 1425.74Z" fill-rule="evenodd"/><text fill="#000000" fill-opacity="0" font-family="Arial,Arial_MSFontService,sans-serif" font-size="58.8457" x="2179.26" y="1477.23">diff</text><path d="M2399.32 1435.06 2399.32 1441.14 2355.31 1460.23 2399.32 1479.32 2399.32 1485.4 2349.23 1463.06 2349.23 1457.39Z" fill-rule="evenodd"/><text fill="#000000" fill-opacity="0" font-family="Arial,Arial_MSFontService,sans-serif" font-size="50.335" x="2349.23" y="1479.1">&lt;</text><path d="M2452.94 1448.68C2448.76 1450.46 2445.41 1453.47 2442.91 1457.69 2440.41 1461.92 2439.16 1466.67 2439.16 1471.94 2439.16 1478.24 2441.93 1481.38 2447.47 1481.38 2449.66 1481.38 2451.62 1480.65 2453.35 1479.19 2455.08 1477.74 2456.44 1475.69 2457.42 1473.05 2458.41 1470.42 2458.9 1467.63 2458.9 1464.69 2458.9 1461.5 2458.46 1458.65 2457.56 1456.15 2456.67 1453.66 2455.13 1451.16 2452.94 1448.68ZM2457.12 1425.74C2459.47 1425.74 2461.81 1426.15 2464.15 1426.98 2466.49 1427.8 2469.1 1429.25 2471.99 1431.33L2470.61 1437.82 2466.89 1437.82C2465.94 1434.84 2464.61 1432.62 2462.89 1431.15 2461.18 1429.68 2459.12 1428.94 2456.71 1428.94 2454.9 1428.94 2453.46 1429.41 2452.4 1430.34 2451.33 1431.27 2450.8 1432.48 2450.8 1433.97 2450.8 1434.75 2450.97 1435.53 2451.32 1436.32 2451.67 1437.1 2452.34 1438.15 2453.31 1439.46 2454.28 1440.77 2455.78 1442.61 2457.81 1444.99 2460.27 1447.93 2462.05 1450.35 2463.16 1452.24 2464.26 1454.14 2465.07 1456.05 2465.57 1457.98 2466.07 1459.91 2466.32 1462.08 2466.32 1464.48 2466.32 1467.83 2465.53 1471.1 2463.95 1474.29 2462.37 1477.48 2460.1 1479.99 2457.16 1481.83 2454.21 1483.67 2450.81 1484.58 2446.95 1484.58 2443.51 1484.58 2440.68 1484.02 2438.44 1482.88 2436.19 1481.75 2434.56 1480.21 2433.55 1478.26 2432.54 1476.32 2432.03 1474.07 2432.03 1471.54 2432.03 1465.81 2433.63 1460.79 2436.83 1456.48 2440.04 1452.17 2444.77 1448.7 2451.04 1446.08 2448.9 1443.68 2447.34 1441.6 2446.36 1439.84 2445.37 1438.09 2444.88 1436.42 2444.88 1434.86 2444.88 1433.16 2445.35 1431.62 2446.3 1430.24 2447.24 1428.86 2448.65 1427.77 2450.51 1426.95 2452.38 1426.14 2454.58 1425.74 2457.12 1425.74Z" fill-rule="evenodd"/><text fill="#000000" fill-opacity="0" font-family="Arial,Arial_MSFontService,sans-serif" font-size="58.8457" x="2432.03" y="1477.23">𝛿</text><path d="M2057.71 1828.65C2058.55 1828.65 2059.29 1828.74 2059.92 1828.93 2060.56 1829.12 2061.12 1829.41 2061.6 1829.8 2062.09 1830.19 2062.52 1830.7 2062.9 1831.32 2063.28 1831.94 2063.64 1832.79 2064 1833.86 2064.35 1834.92 2064.68 1836.25 2064.99 1837.83 2065.3 1839.41 2065.58 1841.05 2065.82 1842.75L2066.22 1842.75C2068.82 1839.1 2070.78 1836.44 2072.12 1834.75 2073.46 1833.06 2074.59 1831.8 2075.5 1830.98 2076.42 1830.15 2077.31 1829.57 2078.16 1829.24 2079.01 1828.9 2080.14 1828.73 2081.54 1828.73 2082.81 1828.73 2083.85 1828.89 2084.66 1829.22L2083.04 1836.55 2080.21 1836.55C2080.04 1835.42 2079.57 1834.85 2078.79 1834.85 2078.54 1834.85 2078.29 1834.89 2078.02 1834.97 2077.75 1835.05 2077.42 1835.23 2077.02 1835.5 2076.63 1835.77 2076.06 1836.29 2075.3 1837.08 2074.55 1837.86 2073.69 1838.82 2072.75 1839.95 2071.8 1841.09 2070.83 1842.28 2069.83 1843.52L2067.08 1846.97C2067.56 1849.56 2068.02 1851.8 2068.45 1853.69 2068.89 1855.58 2069.27 1857.16 2069.61 1858.42 2069.95 1859.67 2070.24 1860.66 2070.5 1861.39 2070.76 1862.12 2071.03 1862.67 2071.33 1863.04 2071.63 1863.4 2071.93 1863.66 2072.24 1863.81 2072.55 1863.95 2072.91 1864.03 2073.32 1864.03 2074.05 1864.03 2074.76 1863.74 2075.44 1863.18 2076.13 1862.61 2077.13 1861.33 2078.42 1859.33L2081.06 1861.07C2079.17 1863.88 2077.46 1865.86 2075.93 1867.01 2074.4 1868.16 2072.59 1868.73 2070.48 1868.73 2069.32 1868.73 2068.33 1868.52 2067.52 1868.1 2066.71 1867.68 2066.01 1867.01 2065.41 1866.09 2064.82 1865.18 2064.29 1863.74 2063.83 1861.8 2063 1858.34 2062.48 1855.69 2062.29 1853.86L2061.89 1853.86C2059.02 1857.88 2056.9 1860.77 2055.5 1862.53 2054.11 1864.28 2052.96 1865.58 2052.06 1866.42 2051.15 1867.26 2050.28 1867.84 2049.43 1868.18 2048.57 1868.52 2047.45 1868.69 2046.04 1868.69 2044.77 1868.69 2043.73 1868.53 2042.92 1868.2L2044.54 1860.87 2047.38 1860.87C2047.54 1862 2048.01 1862.57 2048.8 1862.57 2049.18 1862.57 2049.57 1862.47 2049.99 1862.27 2050.41 1862.06 2051.01 1861.58 2051.8 1860.81 2052.58 1860.04 2053.66 1858.83 2055.04 1857.18 2056.42 1855.53 2058.42 1853.06 2061.04 1849.76 2060.63 1847.63 2060.21 1845.57 2059.78 1843.6 2059.35 1841.63 2058.9 1839.79 2058.44 1838.09 2057.98 1836.39 2057.61 1835.27 2057.31 1834.75 2057.01 1834.22 2056.69 1833.86 2056.36 1833.65 2056.02 1833.45 2055.59 1833.35 2055.08 1833.35 2054.51 1833.35 2054 1833.48 2053.54 1833.73 2053.08 1833.99 2052.58 1834.44 2052.04 1835.07 2051.5 1835.71 2050.78 1836.7 2049.89 1838.05L2047.26 1836.31C2048.96 1833.74 2050.59 1831.82 2052.16 1830.55 2053.73 1829.28 2055.58 1828.65 2057.71 1828.65Z" fill-rule="evenodd"/><text fill="#000000" fill-opacity="0" font-family="Arial,Arial_MSFontService,sans-serif" font-size="40.0815" x="2042.92" y="1863.72">𝑥</text><path d="M2101.1 1844.27 2103.25 1844.27 2098 1867.44 2098.84 1867.44C2099.59 1867.44 2100.41 1867.28 2101.28 1866.96 2102.15 1866.65 2103.02 1866.23 2103.89 1865.73 2104.75 1865.22 2105.58 1864.65 2106.37 1864.02 2107.17 1863.38 2107.87 1862.74 2108.47 1862.09 2109.08 1861.45 2109.56 1860.84 2109.92 1860.26 2110.28 1859.69 2110.45 1859.2 2110.45 1858.8 2110.45 1858.33 2110.3 1857.94 2109.98 1857.64 2109.66 1857.34 2109.08 1857.14 2108.25 1857.05L2108.61 1855.14 2119.33 1855.14 2120.07 1856.99C2118.82 1858.06 2117.62 1859.05 2116.47 1859.96 2115.32 1860.88 2114.19 1861.76 2113.09 1862.6 2111.99 1863.44 2110.89 1864.27 2109.78 1865.09 2108.68 1865.9 2107.55 1866.75 2106.4 1867.62 2106.88 1869.13 2107.37 1870.66 2107.86 1872.22 2108.36 1873.78 2108.86 1875.32 2109.35 1876.85 2109.59 1877.67 2109.81 1878.37 2110.02 1878.95 2110.23 1879.54 2110.45 1880.02 2110.69 1880.38 2110.93 1880.75 2111.19 1881.02 2111.47 1881.2 2111.74 1881.38 2112.08 1881.47 2112.48 1881.47 2112.76 1881.47 2113.05 1881.42 2113.34 1881.32 2113.64 1881.22 2113.97 1881.04 2114.34 1880.78 2114.71 1880.53 2115.13 1880.17 2115.59 1879.73 2116.06 1879.28 2116.59 1878.72 2117.19 1878.04L2119.21 1879.98C2118.28 1880.93 2117.41 1881.76 2116.6 1882.45 2115.8 1883.15 2115.04 1883.72 2114.31 1884.17 2113.59 1884.61 2112.89 1884.94 2112.21 1885.15 2111.54 1885.36 2110.85 1885.46 2110.16 1885.46 2108.91 1885.46 2107.9 1885.15 2107.13 1884.52 2106.37 1883.9 2105.72 1883 2105.18 1881.84 2104.65 1880.68 2104.15 1879.28 2103.71 1877.63 2103.26 1875.98 2102.74 1874.14 2102.14 1872.12 2102.01 1871.64 2101.87 1871.26 2101.74 1870.97 2101.61 1870.68 2101.45 1870.46 2101.25 1870.31 2101.05 1870.17 2100.8 1870.07 2100.51 1870.03 2100.21 1869.99 2099.83 1869.97 2099.37 1869.97L2097.47 1869.97 2094.19 1884.92 2088.47 1884.92 2095.68 1852.94C2095.92 1851.88 2096.09 1851.05 2096.19 1850.45 2096.29 1849.84 2096.34 1849.3 2096.34 1848.82 2096.34 1848.45 2096.27 1848.12 2096.14 1847.84 2096.01 1847.56 2095.8 1847.34 2095.5 1847.17 2095.2 1847 2094.81 1846.88 2094.31 1846.8 2093.81 1846.72 2093.2 1846.67 2092.46 1846.65L2092.91 1844.63Z" fill-rule="evenodd"/><text fill="#000000" fill-opacity="0" font-family="Arial,Arial_MSFontService,sans-serif" font-size="41.1929" x="2088.47" y="1880.31">𝑘</text><path d="M2143.23 1849.54 2148.05 1849.54 2148.05 1865.21 2162.79 1865.21 2162.79 1869.76 2148.05 1869.76 2148.05 1885.43 2143.23 1885.43 2143.23 1869.76 2128.48 1869.76 2128.48 1865.21 2143.23 1865.21Z" fill-rule="evenodd"/><text fill="#000000" fill-opacity="0" font-family="Arial,Arial_MSFontService,sans-serif" font-size="35.8911" x="2128.48" y="1880.94">+</text><path d="M2187.1 1846.56 2188.91 1846.56C2188.87 1847.65 2188.84 1848.63 2188.82 1849.5 2188.8 1850.36 2188.79 1851.2 2188.78 1852.01 2188.77 1852.83 2188.76 1853.63 2188.76 1854.42L2188.76 1877.06C2188.76 1877.68 2188.78 1878.21 2188.82 1878.65 2188.86 1879.1 2188.93 1879.48 2189.02 1879.79 2189.11 1880.09 2189.23 1880.36 2189.37 1880.58 2189.52 1880.79 2189.7 1880.98 2189.9 1881.14 2190.13 1881.38 2190.45 1881.56 2190.85 1881.69 2191.25 1881.82 2191.75 1881.93 2192.37 1882.02 2192.98 1882.11 2193.72 1882.18 2194.59 1882.23 2195.45 1882.28 2196.49 1882.31 2197.7 1882.33L2197.7 1884.92 2174.08 1884.92 2174.08 1882.33C2175.25 1882.29 2176.24 1882.25 2177.06 1882.2 2177.87 1882.15 2178.57 1882.08 2179.14 1881.99 2179.72 1881.9 2180.18 1881.8 2180.53 1881.69 2180.88 1881.58 2181.18 1881.45 2181.44 1881.29 2181.71 1881.11 2181.95 1880.92 2182.15 1880.71 2182.35 1880.5 2182.51 1880.24 2182.63 1879.92 2182.75 1879.6 2182.84 1879.22 2182.91 1878.76 2182.98 1878.3 2183.01 1877.74 2183.01 1877.06L2183.01 1855.71C2183.01 1854.93 2182.87 1854.38 2182.57 1854.07 2182.27 1853.75 2181.84 1853.59 2181.29 1853.59 2180.67 1853.59 2179.76 1853.91 2178.55 1854.54 2177.34 1855.18 2175.77 1856.12 2173.84 1857.37 2173.58 1856.92 2173.34 1856.46 2173.13 1856 2172.91 1855.55 2172.68 1855.08 2172.44 1854.6 2174.9 1853.25 2177.34 1851.91 2179.75 1850.57 2182.17 1849.23 2184.61 1847.89 2187.1 1846.56Z" fill-rule="evenodd"/><text fill="#000000" fill-opacity="0" font-family="Arial,Arial_MSFontService,sans-serif" font-size="38.3633" x="2172.44" y="1880.13">1</text><path d="M2248.86 1827.63 2251.25 1829.86 2241.97 1841.66 2293.15 1841.66 2293.15 1847.05 2241.97 1847.05 2251.25 1858.88 2248.86 1861.11 2232.93 1845.67 2232.93 1843.08Z" fill-rule="evenodd"/><text fill="#000000" fill-opacity="0" font-family="Arial,Arial_MSFontService,sans-serif" font-size="33.4756" x="2232.93" y="1856.93">←</text><path d="M2336.52 1828.65C2337.36 1828.65 2338.09 1828.74 2338.73 1828.93 2339.36 1829.12 2339.92 1829.41 2340.41 1829.8 2340.89 1830.19 2341.33 1830.7 2341.71 1831.32 2342.08 1831.94 2342.45 1832.79 2342.8 1833.86 2343.15 1834.92 2343.48 1836.25 2343.79 1837.83 2344.1 1839.41 2344.38 1841.05 2344.62 1842.75L2345.03 1842.75C2347.62 1839.1 2349.59 1836.44 2350.93 1834.75 2352.26 1833.06 2353.39 1831.8 2354.31 1830.98 2355.23 1830.15 2356.11 1829.57 2356.96 1829.24 2357.81 1828.9 2358.94 1828.73 2360.35 1828.73 2361.62 1828.73 2362.66 1828.89 2363.47 1829.22L2361.85 1836.55 2359.01 1836.55C2358.85 1835.42 2358.38 1834.85 2357.59 1834.85 2357.35 1834.85 2357.09 1834.89 2356.82 1834.97 2356.55 1835.05 2356.22 1835.23 2355.83 1835.5 2355.44 1835.77 2354.86 1836.29 2354.11 1837.08 2353.35 1837.86 2352.5 1838.82 2351.55 1839.95 2350.61 1841.09 2349.64 1842.28 2348.64 1843.52L2345.88 1846.97C2346.37 1849.56 2346.82 1851.8 2347.26 1853.69 2347.69 1855.58 2348.07 1857.16 2348.41 1858.42 2348.75 1859.67 2349.05 1860.66 2349.3 1861.39 2349.56 1862.12 2349.84 1862.67 2350.13 1863.04 2350.43 1863.4 2350.74 1863.66 2351.05 1863.81 2351.36 1863.95 2351.72 1864.03 2352.12 1864.03 2352.85 1864.03 2353.56 1863.74 2354.25 1863.18 2354.94 1862.61 2355.93 1861.33 2357.23 1859.33L2359.86 1861.07C2357.97 1863.88 2356.26 1865.86 2354.73 1867.01 2353.21 1868.16 2351.39 1868.73 2349.28 1868.73 2348.12 1868.73 2347.14 1868.52 2346.33 1868.1 2345.51 1867.68 2344.81 1867.01 2344.22 1866.09 2343.62 1865.18 2343.1 1863.74 2342.64 1861.8 2341.8 1858.34 2341.29 1855.69 2341.1 1853.86L2340.69 1853.86C2337.83 1857.88 2335.7 1860.77 2334.31 1862.53 2332.92 1864.28 2331.77 1865.58 2330.86 1866.42 2329.96 1867.26 2329.08 1867.84 2328.23 1868.18 2327.38 1868.52 2326.25 1868.69 2324.85 1868.69 2323.58 1868.69 2322.54 1868.53 2321.73 1868.2L2323.35 1860.87 2326.18 1860.87C2326.35 1862 2326.82 1862.57 2327.6 1862.57 2327.98 1862.57 2328.38 1862.47 2328.8 1862.27 2329.22 1862.06 2329.82 1861.58 2330.6 1860.81 2331.38 1860.04 2332.46 1858.83 2333.84 1857.18 2335.22 1855.53 2337.22 1853.06 2339.84 1849.76 2339.44 1847.63 2339.02 1845.57 2338.58 1843.6 2338.15 1841.63 2337.71 1839.79 2337.25 1838.09 2336.79 1836.39 2336.41 1835.27 2336.11 1834.75 2335.82 1834.22 2335.5 1833.86 2335.16 1833.65 2334.82 1833.45 2334.4 1833.35 2333.88 1833.35 2333.32 1833.35 2332.8 1833.48 2332.34 1833.73 2331.88 1833.99 2331.38 1834.44 2330.84 1835.07 2330.3 1835.71 2329.59 1836.7 2328.7 1838.05L2326.06 1836.31C2327.76 1833.74 2329.4 1831.82 2330.97 1830.55 2332.53 1829.28 2334.38 1828.65 2336.52 1828.65Z" fill-rule="evenodd"/><text fill="#000000" fill-opacity="0" font-family="Arial,Arial_MSFontService,sans-serif" font-size="40.0815" x="2321.73" y="1863.72">𝑥</text><path d="M2379.91 1844.27 2382.05 1844.27 2376.81 1867.44 2377.64 1867.44C2378.4 1867.44 2379.21 1867.28 2380.08 1866.96 2380.96 1866.65 2381.83 1866.23 2382.69 1865.73 2383.55 1865.22 2384.38 1864.65 2385.18 1864.02 2385.97 1863.38 2386.67 1862.74 2387.28 1862.09 2387.88 1861.45 2388.36 1860.84 2388.72 1860.26 2389.08 1859.69 2389.26 1859.2 2389.26 1858.8 2389.26 1858.33 2389.1 1857.94 2388.78 1857.64 2388.46 1857.34 2387.89 1857.14 2387.05 1857.05L2387.41 1855.14 2398.13 1855.14 2398.88 1856.99C2397.63 1858.06 2396.43 1859.05 2395.27 1859.96 2394.12 1860.88 2393 1861.76 2391.89 1862.6 2390.79 1863.44 2389.69 1864.27 2388.59 1865.09 2387.49 1865.9 2386.36 1866.75 2385.21 1867.62 2385.68 1869.13 2386.17 1870.66 2386.67 1872.22 2387.16 1873.78 2387.66 1875.32 2388.16 1876.85 2388.39 1877.67 2388.62 1878.37 2388.83 1878.95 2389.03 1879.54 2389.26 1880.02 2389.5 1880.38 2389.73 1880.75 2389.99 1881.02 2390.27 1881.2 2390.55 1881.38 2390.89 1881.47 2391.28 1881.47 2391.56 1881.47 2391.85 1881.42 2392.15 1881.32 2392.45 1881.22 2392.78 1881.04 2393.15 1880.78 2393.51 1880.53 2393.93 1880.17 2394.4 1879.73 2394.86 1879.28 2395.39 1878.72 2395.99 1878.04L2398.02 1879.98C2397.08 1880.93 2396.21 1881.76 2395.41 1882.45 2394.6 1883.15 2393.84 1883.72 2393.12 1884.17 2392.39 1884.61 2391.69 1884.94 2391.02 1885.15 2390.34 1885.36 2389.66 1885.46 2388.96 1885.46 2387.71 1885.46 2386.7 1885.15 2385.94 1884.52 2385.17 1883.9 2384.52 1883 2383.99 1881.84 2383.45 1880.68 2382.96 1879.28 2382.51 1877.63 2382.07 1875.98 2381.54 1874.14 2380.95 1872.12 2380.81 1871.64 2380.68 1871.26 2380.55 1870.97 2380.42 1870.68 2380.25 1870.46 2380.05 1870.31 2379.86 1870.17 2379.61 1870.07 2379.31 1870.03 2379.01 1869.99 2378.64 1869.97 2378.18 1869.97L2376.27 1869.97 2373 1884.92 2367.28 1884.92 2374.48 1852.94C2374.72 1851.88 2374.89 1851.05 2374.99 1850.45 2375.09 1849.84 2375.14 1849.3 2375.14 1848.82 2375.14 1848.45 2375.08 1848.12 2374.95 1847.84 2374.82 1847.56 2374.6 1847.34 2374.31 1847.17 2374.01 1847 2373.61 1846.88 2373.11 1846.8 2372.62 1846.72 2372 1846.67 2371.27 1846.65L2371.71 1844.63Z" fill-rule="evenodd"/><text fill="#000000" fill-opacity="0" font-family="Arial,Arial_MSFontService,sans-serif" font-size="41.1929" x="2367.28" y="1880.31">𝑘</text><path d="M2430.04 1841.66 2479.97 1841.66 2479.97 1847.05 2430.04 1847.05Z" fill-rule="evenodd"/><text fill="#000000" fill-opacity="0" font-family="Arial,Arial_MSFontService,sans-serif" font-size="5.39014" x="2430.04" y="1846.37">−</text><path d="M2526.7 1831.89C2523.24 1831.89 2520.61 1833.27 2518.8 1836.04 2516.99 1838.81 2516.08 1842.79 2516.08 1847.98 2516.08 1853.17 2516.83 1857.11 2518.31 1859.81 2519.8 1862.52 2522.05 1863.87 2525.08 1863.87 2526.27 1863.87 2527.26 1863.76 2528.04 1863.56 2528.82 1863.36 2529.59 1863.04 2530.35 1862.59 2531.11 1862.14 2531.88 1861.53 2532.66 1860.75 2533.44 1859.96 2534.02 1859.25 2534.38 1858.6 2534.75 1857.95 2535.02 1857.21 2535.21 1856.37 2535.4 1855.53 2535.5 1854.45 2535.5 1853.13L2535.5 1844.05C2535.5 1841.94 2535.4 1840.25 2535.21 1838.98 2535.02 1837.71 2534.71 1836.65 2534.26 1835.78 2533.81 1834.92 2533.21 1834.19 2532.46 1833.59 2531.7 1833 2530.87 1832.57 2529.96 1832.3 2529.06 1832.03 2527.97 1831.89 2526.7 1831.89ZM2563.02 1828.97 2565.49 1828.97 2565.49 1857.95C2565.49 1860.27 2565.6 1861.89 2565.81 1862.79 2566.03 1863.7 2566.44 1864.39 2567.05 1864.86 2567.66 1865.33 2568.65 1865.74 2570.03 1866.09L2570.03 1868.08 2554.14 1868.08 2554.14 1866.09C2555.19 1865.77 2555.94 1865.49 2556.39 1865.24 2556.84 1865 2557.21 1864.66 2557.52 1864.23 2557.84 1863.8 2558.08 1863.14 2558.25 1862.24 2558.43 1861.35 2558.52 1859.96 2558.52 1858.07L2558.52 1840.4C2558.52 1838.67 2558.49 1837.28 2558.44 1836.23 2558.38 1835.17 2558.19 1834.33 2557.87 1833.69 2557.54 1833.06 2557.05 1832.59 2556.39 1832.27 2555.73 1831.96 2554.79 1831.7 2553.57 1831.48L2553.57 1829.34ZM2558.27 1813.45 2565.73 1813.45 2565.73 1821.31 2558.27 1821.31ZM2540.08 1810.09 2542.47 1810.09 2542.47 1857.02C2542.47 1859.12 2542.51 1860.63 2542.59 1861.54 2542.67 1862.44 2542.85 1863.16 2543.12 1863.7 2543.39 1864.24 2543.81 1864.68 2544.39 1865.02 2544.97 1865.36 2545.99 1865.68 2547.45 1865.97L2547.45 1868.08 2537.89 1868.49 2535.46 1868.49 2535.94 1861.84 2535.33 1861.68C2533.63 1863.49 2532.15 1864.85 2530.9 1865.75 2529.64 1866.66 2528.3 1867.38 2526.88 1867.92 2525.47 1868.46 2523.95 1868.73 2522.32 1868.73 2517.89 1868.73 2514.48 1867.05 2512.07 1863.68 2509.67 1860.32 2508.46 1855.46 2508.46 1849.11 2508.46 1844.68 2509.25 1840.92 2510.82 1837.83 2512.38 1834.73 2514.5 1832.43 2517.16 1830.92 2519.82 1829.4 2522.81 1828.65 2526.13 1828.65 2527.92 1828.65 2529.54 1828.79 2531 1829.07 2532.46 1829.36 2533.96 1829.82 2535.5 1830.47L2535.5 1824.03C2535.5 1821.43 2535.48 1819.62 2535.44 1818.6 2535.4 1817.57 2535.29 1816.7 2535.11 1815.98 2534.94 1815.27 2534.69 1814.71 2534.38 1814.3 2534.07 1813.9 2533.65 1813.57 2533.13 1813.33 2532.6 1813.09 2531.65 1812.84 2530.27 1812.6L2530.27 1810.49ZM2622.89 1809.88C2625.02 1809.88 2626.83 1810.03 2628.32 1810.33L2628.32 1817.66 2624.31 1817.66C2623.8 1816.07 2623.19 1814.94 2622.51 1814.28 2621.82 1813.62 2620.85 1813.29 2619.61 1813.29 2618.72 1813.29 2617.97 1813.41 2617.36 1813.65 2616.75 1813.9 2616.19 1814.27 2615.68 1814.79 2615.16 1815.3 2614.72 1815.99 2614.36 1816.85 2613.99 1817.72 2613.72 1818.79 2613.55 1820.08 2613.37 1821.36 2613.29 1823.03 2613.29 1825.08L2613.29 1829.34 2622.97 1829.34 2622.97 1833.43 2613.29 1833.43 2613.29 1857.95C2613.29 1859.76 2613.37 1861.12 2613.55 1862.04 2613.72 1862.96 2613.98 1863.66 2614.32 1864.13 2614.66 1864.6 2615.1 1864.98 2615.66 1865.26 2616.21 1865.55 2617.09 1865.82 2618.31 1866.09L2618.31 1868.08 2601.74 1868.08 2601.74 1866.09C2602.92 1865.77 2603.77 1865.46 2604.29 1865.16 2604.8 1864.87 2605.2 1864.49 2605.48 1864.03 2605.77 1863.57 2605.98 1862.91 2606.11 1862.04 2606.25 1861.18 2606.31 1859.81 2606.31 1857.95L2606.31 1833.43 2601.41 1833.43 2601.41 1831.36C2602.44 1831.2 2603.12 1831.07 2603.46 1830.98 2603.8 1830.88 2604.12 1830.74 2604.43 1830.55 2604.74 1830.36 2605.01 1830.09 2605.24 1829.74 2605.47 1829.39 2605.67 1828.87 2605.85 1828.18 2606.02 1827.49 2606.17 1826.53 2606.27 1825.28 2606.52 1822.34 2607.05 1819.95 2607.88 1818.11 2608.7 1816.27 2609.9 1814.71 2611.48 1813.41 2613.06 1812.11 2614.75 1811.2 2616.55 1810.67 2618.34 1810.15 2620.46 1809.88 2622.89 1809.88ZM2597.89 1809.88C2600.02 1809.88 2601.83 1810.03 2603.32 1810.33L2603.32 1817.66 2599.31 1817.66C2598.8 1816.07 2598.19 1814.94 2597.51 1814.28 2596.82 1813.62 2595.85 1813.29 2594.61 1813.29 2593.72 1813.29 2592.97 1813.41 2592.36 1813.65 2591.75 1813.9 2591.19 1814.27 2590.68 1814.79 2590.16 1815.3 2589.72 1815.99 2589.36 1816.85 2588.99 1817.72 2588.72 1818.79 2588.55 1820.08 2588.37 1821.36 2588.29 1823.03 2588.29 1825.08L2588.29 1829.34 2597.97 1829.34 2597.97 1833.43 2588.29 1833.43 2588.29 1857.95C2588.29 1859.76 2588.37 1861.12 2588.55 1862.04 2588.72 1862.96 2588.98 1863.66 2589.32 1864.13 2589.66 1864.6 2590.1 1864.98 2590.66 1865.26 2591.21 1865.55 2592.09 1865.82 2593.31 1866.09L2593.31 1868.08 2576.74 1868.08 2576.74 1866.09C2577.92 1865.77 2578.77 1865.46 2579.29 1865.16 2579.8 1864.87 2580.2 1864.49 2580.48 1864.03 2580.77 1863.57 2580.98 1862.91 2581.11 1862.04 2581.25 1861.18 2581.31 1859.81 2581.31 1857.95L2581.31 1833.43 2576.41 1833.43 2576.41 1831.36C2577.44 1831.2 2578.12 1831.07 2578.46 1830.98 2578.8 1830.88 2579.12 1830.74 2579.43 1830.55 2579.74 1830.36 2580.01 1830.09 2580.24 1829.74 2580.47 1829.39 2580.67 1828.87 2580.85 1828.18 2581.02 1827.49 2581.17 1826.53 2581.27 1825.28 2581.52 1822.34 2582.05 1819.95 2582.88 1818.11 2583.7 1816.27 2584.9 1814.71 2586.48 1813.41 2588.06 1812.11 2589.75 1811.2 2591.55 1810.67 2593.34 1810.15 2595.46 1809.88 2597.89 1809.88Z" fill-rule="evenodd"/><text fill="#000000" fill-opacity="0" font-family="Arial,Arial_MSFontService,sans-serif" font-size="58.8457" x="2508.46" y="1861.37">diff</text><path d="M2062.82 1905.12 2065.17 1905.12 2057.23 1940.5 2058.52 1940.5C2060.55 1940.5 2062.83 1939.61 2065.35 1937.84 2067.88 1936.07 2069.9 1934.43 2071.41 1932.92 2072.92 1931.41 2073.68 1929.95 2073.68 1928.54 2073.68 1927.22 2072.76 1926.47 2070.93 1926.31L2071.37 1924.33 2084.5 1924.33 2085.27 1926.31C2083.03 1928.34 2080.65 1930.32 2078.14 1932.27L2068.09 1940.05 2072.06 1954.68C2072.38 1955.92 2072.67 1956.82 2072.93 1957.38 2073.19 1957.93 2073.49 1958.34 2073.82 1958.61 2074.16 1958.88 2074.61 1959.02 2075.18 1959.02 2075.88 1959.02 2076.72 1958.64 2077.69 1957.88 2078.67 1957.13 2079.77 1956.03 2081.02 1954.6L2083.33 1956.87C2080.9 1959.44 2078.88 1961.22 2077.29 1962.22 2075.69 1963.22 2074.15 1963.72 2072.67 1963.72 2070.83 1963.72 2069.37 1963.2 2068.29 1962.16 2067.21 1961.12 2066.36 1959.38 2065.74 1956.95L2063.06 1946.41C2062.79 1945.36 2062.52 1944.63 2062.25 1944.23 2061.98 1943.82 2061.67 1943.55 2061.32 1943.41 2060.97 1943.28 2060.35 1943.21 2059.46 1943.21L2056.66 1943.21 2052.44 1963.07 2045.43 1963.07 2055.85 1916.75C2056.2 1915.18 2056.45 1913.96 2056.6 1913.08 2056.75 1912.2 2056.82 1911.43 2056.82 1910.75 2056.82 1909.61 2056.48 1908.82 2055.79 1908.36 2055.1 1907.9 2053.86 1907.64 2052.08 1907.59L2052.57 1905.48Z" fill-rule="evenodd"/><text fill="#000000" fill-opacity="0" font-family="Arial,Arial_MSFontService,sans-serif" font-size="58.6025" x="2045.43" y="1956.39">𝑘</text><path d="M2132.88 1922.62 2135.27 1924.85 2125.99 1936.65 2177.17 1936.65 2177.17 1942.04 2125.99 1942.04 2135.27 1953.87 2132.88 1956.1 2116.95 1940.66 2116.95 1938.07Z" fill-rule="evenodd"/><text fill="#000000" fill-opacity="0" font-family="Arial,Arial_MSFontService,sans-serif" font-size="33.4756" x="2116.95" y="1951.92">←</text><path d="M2225.64 1905.12 2227.99 1905.12 2220.05 1940.5 2221.35 1940.5C2223.37 1940.5 2225.65 1939.61 2228.18 1937.84 2230.7 1936.07 2232.72 1934.43 2234.23 1932.92 2235.75 1931.41 2236.5 1929.95 2236.5 1928.54 2236.5 1927.22 2235.59 1926.47 2233.75 1926.31L2234.19 1924.33 2247.32 1924.33 2248.09 1926.31C2245.85 1928.34 2243.47 1930.32 2240.96 1932.27L2230.91 1940.05 2234.88 1954.68C2235.21 1955.92 2235.5 1956.82 2235.75 1957.38 2236.01 1957.93 2236.31 1958.34 2236.65 1958.61 2236.98 1958.88 2237.44 1959.02 2238 1959.02 2238.71 1959.02 2239.54 1958.64 2240.52 1957.88 2241.49 1957.13 2242.6 1956.03 2243.84 1954.6L2246.15 1956.87C2243.72 1959.44 2241.71 1961.22 2240.11 1962.22 2238.52 1963.22 2236.98 1963.72 2235.49 1963.72 2233.65 1963.72 2232.19 1963.2 2231.11 1962.16 2230.03 1961.12 2229.18 1959.38 2228.56 1956.95L2225.89 1946.41C2225.62 1945.36 2225.35 1944.63 2225.08 1944.23 2224.81 1943.82 2224.49 1943.55 2224.14 1943.41 2223.79 1943.28 2223.17 1943.21 2222.28 1943.21L2219.48 1943.21 2215.27 1963.07 2208.26 1963.07 2218.67 1916.75C2219.02 1915.18 2219.27 1913.96 2219.42 1913.08 2219.57 1912.2 2219.64 1911.43 2219.64 1910.75 2219.64 1909.61 2219.3 1908.82 2218.61 1908.36 2217.92 1907.9 2216.69 1907.64 2214.9 1907.59L2215.39 1905.48Z" fill-rule="evenodd"/><text fill="#000000" fill-opacity="0" font-family="Arial,Arial_MSFontService,sans-serif" font-size="58.6025" x="2208.26" y="1956.39">𝑘</text><path d="M2298.65 1913.3 2304.41 1913.3 2304.41 1936.65 2326.5 1936.65 2326.5 1942.04 2304.41 1942.04 2304.41 1965.38 2298.65 1965.38 2298.65 1942.04 2276.57 1942.04 2276.57 1936.65 2298.65 1936.65Z" fill-rule="evenodd"/><text fill="#000000" fill-opacity="0" font-family="Arial,Arial_MSFontService,sans-serif" font-size="52.0776" x="2276.57" y="1958.87">+</text><path d="M2376.92 1907.1 2379.15 1907.1C2378.98 1909.7 2378.9 1913.29 2378.9 1917.88L2378.9 1952.49C2378.9 1954.06 2378.99 1955.24 2379.17 1956.04 2379.34 1956.84 2379.65 1957.48 2380.1 1957.98 2380.54 1958.48 2381.19 1958.88 2382.02 1959.16 2382.86 1959.44 2383.91 1959.66 2385.18 1959.81 2386.45 1959.96 2388.13 1960.06 2390.21 1960.11L2390.21 1963.07 2360.26 1963.07 2360.26 1960.11C2363.26 1959.98 2365.4 1959.79 2366.68 1959.56 2367.97 1959.34 2368.95 1958.99 2369.62 1958.53 2370.3 1958.07 2370.79 1957.42 2371.1 1956.59 2371.41 1955.75 2371.57 1954.38 2371.57 1952.49L2371.57 1919.63C2371.57 1918.54 2371.38 1917.75 2371 1917.25 2370.62 1916.75 2370.07 1916.5 2369.34 1916.5 2368.47 1916.5 2367.24 1916.95 2365.65 1917.84 2364.06 1918.73 2362.08 1919.96 2359.73 1921.53L2357.95 1918.41Z" fill-rule="evenodd"/><text fill="#000000" fill-opacity="0" font-family="Arial,Arial_MSFontService,sans-serif" font-size="55.9683" x="2357.95" y="1956.07">1</text></g></svg>
